AbhayaLibre-Regular.ufo
<glyph name="uni0D82" format="1">
  <advance width="364"/>
  <unicode hex="0D82"/>
  <outline>
    <contour>
      <point x="67.0039" y="176" type="curve" smooth="yes"/>
      <point x="67.0039" y="119.723"/>
      <point x="114.449" y="74.1182"/>
      <point x="173" y="74.1182" type="curve" smooth="yes"/>
      <point x="231.551" y="74.1182"/>
      <point x="278.996" y="119.723"/>
      <point x="278.996" y="176" type="curve" smooth="yes"/>
      <point x="278.996" y="232.277"/>
      <point x="231.551" y="277.882"/>
      <point x="173" y="277.882" type="curve" smooth="yes"/>
      <point x="114.449" y="277.882"/>
      <point x="67.0039" y="232.277"/>
    </contour>
    <contour>
      <point x="29.8936" y="165" type="curve" smooth="yes"/>
      <point x="29.8936" y="242.111"/>
      <point x="94.3467" y="305.301"/>
      <point x="173" y="305.301" type="curve" smooth="yes"/>
      <point x="251.653" y="305.301"/>
      <point x="316.106" y="242.111"/>
      <point x="316.106" y="165" type="curve" smooth="yes"/>
      <point x="316.106" y="87.8887"/>
      <point x="251.653" y="24.6992"/>
      <point x="173" y="24.6992" type="curve" smooth="yes"/>
      <point x="94.3467" y="24.6992"/>
      <point x="29.8936" y="87.8887"/>
    </contour>
  </outline>
</glyph>
<glyph name="visarga" format="1">
  <advance width="248"/>
  <unicode hex="0D83"/>
  <outline>
    <contour>
      <point x="60.46" y="111" type="curve" smooth="yes"/>
      <point x="60.46" y="80.7002"/>
      <point x="84.7002" y="56.46"/>
      <point x="115" y="56.46" type="curve" smooth="yes"/>
      <point x="145.3" y="56.46"/>
      <point x="169.54" y="80.7002"/>
      <point x="169.54" y="111" type="curve" smooth="yes"/>
      <point x="169.54" y="141.3"/>
      <point x="145.3" y="165.54"/>
      <point x="115" y="165.54" type="curve" smooth="yes"/>
      <point x="84.7002" y="165.54"/>
      <point x="60.46" y="141.3"/>
    </contour>
    <contour>
      <point x="31" y="110" type="curve" smooth="yes"/>
      <point x="31" y="156"/>
      <point x="69" y="194"/>
      <point x="115" y="194" type="curve" smooth="yes"/>
      <point x="161" y="194"/>
      <point x="199" y="156"/>
      <point x="199" y="110" type="curve" smooth="yes"/>
      <point x="199" y="64"/>
      <point x="161" y="26"/>
      <point x="115" y="26" type="curve" smooth="yes"/>
      <point x="69" y="26"/>
      <point x="31" y="64"/>
    </contour>
    <contour>
      <point x="60.46" y="313" type="curve" smooth="yes"/>
      <point x="60.46" y="282.7"/>
      <point x="84.7002" y="258.46"/>
      <point x="115" y="258.46" type="curve" smooth="yes"/>
      <point x="145.3" y="258.46"/>
      <point x="169.54" y="282.7"/>
      <point x="169.54" y="313" type="curve" smooth="yes"/>
      <point x="169.54" y="343.3"/>
      <point x="145.3" y="367.54"/>
      <point x="115" y="367.54" type="curve" smooth="yes"/>
      <point x="84.7002" y="367.54"/>
      <point x="60.46" y="343.3"/>
    </contour>
    <contour>
      <point x="31" y="312" type="curve" smooth="yes"/>
      <point x="31" y="358"/>
      <point x="69" y="396"/>
      <point x="115" y="396" type="curve" smooth="yes"/>
      <point x="161" y="396"/>
      <point x="199" y="358"/>
      <point x="199" y="312" type="curve" smooth="yes"/>
      <point x="199" y="266"/>
      <point x="161" y="228"/>
      <point x="115" y="228" type="curve" smooth="yes"/>
      <point x="69" y="228"/>
      <point x="31" y="266"/>
    </contour>
  </outline>
</glyph>
<glyph name="si_Aa" format="1">
  <advance width="850"/>
  <unicode hex="0D86"/>
  <outline>
    <contour>
      <point x="557" y="110.1" type="curve" smooth="yes"/>
      <point x="557" y="117.507"/>
      <point x="557.333" y="124.914"/>
      <point x="558" y="132.32" type="curve"/>
      <point x="585" y="132.32" type="line"/>
      <point x="584.333" y="127.606"/>
      <point x="584" y="122.557"/>
      <point x="584" y="117.17" type="curve" smooth="yes"/>
      <point x="584" y="68.6904"/>
      <point x="611.871" y="36.4004"/>
      <point x="653" y="36.4004" type="curve" smooth="yes"/>
      <point x="712" y="36.4004"/>
      <point x="739" y="90.54"/>
      <point x="739" y="201" type="curve" smooth="yes"/>
      <point x="739" y="311.46"/>
      <point x="712" y="365.6"/>
      <point x="653" y="365.6" type="curve" smooth="yes"/>
      <point x="611.871" y="365.6"/>
      <point x="584" y="333.31"/>
      <point x="584" y="284.83" type="curve" smooth="yes"/>
      <point x="584" y="279.443"/>
      <point x="584.333" y="274.394"/>
      <point x="585" y="269.68" type="curve"/>
      <point x="558" y="269.68" type="line"/>
      <point x="557.333" y="277.086"/>
      <point x="557" y="284.494"/>
      <point x="557" y="291.9" type="curve" smooth="yes"/>
      <point x="557" y="360.729"/>
      <point x="600.588" y="403"/>
      <point x="668" y="403" type="curve" smooth="yes"/>
      <point x="759" y="403"/>
      <point x="805" y="329.27"/>
      <point x="805" y="201" type="curve" smooth="yes"/>
      <point x="805" y="72.7305"/>
      <point x="759" y="-1"/>
      <point x="668" y="-1" type="curve" smooth="yes"/>
      <point x="600.588" y="-1"/>
      <point x="557" y="41.2715"/>
    </contour>
    <component base="si_A"/>
  </outline>
</glyph>
<glyph name="si_Uu" format="1">
  <advance width="991"/>
  <unicode hex="0D8C"/>
  <outline>
    <contour>
      <point x="583" y="322" type="curve" smooth="yes"/>
      <point x="583" y="370.667"/>
      <point x="599" y="405"/>
      <point x="620" y="429" type="curve"/>
      <point x="655" y="429" type="line"/>
      <point x="633" y="411"/>
      <point x="612" y="375.667"/>
      <point x="612" y="323" type="curve" smooth="yes"/>
      <point x="612" y="277.29"/>
      <point x="638.38" y="239"/>
      <point x="684" y="239" type="curve" smooth="yes"/>
      <point x="718" y="239"/>
      <point x="736" y="262.458"/>
      <point x="736" y="291" type="curve" smooth="yes"/>
      <point x="736" y="308.333"/>
      <point x="729.333" y="324"/>
      <point x="716" y="338" type="curve"/>
      <point x="715.434" y="343.207"/>
      <point x="715.139" y="345.207"/>
      <point x="715.139" y="350" type="curve" smooth="yes"/>
      <point x="715.139" y="399"/>
      <point x="743.308" y="433"/>
      <point x="809" y="433" type="curve" smooth="yes"/>
      <point x="912" y="433"/>
      <point x="943" y="316.587"/>
      <point x="943" y="221" type="curve" smooth="yes"/>
      <point x="943" y="102"/>
      <point x="900" y="-1"/>
      <point x="795" y="-1" type="curve" smooth="yes"/>
      <point x="721" y="-1"/>
      <point x="684" y="54.9697"/>
      <point x="684" y="121" type="curve" smooth="yes"/>
      <point x="684" y="133"/>
      <point x="685.333" y="145.333"/>
      <point x="688" y="158" type="curve"/>
      <point x="714" y="158" type="line"/>
      <point x="712" y="147.333"/>
      <point x="711" y="136.667"/>
      <point x="711" y="126" type="curve" smooth="yes"/>
      <point x="711" y="72.0176"/>
      <point x="738.384" y="27"/>
      <point x="791" y="27" type="curve" smooth="yes"/>
      <point x="850" y="27"/>
      <point x="873" y="101"/>
      <point x="873" y="239" type="curve" smooth="yes"/>
      <point x="873" y="351.018"/>
      <point x="846" y="408"/>
      <point x="798" y="408" type="curve" smooth="yes"/>
      <point x="764" y="408"/>
      <point x="742.861" y="390"/>
      <point x="742.861" y="351" type="curve" smooth="yes"/>
      <point x="742.861" y="348.719"/>
      <point x="742.863" y="346.385"/>
      <point x="743" y="344" type="curve"/>
      <point x="767" y="331.333"/>
      <point x="779" y="313"/>
      <point x="779" y="289" type="curve" smooth="yes"/>
      <point x="779" y="238.916"/>
      <point x="735.493" y="213"/>
      <point x="685" y="213" type="curve" smooth="yes"/>
      <point x="622" y="213"/>
      <point x="583" y="262.448"/>
    </contour>
    <component base="si_U"/>
  </outline>
</glyph>
<glyph name="si_E" format="1">
  <advance width="595"/>
  <unicode hex="0D91"/>
  <outline>
    <contour>
      <point x="45" y="165" type="curve" smooth="yes"/>
      <point x="45" y="195.721"/>
      <point x="54.7754" y="227.831"/>
      <point x="78" y="248" type="curve" smooth="yes"/>
      <point x="94.127" y="262.005"/>
      <point x="113" y="273"/>
      <point x="139" y="278" type="curve"/>
      <point x="172.761" y="290.199"/>
      <point x="213.875" y="302"/>
      <point x="251" y="302" type="curve" smooth="yes"/>
      <point x="263" y="302" type="line"/>
      <point x="263.082" y="304.041"/>
      <point x="263.086" y="306.041"/>
      <point x="263.086" y="308" type="curve" smooth="yes"/>
      <point x="263.086" y="356"/>
      <point x="228" y="395"/>
      <point x="191" y="395" type="curve" smooth="yes"/>
      <point x="152" y="395"/>
      <point x="143" y="374"/>
      <point x="138.5" y="356" type="curve" smooth="yes"/>
      <point x="133.614" y="336.456"/>
      <point x="122.871" y="323"/>
      <point x="101" y="323" type="curve" smooth="yes"/>
      <point x="85" y="323"/>
      <point x="64" y="333"/>
      <point x="64" y="360" type="curve" smooth="yes"/>
      <point x="64" y="403"/>
      <point x="107" y="431.5"/>
      <point x="165" y="431.5" type="curve" smooth="yes"/>
      <point x="253" y="431.5"/>
      <point x="295.146" y="363"/>
      <point x="295.146" y="290" type="curve" smooth="yes"/>
      <point x="295.146" y="286.722"/>
      <point x="295.101" y="280.388"/>
      <point x="295" y="277" type="curve"/>
      <point x="231" y="277" type="line" smooth="yes"/>
      <point x="186.56" y="277"/>
      <point x="147.117" y="264.814"/>
      <point x="122" y="249" type="curve" smooth="yes"/>
      <point x="95" y="232"/>
      <point x="82" y="206.051"/>
      <point x="82" y="180" type="curve" smooth="yes"/>
      <point x="82" y="94"/>
      <point x="189" y="71"/>
      <point x="279" y="71" type="curve" smooth="yes"/>
      <point x="432" y="71"/>
      <point x="513" y="148"/>
      <point x="513" y="267" type="curve" smooth="yes"/>
      <point x="513" y="323.667"/>
      <point x="496" y="376"/>
      <point x="471" y="412" type="curve"/>
      <point x="456.333" y="379.333"/>
      <point x="426" y="359"/>
      <point x="383" y="359" type="curve" smooth="yes"/>
      <point x="319.844" y="359"/>
      <point x="283" y="414"/>
      <point x="283" y="480" type="curve" smooth="yes"/>
      <point x="283" y="530"/>
      <point x="298" y="566"/>
      <point x="325" y="597" type="curve"/>
      <point x="386" y="564"/>
      <point x="456.965" y="492.242"/>
      <point x="493" y="430" type="curve" smooth="yes"/>
      <point x="531.783" y="363.012"/>
      <point x="545" y="315"/>
      <point x="545" y="245" type="curve" smooth="yes"/>
      <point x="545" y="117"/>
      <point x="459" y="0"/>
      <point x="276" y="0" type="curve" smooth="yes"/>
      <point x="155" y="0"/>
      <point x="45" y="46"/>
    </contour>
    <contour>
      <point x="16" y="270" type="curve"/>
      <point x="16" y="302" type="line"/>
      <point x="261" y="302" type="line"/>
      <point x="291" y="277" type="line"/>
      <point x="129" y="277" type="line" smooth="yes"/>
      <point x="58" y="276"/>
      <point x="32" y="272.667"/>
    </contour>
    <contour>
      <point x="313" y="484" type="curve" smooth="yes"/>
      <point x="313" y="434.667"/>
      <point x="333" y="395"/>
      <point x="390" y="395" type="curve" smooth="yes"/>
      <point x="414" y="395"/>
      <point x="441.764" y="406.141"/>
      <point x="452" y="440" type="curve"/>
      <point x="422" y="486"/>
      <point x="372" y="532"/>
      <point x="334" y="560" type="curve"/>
      <point x="322" y="542"/>
      <point x="313" y="518.667"/>
    </contour>
  </outline>
</glyph>
<glyph name="uni0D92" format="1">
  <advance width="595"/>
  <unicode hex="0D92"/>
  <outline>
    <contour>
      <point x="440.5" y="444" type="line"/>
      <point x="440.5" y="694" type="line"/>
      <point x="495.926" y="648"/>
      <point x="596" y="651"/>
      <point x="596" y="555" type="curve" smooth="yes"/>
      <point x="596" y="512.784"/>
      <point x="563.406" y="484"/>
      <point x="514" y="484" type="curve" smooth="yes"/>
      <point x="499.333" y="484"/>
      <point x="484.333" y="486.666"/>
      <point x="469" y="492" type="curve"/>
      <point x="469" y="427" type="line"/>
    </contour>
    <contour>
      <point x="469.105" y="515.273" type="line"/>
      <point x="477.6" y="511.366"/>
      <point x="488.382" y="509.413"/>
      <point x="501.448" y="509.413" type="curve" smooth="yes"/>
      <point x="545.075" y="509.413"/>
      <point x="555" y="533.915"/>
      <point x="555" y="557.438" type="curve" smooth="yes"/>
      <point x="555" y="598.15"/>
      <point x="525.901" y="617.536"/>
      <point x="469.105" y="647.587" type="curve"/>
    </contour>
    <contour>
      <point x="45" y="165" type="curve" smooth="yes"/>
      <point x="45" y="195.721"/>
      <point x="54.7754" y="227.831"/>
      <point x="78" y="248" type="curve" smooth="yes"/>
      <point x="94.127" y="262.005"/>
      <point x="113" y="273"/>
      <point x="139" y="278" type="curve"/>
      <point x="172.761" y="290.199"/>
      <point x="207.875" y="302"/>
      <point x="245" y="302" type="curve" smooth="yes"/>
      <point x="257" y="302" type="line"/>
      <point x="257.082" y="304.041"/>
      <point x="257.086" y="306.041"/>
      <point x="257.086" y="308" type="curve" smooth="yes"/>
      <point x="257.086" y="347"/>
      <point x="231" y="389"/>
      <point x="194" y="389" type="curve" smooth="yes"/>
      <point x="155" y="389"/>
      <point x="144" y="365"/>
      <point x="138.5" y="349" type="curve" smooth="yes"/>
      <point x="131.951" y="329.948"/>
      <point x="121.871" y="317"/>
      <point x="100" y="317" type="curve" smooth="yes"/>
      <point x="84" y="317"/>
      <point x="64" y="327.368"/>
      <point x="64" y="353" type="curve" smooth="yes"/>
      <point x="64" y="400"/>
      <point x="114" y="425.5"/>
      <point x="169" y="425.5" type="curve" smooth="yes"/>
      <point x="257" y="425.5"/>
      <point x="289.146" y="352"/>
      <point x="289.146" y="290" type="curve" smooth="yes"/>
      <point x="289.146" y="286.722"/>
      <point x="289.101" y="280.388"/>
      <point x="289" y="277" type="curve"/>
      <point x="231" y="277" type="line" smooth="yes"/>
      <point x="186.56" y="277"/>
      <point x="147.117" y="264.814"/>
      <point x="122" y="249" type="curve" smooth="yes"/>
      <point x="95" y="232"/>
      <point x="82" y="206.051"/>
      <point x="82" y="180" type="curve" smooth="yes"/>
      <point x="82" y="94"/>
      <point x="189" y="71"/>
      <point x="279" y="71" type="curve" smooth="yes"/>
      <point x="432" y="71"/>
      <point x="513" y="152"/>
      <point x="513" y="261" type="curve" smooth="yes"/>
      <point x="513" y="317.667"/>
      <point x="496" y="358"/>
      <point x="471" y="394" type="curve"/>
      <point x="456.333" y="361.333"/>
      <point x="426" y="341"/>
      <point x="383" y="341" type="curve" smooth="yes"/>
      <point x="319.845" y="341"/>
      <point x="283" y="396"/>
      <point x="283" y="462" type="curve" smooth="yes"/>
      <point x="283" y="512"/>
      <point x="298" y="548"/>
      <point x="325" y="579" type="curve"/>
      <point x="386" y="546"/>
      <point x="454.108" y="472.498"/>
      <point x="493" y="412" type="curve" smooth="yes"/>
      <point x="529" y="356"/>
      <point x="545" y="309"/>
      <point x="545" y="239" type="curve" smooth="yes"/>
      <point x="545" y="119"/>
      <point x="459" y="0"/>
      <point x="276" y="0" type="curve" smooth="yes"/>
      <point x="155" y="0"/>
      <point x="45" y="46"/>
    </contour>
    <contour>
      <point x="16" y="270" type="curve"/>
      <point x="16" y="302" type="line"/>
      <point x="255" y="302" type="line"/>
      <point x="285" y="277" type="line"/>
      <point x="129" y="277" type="line" smooth="yes"/>
      <point x="58" y="276"/>
      <point x="32" y="272.667"/>
    </contour>
    <contour>
      <point x="313" y="466" type="curve" smooth="yes"/>
      <point x="313" y="416.667"/>
      <point x="333" y="377"/>
      <point x="390" y="377" type="curve" smooth="yes"/>
      <point x="414" y="377"/>
      <point x="441.764" y="388.141"/>
      <point x="452" y="422" type="curve"/>
      <point x="422" y="468"/>
      <point x="372" y="514"/>
      <point x="334" y="542" type="curve"/>
      <point x="322" y="524"/>
      <point x="313" y="500.667"/>
    </contour>
  </outline>
</glyph>
<glyph name="si_Oo" format="1">
  <advance width="636"/>
  <unicode hex="0D95"/>
  <outline>
    <contour>
      <point x="139" y="543" type="curve" smooth="yes"/>
      <point x="139" y="567"/>
      <point x="212" y="590"/>
      <point x="284" y="590" type="curve" smooth="yes"/>
      <point x="400" y="590"/>
      <point x="497" y="537"/>
      <point x="530" y="422" type="curve"/>
      <point x="472" y="490"/>
      <point x="387" y="519"/>
      <point x="279" y="519" type="curve" smooth="yes"/>
      <point x="232.675" y="519"/>
      <point x="193" y="514"/>
      <point x="160" y="508" type="curve"/>
      <point x="162" y="510"/>
      <point x="163" y="513"/>
      <point x="163" y="515" type="curve" smooth="yes"/>
      <point x="163" y="526"/>
      <point x="139" y="531"/>
    </contour>
    <contour>
      <point x="42" y="442" type="line"/>
      <point x="123" y="480"/>
      <point x="206" y="493.75"/>
      <point x="282" y="493.75" type="curve" smooth="yes"/>
      <point x="443" y="493.75"/>
      <point x="552.826" y="410"/>
      <point x="552.826" y="272" type="curve" smooth="yes"/>
      <point x="552.826" y="264.804"/>
      <point x="552.614" y="257.469"/>
      <point x="552" y="250" type="curve"/>
      <point x="590" y="245" type="line"/>
      <point x="590" y="292"/>
      <point x="583" y="329"/>
      <point x="572" y="356" type="curve"/>
      <point x="560" y="490"/>
      <point x="486" y="629"/>
      <point x="278" y="629" type="curve" smooth="yes"/>
      <point x="163" y="629"/>
      <point x="98" y="583"/>
      <point x="98" y="546" type="curve" smooth="yes"/>
      <point x="98" y="524"/>
      <point x="126" y="520"/>
      <point x="126" y="508" type="curve" smooth="yes"/>
      <point x="126" y="499"/>
      <point x="74" y="485"/>
      <point x="42" y="473" type="curve"/>
    </contour>
    <contour>
      <point x="274" y="363" type="curve" smooth="yes"/>
      <point x="274" y="337"/>
      <point x="295" y="316"/>
      <point x="321" y="316" type="curve" smooth="yes"/>
      <point x="347" y="316"/>
      <point x="368" y="337"/>
      <point x="368" y="363" type="curve" smooth="yes"/>
      <point x="368" y="389"/>
      <point x="347" y="410"/>
      <point x="321" y="410" type="curve" smooth="yes"/>
      <point x="295" y="410"/>
      <point x="274" y="389"/>
    </contour>
    <contour>
      <point x="30" y="224" type="curve" smooth="yes"/>
      <point x="30" y="332"/>
      <point x="74" y="431.5"/>
      <point x="148" y="431.5" type="curve" smooth="yes"/>
      <point x="167.007" y="431.5"/>
      <point x="173" y="428"/>
      <point x="180" y="423" type="curve" smooth="yes"/>
      <point x="190.609" y="415.422"/>
      <point x="198.873" y="401"/>
      <point x="198.873" y="371" type="curve" smooth="yes"/>
      <point x="198.873" y="357"/>
      <point x="199" y="340.015"/>
      <point x="199" y="337" type="curve" smooth="yes"/>
      <point x="199" y="284"/>
      <point x="240" y="253"/>
      <point x="295" y="253" type="curve" smooth="yes"/>
      <point x="348" y="253"/>
      <point x="389" y="281"/>
      <point x="389" y="326" type="curve" smooth="yes"/>
      <point x="389" y="327"/>
      <point x="389" y="329"/>
      <point x="388" y="331" type="curve"/>
      <point x="382" y="318"/>
      <point x="358.656" y="289"/>
      <point x="318" y="289" type="curve" smooth="yes"/>
      <point x="271.278" y="289"/>
      <point x="245" y="324.079"/>
      <point x="245" y="360" type="curve" smooth="yes"/>
      <point x="245" y="402"/>
      <point x="277" y="434"/>
      <point x="322" y="434" type="curve" smooth="yes"/>
      <point x="381" y="434"/>
      <point x="418" y="389"/>
      <point x="418" y="330" type="curve" smooth="yes"/>
      <point x="418" y="268"/>
      <point x="367" y="224"/>
      <point x="296" y="224" type="curve" smooth="yes"/>
      <point x="225.254" y="224"/>
      <point x="172" y="267"/>
      <point x="172" y="339" type="curve" smooth="yes"/>
      <point x="172" y="344.22"/>
      <point x="172.275" y="362.935"/>
      <point x="172.275" y="372" type="curve" smooth="yes"/>
      <point x="172.275" y="392"/>
      <point x="168.198" y="406"/>
      <point x="145" y="406" type="curve" smooth="yes"/>
      <point x="94" y="406"/>
      <point x="61" y="327"/>
      <point x="61" y="254" type="curve" smooth="yes"/>
      <point x="61" y="149.666"/>
      <point x="116" y="70"/>
      <point x="199" y="70" type="curve" smooth="yes"/>
      <point x="273" y="70"/>
      <point x="293" y="107.667"/>
      <point x="293" y="141" type="curve" smooth="yes"/>
      <point x="293" y="167" type="line"/>
      <point x="317" y="167" type="line"/>
      <point x="317" y="140" type="line" smooth="yes"/>
      <point x="317" y="95.748"/>
      <point x="356" y="71"/>
      <point x="410" y="71" type="curve" smooth="yes"/>
      <point x="505.559" y="71"/>
      <point x="554" y="181.873"/>
      <point x="554" y="286" type="curve"/>
      <point x="570" y="274"/>
      <point x="576" y="264"/>
      <point x="590" y="254" type="curve"/>
      <point x="590" y="126.501"/>
      <point x="543" y="0"/>
      <point x="406" y="0" type="curve" smooth="yes"/>
      <point x="365" y="0"/>
      <point x="321" y="16"/>
      <point x="305" y="55" type="curve"/>
      <point x="283" y="15"/>
      <point x="246" y="0"/>
      <point x="196" y="0" type="curve" smooth="yes"/>
      <point x="78" y="0"/>
      <point x="30" y="127"/>
    </contour>
  </outline>
</glyph>
<glyph name="si_Au" format="1">
  <advance width="1034"/>
  <unicode hex="0D96"/>
  <outline>
    <contour>
      <point x="625" y="321" type="curve" smooth="yes"/>
      <point x="625" y="369.667"/>
      <point x="641" y="404"/>
      <point x="662" y="428" type="curve"/>
      <point x="697" y="428" type="line"/>
      <point x="675" y="410"/>
      <point x="654" y="374.667"/>
      <point x="654" y="322" type="curve" smooth="yes"/>
      <point x="654" y="276.29"/>
      <point x="680.38" y="238"/>
      <point x="726" y="238" type="curve" smooth="yes"/>
      <point x="760" y="238"/>
      <point x="778" y="261.458"/>
      <point x="778" y="290" type="curve" smooth="yes"/>
      <point x="778" y="307.333"/>
      <point x="771.333" y="323"/>
      <point x="758" y="337" type="curve"/>
      <point x="757.434" y="342.207"/>
      <point x="757.139" y="344.207"/>
      <point x="757.139" y="349" type="curve" smooth="yes"/>
      <point x="757.139" y="398"/>
      <point x="785.308" y="432"/>
      <point x="851" y="432" type="curve" smooth="yes"/>
      <point x="954" y="432"/>
      <point x="985" y="315.587"/>
      <point x="985" y="220" type="curve" smooth="yes"/>
      <point x="985" y="101"/>
      <point x="942" y="-2"/>
      <point x="837" y="-2" type="curve" smooth="yes"/>
      <point x="763" y="-2"/>
      <point x="726" y="53.9697"/>
      <point x="726" y="120" type="curve" smooth="yes"/>
      <point x="726" y="132"/>
      <point x="727.333" y="144.333"/>
      <point x="730" y="157" type="curve"/>
      <point x="756" y="157" type="line"/>
      <point x="754" y="146.333"/>
      <point x="753" y="135.667"/>
      <point x="753" y="125" type="curve" smooth="yes"/>
      <point x="753" y="71.0176"/>
      <point x="780.384" y="26"/>
      <point x="833" y="26" type="curve" smooth="yes"/>
      <point x="892" y="26"/>
      <point x="915" y="100"/>
      <point x="915" y="238" type="curve" smooth="yes"/>
      <point x="915" y="350.018"/>
      <point x="888" y="407"/>
      <point x="840" y="407" type="curve" smooth="yes"/>
      <point x="806" y="407"/>
      <point x="784.861" y="389"/>
      <point x="784.861" y="350" type="curve" smooth="yes"/>
      <point x="784.861" y="347.719"/>
      <point x="784.863" y="345.385"/>
      <point x="785" y="343" type="curve"/>
      <point x="809" y="330.333"/>
      <point x="821" y="312"/>
      <point x="821" y="288" type="curve" smooth="yes"/>
      <point x="821" y="237.916"/>
      <point x="777.493" y="212"/>
      <point x="727" y="212" type="curve" smooth="yes"/>
      <point x="664" y="212"/>
      <point x="625" y="261.448"/>
    </contour>
    <component base="si_Os"/>
  </outline>
</glyph>
<glyph name="si_Ga" format="1">
  <advance width="636"/>
  <unicode hex="0D9C"/>
  <outline>
    <contour>
      <point x="34" y="207" type="curve" smooth="yes"/>
      <point x="34" y="330"/>
      <point x="109" y="431.5"/>
      <point x="220" y="431.5" type="curve" smooth="yes"/>
      <point x="223.953" y="431.5"/>
      <point x="228.954" y="431.25"/>
      <point x="233" y="431" type="curve"/>
      <point x="233" y="408" type="line"/>
      <point x="229.645" y="408.284"/>
      <point x="225.311" y="408.45"/>
      <point x="222" y="408.45" type="curve" smooth="yes"/>
      <point x="136" y="408.45"/>
      <point x="69" y="332"/>
      <point x="69" y="230" type="curve" smooth="yes"/>
      <point x="69" y="147"/>
      <point x="117.309" y="71"/>
      <point x="206" y="71" type="curve" smooth="yes"/>
      <point x="265" y="71"/>
      <point x="318" y="98.6416"/>
      <point x="318" y="158" type="curve" smooth="yes"/>
      <point x="318" y="196"/>
      <point x="298.453" y="217"/>
      <point x="267" y="217" type="curve" smooth="yes"/>
      <point x="259.667" y="217"/>
      <point x="250" y="215"/>
      <point x="243" y="210" type="curve"/>
      <point x="242" y="204"/>
      <point x="241" y="195.333"/>
      <point x="241" y="192" type="curve"/>
      <point x="216" y="192" type="line"/>
      <point x="226.196" y="316.902"/>
      <point x="288" y="431.5"/>
      <point x="410" y="431.5" type="curve" smooth="yes"/>
      <point x="522" y="431.5"/>
      <point x="586" y="332"/>
      <point x="586" y="217" type="curve" smooth="yes"/>
      <point x="586" y="95"/>
      <point x="500.053" y="-1"/>
      <point x="369" y="-1" type="curve" smooth="yes"/>
      <point x="359" y="-1"/>
      <point x="348.667" y="-0.333333"/>
      <point x="338" y="1" type="curve"/>
      <point x="338" y="26" type="line"/>
      <point x="346" y="25"/>
      <point x="354" y="24"/>
      <point x="362" y="24" type="curve" smooth="yes"/>
      <point x="469" y="24"/>
      <point x="543" y="100"/>
      <point x="543" y="200" type="curve" smooth="yes"/>
      <point x="543" y="301"/>
      <point x="484" y="371"/>
      <point x="393" y="371" type="curve" smooth="yes"/>
      <point x="316.35" y="371"/>
      <point x="263" y="313"/>
      <point x="247" y="236" type="curve"/>
      <point x="255" y="240"/>
      <point x="263.333" y="241"/>
      <point x="270" y="241" type="curve" smooth="yes"/>
      <point x="318" y="241"/>
      <point x="352" y="202"/>
      <point x="352" y="136" type="curve" smooth="yes"/>
      <point x="352" y="56"/>
      <point x="295" y="-2"/>
      <point x="208" y="-2" type="curve" smooth="yes"/>
      <point x="97" y="-2"/>
      <point x="34" y="96"/>
    </contour>
  </outline>
</glyph>
<glyph name="si_Tta" format="1">
  <advance width="603"/>
  <unicode hex="0DA7"/>
  <outline>
    <contour>
      <point x="31.596" y="207.869" type="curve" smooth="yes"/>
      <point x="31.596" y="322.618"/>
      <point x="126.17" y="391.379"/>
      <point x="232" y="391.379" type="curve" smooth="yes"/>
      <point x="259" y="391.379"/>
      <point x="291.655" y="386.086"/>
      <point x="321" y="375" type="curve"/>
      <point x="321" y="346" type="line"/>
      <point x="293.887" y="358.911"/>
      <point x="266" y="365.352"/>
      <point x="234" y="365.352" type="curve" smooth="yes"/>
      <point x="148.492" y="365.352"/>
      <point x="65.9041" y="314.123"/>
      <point x="65.9041" y="217.757" type="curve" smooth="yes"/>
      <point x="65.9041" y="115.897"/>
      <point x="175.908" y="70.7525"/>
      <point x="276.18" y="70.7525" type="curve" smooth="yes"/>
      <point x="418.412" y="70.7525"/>
      <point x="523.085" y="148.526"/>
      <point x="523.085" y="295.66" type="curve" smooth="yes"/>
      <point x="523.085" y="431.78"/>
      <point x="415.577" y="553.085"/>
      <point x="275.44" y="553.085" type="curve" smooth="yes"/>
      <point x="194.708" y="553.085"/>
      <point x="132.782" y="525.005"/>
      <point x="90" y="470" type="curve"/>
      <point x="57" y="470" type="line"/>
      <point x="103.928" y="539.372"/>
      <point x="176.65" y="577.08"/>
      <point x="273.087" y="577.08" type="curve" smooth="yes"/>
      <point x="446.243" y="577.08"/>
      <point x="557.007" y="433.237"/>
      <point x="557.007" y="271.183" type="curve" smooth="yes"/>
      <point x="557.007" y="115.251"/>
      <point x="447.244" y="-1.15399"/>
      <point x="285.242" y="-1.15399" type="curve" smooth="yes"/>
      <point x="132.918" y="-1.15399"/>
      <point x="31.596" y="80.6392"/>
    </contour>
  </outline>
</glyph>
<glyph name="si_Nndda" format="1">
  <advance width="731"/>
  <unicode hex="0DAC"/>
  <outline>
    <contour>
      <point x="102" y="288" type="line"/>
      <point x="102" y="315" type="line"/>
      <point x="348" y="315" type="line"/>
      <point x="345.164" y="357.533"/>
      <point x="315" y="391.268"/>
      <point x="285" y="391.268" type="curve" smooth="yes"/>
      <point x="267.364" y="391.268"/>
      <point x="252.118" y="387.386"/>
      <point x="238" y="363" type="curve" smooth="yes"/>
      <point x="227" y="344"/>
      <point x="213.646" y="339.264"/>
      <point x="200" y="339.264" type="curve" smooth="yes"/>
      <point x="180" y="339.264"/>
      <point x="163.211" y="353"/>
      <point x="163.211" y="374.122" type="curve" smooth="yes"/>
      <point x="163.211" y="414"/>
      <point x="210.101" y="432.167"/>
      <point x="252.279" y="432.167" type="curve" smooth="yes"/>
      <point x="336.407" y="432.167"/>
      <point x="380.627" y="373.979"/>
      <point x="382" y="288" type="curve"/>
      <point x="307" y="288" type="line" smooth="yes"/>
      <point x="213.957" y="288"/>
      <point x="170.392" y="230"/>
      <point x="170.392" y="174" type="curve" smooth="yes"/>
      <point x="170.392" y="121.642"/>
      <point x="210.262" y="71"/>
      <point x="285" y="71" type="curve" smooth="yes"/>
      <point x="334.046" y="71"/>
      <point x="386" y="95.165"/>
      <point x="386" y="143" type="curve" smooth="yes"/>
      <point x="386" y="178" type="line"/>
      <point x="413" y="178" type="line"/>
      <point x="413" y="143" type="line" smooth="yes"/>
      <point x="413" y="97.0859"/>
      <point x="460.775" y="71"/>
      <point x="511" y="71" type="curve" smooth="yes"/>
      <point x="607.489" y="71"/>
      <point x="649.144" y="167.485"/>
      <point x="649.144" y="273.218" type="curve" smooth="yes"/>
      <point x="649.144" y="428"/>
      <point x="543" y="556.09"/>
      <point x="385.465" y="556.09" type="curve" smooth="yes"/>
      <point x="304.966" y="556.09"/>
      <point x="240.203" y="524.902"/>
      <point x="193" y="468" type="curve"/>
      <point x="160" y="468" type="line"/>
      <point x="214.258" y="545.934"/>
      <point x="296.737" y="582.021"/>
      <point x="391.119" y="582.021" type="curve" smooth="yes"/>
      <point x="565.636" y="582.021"/>
      <point x="684.987" y="444"/>
      <point x="684.987" y="258.222" type="curve" smooth="yes"/>
      <point x="684.987" y="126.286"/>
      <point x="634.008" y="-0.0253906"/>
      <point x="514.655" y="-0.0253906" type="curve" smooth="yes"/>
      <point x="450.027" y="-0.0253906"/>
      <point x="421.631" y="28.5205"/>
      <point x="400" y="59" type="curve"/>
      <point x="370.406" y="21.6865"/>
      <point x="337" y="0"/>
      <point x="286" y="0" type="curve" smooth="yes"/>
      <point x="184.983" y="0"/>
      <point x="132.881" y="81.1904"/>
      <point x="132.881" y="162" type="curve" smooth="yes"/>
      <point x="132.881" y="212"/>
      <point x="158.049" y="264.198"/>
      <point x="212" y="288" type="curve"/>
    </contour>
    <contour>
      <point x="27" y="221" type="curve" smooth="yes"/>
      <point x="27" y="352.7"/>
      <point x="99.7562" y="433"/>
      <point x="239" y="433" type="curve" smooth="yes"/>
      <point x="248" y="433"/>
      <point x="271" y="433"/>
      <point x="293" y="427" type="curve"/>
      <point x="272" y="416"/>
      <point x="194" y="406"/>
      <point x="177" y="400" type="curve"/>
      <point x="102" y="382"/>
      <point x="56" y="319.268"/>
      <point x="56" y="218" type="curve" smooth="yes"/>
      <point x="56" y="137.333"/>
      <point x="83" y="75.333"/>
      <point x="135" y="30" type="curve"/>
      <point x="135" y="0" type="line"/>
      <point x="68.5828" y="33.2086"/>
      <point x="27" y="120.07"/>
    </contour>
  </outline>
</glyph>
<glyph name="uni0DB3" format="1">
  <advance width="526"/>
  <unicode hex="0DB3"/>
  <outline>
    <contour>
      <point x="115" y="169" type="curve" smooth="yes"/>
      <point x="115" y="274"/>
      <point x="188" y="317"/>
      <point x="307" y="317" type="curve" smooth="yes"/>
      <point x="427" y="317" type="line"/>
      <point x="415.636" y="362.016"/>
      <point x="372.422" y="394"/>
      <point x="330" y="394" type="curve" smooth="yes"/>
      <point x="311" y="394"/>
      <point x="295.049" y="382.717"/>
      <point x="286.5" y="366" type="curve" smooth="yes"/>
      <point x="276" y="344"/>
      <point x="259.802" y="336"/>
      <point x="245" y="336" type="curve" smooth="yes"/>
      <point x="220" y="336"/>
      <point x="207" y="351"/>
      <point x="207" y="372" type="curve" smooth="yes"/>
      <point x="207" y="409.688"/>
      <point x="244.474" y="432"/>
      <point x="296" y="432" type="curve" smooth="yes"/>
      <point x="378.883" y="432"/>
      <point x="444.442" y="388.319"/>
      <point x="463" y="294" type="curve"/>
      <point x="326" y="294" type="line" smooth="yes"/>
      <point x="238" y="294"/>
      <point x="192" y="257"/>
      <point x="192" y="173" type="curve" smooth="yes"/>
      <point x="192" y="89"/>
      <point x="262" y="27"/>
      <point x="345" y="27" type="curve" smooth="yes"/>
      <point x="391.077" y="27"/>
      <point x="428" y="46"/>
      <point x="468" y="92" type="curve"/>
      <point x="491" y="75" type="line"/>
      <point x="460.46" y="39.3701"/>
      <point x="390" y="-28"/>
      <point x="390" y="-104" type="curve" smooth="yes"/>
      <point x="390" y="-170.099"/>
      <point x="429.218" y="-195.117"/>
      <point x="493" y="-210" type="curve"/>
      <point x="493" y="-238" type="line"/>
      <point x="479" y="-240.667"/>
      <point x="461" y="-242"/>
      <point x="439" y="-242" type="curve" smooth="yes"/>
      <point x="368.434" y="-240.04"/>
      <point x="333" y="-199.019"/>
      <point x="333" y="-142" type="curve" smooth="yes"/>
      <point x="333" y="-103.333"/>
      <point x="356.333" y="-52.667"/>
      <point x="403" y="10" type="curve"/>
      <point x="368" y="0"/>
      <point x="345.333" y="-1"/>
      <point x="318" y="-1" type="curve" smooth="yes"/>
      <point x="187" y="-1"/>
      <point x="115" y="69"/>
    </contour>
    <contour>
      <point x="27" y="221" type="curve" smooth="yes"/>
      <point x="27" y="352.7"/>
      <point x="98" y="435"/>
      <point x="255" y="435" type="curve" smooth="yes"/>
      <point x="260" y="435"/>
      <point x="301" y="434"/>
      <point x="329" y="428.5" type="curve"/>
      <point x="313.325" y="418.377"/>
      <point x="265.656" y="410.732"/>
      <point x="225" y="405.248" type="curve"/>
      <point x="119.089" y="397.473"/>
      <point x="56" y="342.137"/>
      <point x="56" y="218" type="curve" smooth="yes"/>
      <point x="56" y="137.333"/>
      <point x="83" y="75.333"/>
      <point x="135" y="30" type="curve"/>
      <point x="135" y="0" type="line"/>
      <point x="68.5828" y="33.2086"/>
      <point x="27" y="120.07"/>
    </contour>
  </outline>
</glyph>
<glyph name="si_Pha" format="1">
  <advance width="579"/>
  <unicode hex="0DB5"/>
  <outline>
    <contour>
      <point x="33" y="165" type="curve" smooth="yes"/>
      <point x="33" y="268.953"/>
      <point x="116" y="309"/>
      <point x="229" y="309" type="curve" smooth="yes"/>
      <point x="249" y="309" type="line"/>
      <point x="249.082" y="311.041"/>
      <point x="249.086" y="313.041"/>
      <point x="249.086" y="315" type="curve" smooth="yes"/>
      <point x="249.086" y="358"/>
      <point x="219" y="395"/>
      <point x="182" y="395" type="curve" smooth="yes"/>
      <point x="143" y="395"/>
      <point x="132" y="371"/>
      <point x="126.5" y="355" type="curve" smooth="yes"/>
      <point x="119.951" y="335.948"/>
      <point x="109.871" y="323"/>
      <point x="88" y="323" type="curve" smooth="yes"/>
      <point x="72" y="323"/>
      <point x="52" y="333.368"/>
      <point x="52" y="359" type="curve" smooth="yes"/>
      <point x="52" y="406"/>
      <point x="102" y="431.5"/>
      <point x="157" y="431.5" type="curve" smooth="yes"/>
      <point x="245" y="431.5"/>
      <point x="281.146" y="364"/>
      <point x="281.146" y="297" type="curve" smooth="yes"/>
      <point x="281.146" y="293.722"/>
      <point x="281.101" y="287.388"/>
      <point x="281" y="284" type="curve"/>
      <point x="221" y="284" type="line" smooth="yes"/>
      <point x="128" y="284"/>
      <point x="70" y="245.664"/>
      <point x="70" y="180" type="curve" smooth="yes"/>
      <point x="70" y="94"/>
      <point x="177" y="71"/>
      <point x="267" y="71" type="curve" smooth="yes"/>
      <point x="420" y="71"/>
      <point x="501" y="148"/>
      <point x="501" y="267" type="curve" smooth="yes"/>
      <point x="501" y="323.667"/>
      <point x="484" y="376"/>
      <point x="459" y="412" type="curve"/>
      <point x="444.333" y="379.333"/>
      <point x="414" y="359"/>
      <point x="371" y="359" type="curve" smooth="yes"/>
      <point x="307.845" y="359"/>
      <point x="271" y="414"/>
      <point x="271" y="480" type="curve" smooth="yes"/>
      <point x="271" y="530"/>
      <point x="286" y="566"/>
      <point x="313" y="597" type="curve"/>
      <point x="374" y="564"/>
      <point x="444.965" y="492.242"/>
      <point x="481" y="430" type="curve" smooth="yes"/>
      <point x="519.783" y="363.012"/>
      <point x="533" y="315"/>
      <point x="533" y="245" type="curve" smooth="yes"/>
      <point x="533" y="117"/>
      <point x="447" y="0"/>
      <point x="264" y="0" type="curve" smooth="yes"/>
      <point x="143" y="0"/>
      <point x="33" y="46"/>
    </contour>
    <contour>
      <point x="301" y="484" type="curve" smooth="yes"/>
      <point x="301" y="434.667"/>
      <point x="321" y="395"/>
      <point x="378" y="395" type="curve" smooth="yes"/>
      <point x="402" y="395"/>
      <point x="429.764" y="406.141"/>
      <point x="440" y="440" type="curve"/>
      <point x="410" y="486"/>
      <point x="360" y="532"/>
      <point x="322" y="560" type="curve"/>
      <point x="310" y="542"/>
      <point x="301" y="518.667"/>
    </contour>
  </outline>
</glyph>
<glyph name="uni0DBD" format="1">
  <advance width="670"/>
  <unicode hex="0DBD"/>
  <outline>
    <contour>
      <point x="31" y="135" type="curve" smooth="yes"/>
      <point x="31" y="322.923"/>
      <point x="169.392" y="432"/>
      <point x="364" y="432" type="curve" smooth="yes"/>
      <point x="487.66" y="432"/>
      <point x="611" y="392.853"/>
      <point x="611" y="280" type="curve" smooth="yes"/>
      <point x="611" y="210.441"/>
      <point x="553" y="171"/>
      <point x="485" y="171" type="curve" smooth="yes"/>
      <point x="417" y="171"/>
      <point x="368" y="212"/>
      <point x="368" y="282" type="curve"/>
      <point x="265" y="282" type="line"/>
      <point x="265" y="308" type="line"/>
      <point x="518" y="308" type="line"/>
      <point x="518" y="282" type="line"/>
      <point x="396" y="282" type="line"/>
      <point x="395.839" y="280.659"/>
      <point x="395.747" y="279.325"/>
      <point x="395.747" y="278" type="curve" smooth="yes"/>
      <point x="395.747" y="242"/>
      <point x="438" y="216"/>
      <point x="486" y="216" type="curve" smooth="yes"/>
      <point x="541" y="216"/>
      <point x="575" y="245"/>
      <point x="575" y="294" type="curve" smooth="yes"/>
      <point x="575" y="373"/>
      <point x="489" y="404"/>
      <point x="370" y="404" type="curve" smooth="yes"/>
      <point x="220" y="404"/>
      <point x="107" y="299.163"/>
      <point x="107" y="161" type="curve" smooth="yes"/>
      <point x="107" y="-6"/>
      <point x="220" y="-111"/>
      <point x="381" y="-111" type="curve" smooth="yes"/>
      <point x="488" y="-111"/>
      <point x="594" y="-50"/>
      <point x="594" y="66" type="curve" smooth="yes"/>
      <point x="594" y="72"/>
      <point x="592" y="80"/>
      <point x="590" y="84" type="curve"/>
      <point x="624" y="84" type="line"/>
      <point x="624.249" y="79.2741"/>
      <point x="624.335" y="74.6071"/>
      <point x="624.335" y="70" type="curve" smooth="yes"/>
      <point x="624.335" y="-72"/>
      <point x="499.653" y="-154"/>
      <point x="361" y="-154" type="curve" smooth="yes"/>
      <point x="180" y="-154"/>
      <point x="31" y="-58"/>
    </contour>
  </outline>
</glyph>
<glyph name="si_Lla" format="1">
  <advance width="636"/>
  <unicode hex="0DC5"/>
  <outline>
    <contour>
      <point x="31" y="114" type="curve" smooth="yes"/>
      <point x="31" y="191.989"/>
      <point x="80" y="297"/>
      <point x="179" y="297" type="curve" smooth="yes"/>
      <point x="542" y="297" type="line"/>
      <point x="542" y="352"/>
      <point x="510" y="403"/>
      <point x="444" y="403" type="curve" smooth="yes"/>
      <point x="398" y="403"/>
      <point x="364" y="366"/>
      <point x="364" y="330" type="curve"/>
      <point x="333" y="330" type="line"/>
      <point x="333" y="366"/>
      <point x="302" y="404"/>
      <point x="259" y="404" type="curve" smooth="yes"/>
      <point x="203" y="404"/>
      <point x="157" y="362"/>
      <point x="157" y="276" type="curve" smooth="yes"/>
      <point x="157" y="164"/>
      <point x="242.827" y="104"/>
      <point x="334" y="104" type="curve" smooth="yes"/>
      <point x="416" y="104"/>
      <point x="471" y="129.333"/>
      <point x="497" y="170" type="curve"/>
      <point x="526" y="170" type="line"/>
      <point x="502" y="91"/>
      <point x="437" y="43"/>
      <point x="334" y="43" type="curve" smooth="yes"/>
      <point x="217.772" y="43"/>
      <point x="126" y="138"/>
      <point x="126" y="274" type="curve" smooth="yes"/>
      <point x="126" y="373"/>
      <point x="187.046" y="432"/>
      <point x="260" y="432" type="curve" smooth="yes"/>
      <point x="296" y="432"/>
      <point x="333" y="415"/>
      <point x="349" y="377" type="curve"/>
      <point x="367" y="415"/>
      <point x="409" y="432"/>
      <point x="445" y="432" type="curve" smooth="yes"/>
      <point x="532" y="432"/>
      <point x="576" y="362"/>
      <point x="576" y="271" type="curve"/>
      <point x="192" y="271" type="line" smooth="yes"/>
      <point x="150" y="271"/>
      <point x="96" y="234.04"/>
      <point x="96" y="142" type="curve" smooth="yes"/>
      <point x="96" y="-11.8142"/>
      <point x="224" y="-108"/>
      <point x="373" y="-108" type="curve" smooth="yes"/>
      <point x="486" y="-108"/>
      <point x="588.08" y="-29.6738"/>
      <point x="591" y="74" type="curve"/>
      <point x="618" y="74" type="line"/>
      <point x="618" y="-68"/>
      <point x="472" y="-153"/>
      <point x="343" y="-153" type="curve" smooth="yes"/>
      <point x="168" y="-153"/>
      <point x="31" y="-57"/>
    </contour>
  </outline>
</glyph>
<glyph name="si_Halant" format="1">
  <advance width="2"/>
  <unicode hex="0DCA"/>
  <outline>
    <contour>
      <point x="-140" y="348" type="line"/>
      <point x="-140" y="681" type="line"/>
      <point x="-86" y="639"/>
      <point x="10" y="634"/>
      <point x="10" y="542" type="curve" smooth="yes"/>
      <point x="10" y="498"/>
      <point x="-24.8084" y="468"/>
      <point x="-68" y="468" type="curve" smooth="yes"/>
      <point x="-82.6667" y="468"/>
      <point x="-97.6667" y="471.333"/>
      <point x="-113" y="478" type="curve"/>
      <point x="-113" y="331" type="line"/>
    </contour>
    <contour>
      <point x="-113" y="503" type="line"/>
      <point x="-104.333" y="498.333"/>
      <point x="-93.3333" y="496"/>
      <point x="-80" y="496" type="curve" smooth="yes"/>
      <point x="-42" y="496"/>
      <point x="-27" y="521"/>
      <point x="-27" y="545" type="curve" smooth="yes"/>
      <point x="-27" y="587"/>
      <point x="-66" y="607"/>
      <point x="-113" y="638" type="curve"/>
    </contour>
  </outline>
</glyph>
<glyph name="si_MatraAe" format="1">
  <advance width="334"/>
  <unicode hex="0DD0"/>
  <outline>
    <contour>
      <point x="3" y="313" type="line"/>
      <point x="3" y="339" type="line"/>
      <point x="249" y="339" type="line"/>
      <point x="248.333" y="337"/>
      <point x="247.333" y="331.667"/>
      <point x="246" y="323" type="curve"/>
      <point x="178" y="223"/>
      <point x="153" y="129"/>
      <point x="153" y="50" type="curve" smooth="yes"/>
      <point x="153" y="-54"/>
      <point x="206" y="-93"/>
      <point x="264" y="-93" type="curve" smooth="yes"/>
      <point x="276.667" y="-93"/>
      <point x="289.333" y="-91.3333"/>
      <point x="302" y="-88" type="curve"/>
      <point x="306" y="-106" type="line"/>
      <point x="278.667" y="-136.667"/>
      <point x="248" y="-147"/>
      <point x="207" y="-147" type="curve" smooth="yes"/>
      <point x="122" y="-147"/>
      <point x="84" y="-73"/>
      <point x="84" y="14" type="curve" smooth="yes"/>
      <point x="84" y="133"/>
      <point x="158" y="254"/>
      <point x="211" y="313" type="curve"/>
    </contour>
  </outline>
</glyph>
<glyph name="si_MatraAae" format="1">
  <advance width="336"/>
  <unicode hex="0DD1"/>
  <outline>
    <contour>
      <point x="4" y="315" type="line"/>
      <point x="4" y="339" type="line"/>
      <point x="249" y="339" type="line"/>
      <point x="249" y="317" type="line"/>
      <point x="122" y="223" type="line"/>
      <point x="272" y="223" type="line"/>
      <point x="272" y="201" type="line"/>
      <point x="226" y="168"/>
      <point x="159" y="96"/>
      <point x="159" y="13" type="curve" smooth="yes"/>
      <point x="159" y="-74"/>
      <point x="217.189" y="-106"/>
      <point x="306" y="-106" type="curve"/>
      <point x="306" y="-131" type="line"/>
      <point x="280.667" y="-142.333"/>
      <point x="254.333" y="-148"/>
      <point x="229" y="-148" type="curve" smooth="yes"/>
      <point x="138.408" y="-148"/>
      <point x="90" y="-91.2397"/>
      <point x="90" y="-12" type="curve" smooth="yes"/>
      <point x="90" y="78"/>
      <point x="169.63" y="155.42"/>
      <point x="235" y="199" type="curve"/>
      <point x="72" y="199" type="line"/>
      <point x="72" y="218" type="line"/>
      <point x="205" y="315" type="line"/>
    </contour>
  </outline>
</glyph>
<glyph name="uni0DD2" format="1">
  <advance width="2"/>
  <unicode hex="0DD2"/>
  <outline>
    <contour>
      <point x="-545" y="518" type="curve" smooth="yes"/>
      <point x="-545" y="626.291"/>
      <point x="-432.379" y="671"/>
      <point x="-313" y="671" type="curve" smooth="yes"/>
      <point x="-193.621" y="671"/>
      <point x="-81" y="626.291"/>
      <point x="-81" y="518" type="curve" smooth="yes"/>
      <point x="-81" y="443.457"/>
      <point x="-147.143" y="408.074"/>
      <point x="-224" y="405" type="curve"/>
      <point x="-224" y="426" type="line"/>
      <point x="-170.324" y="428.825"/>
      <point x="-115" y="454"/>
      <point x="-115" y="509" type="curve" smooth="yes"/>
      <point x="-115" y="580.089"/>
      <point x="-224.092" y="598"/>
      <point x="-313" y="598" type="curve" smooth="yes"/>
      <point x="-401.908" y="598"/>
      <point x="-511" y="580.089"/>
      <point x="-511" y="509" type="curve" smooth="yes"/>
      <point x="-511" y="454"/>
      <point x="-455.676" y="428.825"/>
      <point x="-402" y="426" type="curve"/>
      <point x="-402" y="405" type="line"/>
      <point x="-478.857" y="408.074"/>
      <point x="-545" y="443.457"/>
    </contour>
  </outline>
</glyph>
<glyph name="si_MatraIi" format="1">
  <advance width="2"/>
  <unicode hex="0DD3"/>
  <outline>
    <contour>
      <point x="-250" y="514" type="curve" smooth="yes"/>
      <point x="-250" y="483"/>
      <point x="-220" y="458"/>
      <point x="-184" y="458" type="curve" smooth="yes"/>
      <point x="-148" y="458"/>
      <point x="-118" y="483"/>
      <point x="-118" y="514" type="curve" smooth="yes"/>
      <point x="-118" y="545"/>
      <point x="-148" y="570"/>
      <point x="-184" y="570" type="curve" smooth="yes"/>
      <point x="-220" y="570"/>
      <point x="-250" y="545"/>
    </contour>
    <contour>
      <point x="-587" y="517" type="curve" smooth="yes"/>
      <point x="-587" y="624.211"/>
      <point x="-463.054" y="671"/>
      <point x="-336" y="671" type="curve" smooth="yes"/>
      <point x="-219.286" y="671"/>
      <point x="-83" y="627.399"/>
      <point x="-83" y="524" type="curve" smooth="yes"/>
      <point x="-83" y="468.768"/>
      <point x="-127.723" y="429"/>
      <point x="-184" y="429" type="curve" smooth="yes"/>
      <point x="-242" y="429"/>
      <point x="-282" y="470"/>
      <point x="-282" y="515" type="curve" smooth="yes"/>
      <point x="-282" y="560"/>
      <point x="-250" y="582"/>
      <point x="-231" y="591" type="curve"/>
      <point x="-242" y="594"/>
      <point x="-281" y="600"/>
      <point x="-335" y="600" type="curve" smooth="yes"/>
      <point x="-429.164" y="600"/>
      <point x="-550" y="578"/>
      <point x="-550" y="499" type="curve" smooth="yes"/>
      <point x="-550" y="460.333"/>
      <point x="-528" y="435"/>
      <point x="-490" y="426" type="curve"/>
      <point x="-497" y="406" type="line"/>
      <point x="-550.246" y="410.733"/>
      <point x="-587" y="456"/>
    </contour>
  </outline>
</glyph>
<glyph name="si_MatraR" format="1">
  <advance width="313"/>
  <unicode hex="0DD8"/>
  <outline>
    <contour>
      <point x="32.8818" y="249" type="curve" smooth="yes"/>
      <point x="32.8818" y="329"/>
      <point x="69.0088" y="393"/>
      <point x="143" y="393" type="curve" smooth="yes"/>
      <point x="229.896" y="393"/>
      <point x="264" y="298"/>
      <point x="264" y="203" type="curve" smooth="yes"/>
      <point x="264" y="144"/>
      <point x="247" y="52.4365"/>
      <point x="247" y="23" type="curve" smooth="yes"/>
      <point x="247" y="15.667"/>
      <point x="247.333" y="9"/>
      <point x="248" y="3" type="curve"/>
      <point x="218" y="3" type="line"/>
      <point x="215.333" y="12.333"/>
      <point x="210.333" y="17"/>
      <point x="203" y="17" type="curve" smooth="yes"/>
      <point x="190.847" y="17"/>
      <point x="165" y="-1"/>
      <point x="131" y="-1" type="curve" smooth="yes"/>
      <point x="72" y="-1"/>
      <point x="33" y="49.2598"/>
      <point x="33" y="106" type="curve" smooth="yes"/>
      <point x="33" y="153.333"/>
      <point x="55" y="186.333"/>
      <point x="99" y="205" type="curve" smooth="yes"/>
      <point x="125" y="216.333"/>
      <point x="166" y="222"/>
      <point x="203" y="222" type="curve"/>
      <point x="203" y="312"/>
      <point x="176" y="358"/>
      <point x="133" y="358" type="curve" smooth="yes"/>
      <point x="81.2852" y="358"/>
      <point x="57.9531" y="308"/>
      <point x="57.9531" y="246" type="curve" smooth="yes"/>
      <point x="57.9531" y="244.333"/>
      <point x="57.9639" y="243.666"/>
      <point x="58" y="242" type="curve"/>
      <point x="33" y="242" type="line"/>
      <point x="32.918" y="244.678"/>
      <point x="32.8818" y="246.345"/>
    </contour>
    <contour>
      <point x="63" y="107" type="curve" smooth="yes"/>
      <point x="63" y="64.6504"/>
      <point x="91.8193" y="28"/>
      <point x="133" y="28" type="curve" smooth="yes"/>
      <point x="159" y="28"/>
      <point x="186.26" y="43"/>
      <point x="196" y="43" type="curve" smooth="yes"/>
      <point x="199.333" y="43"/>
      <point x="202.333" y="42"/>
      <point x="205" y="40" type="curve"/>
      <point x="203" y="53.333"/>
      <point x="202" y="78.833"/>
      <point x="202" y="116.5" type="curve" smooth="yes"/>
      <point x="202" y="147.879"/>
      <point x="203.157" y="168"/>
      <point x="203.157" y="186" type="curve" smooth="yes"/>
      <point x="203.157" y="188.996"/>
      <point x="203.111" y="192.663"/>
      <point x="203" y="195" type="curve"/>
      <point x="188" y="195"/>
      <point x="152" y="194"/>
      <point x="123" y="185" type="curve" smooth="yes"/>
      <point x="87.3154" y="173.926"/>
      <point x="63" y="150.545"/>
    </contour>
  </outline>
</glyph>
<glyph name="uni0DD9" format="1">
  <advance width="633"/>
  <unicode hex="0DD9"/>
  <outline>
    <contour>
      <point x="236" y="245" type="curve" smooth="yes"/>
      <point x="236" y="219.497"/>
      <point x="261" y="198.075"/>
      <point x="291" y="198.075" type="curve" smooth="yes"/>
      <point x="321" y="198.075"/>
      <point x="346" y="219.497"/>
      <point x="346" y="245" type="curve" smooth="yes"/>
      <point x="346" y="270.503"/>
      <point x="321" y="291.925"/>
      <point x="291" y="291.925" type="curve" smooth="yes"/>
      <point x="261" y="291.925"/>
      <point x="236" y="270.503"/>
    </contour>
    <contour>
      <point x="33" y="212" type="curve" smooth="yes"/>
      <point x="33" y="346.857"/>
      <point x="160.549" y="432"/>
      <point x="301" y="432" type="curve" smooth="yes"/>
      <point x="448.707" y="432"/>
      <point x="571.822" y="339.956"/>
      <point x="584" y="206" type="curve"/>
      <point x="555" y="206" type="line"/>
      <point x="537" y="324"/>
      <point x="430" y="404"/>
      <point x="301" y="404" type="curve" smooth="yes"/>
      <point x="187.176" y="404"/>
      <point x="76" y="340"/>
      <point x="76" y="238" type="curve" smooth="yes"/>
      <point x="76" y="142"/>
      <point x="163.286" y="71"/>
      <point x="269" y="71" type="curve" smooth="yes"/>
      <point x="358" y="71"/>
      <point x="455" y="104.917"/>
      <point x="455" y="189" type="curve" smooth="yes"/>
      <point x="455" y="243.911"/>
      <point x="408.952" y="277.676"/>
      <point x="360" y="287" type="curve"/>
      <point x="372.667" y="273"/>
      <point x="379" y="256"/>
      <point x="379" y="240" type="curve" smooth="yes"/>
      <point x="379" y="192"/>
      <point x="335" y="166"/>
      <point x="292" y="166" type="curve" smooth="yes"/>
      <point x="246" y="166"/>
      <point x="203" y="198"/>
      <point x="203" y="242" type="curve" smooth="yes"/>
      <point x="203" y="289.588"/>
      <point x="248" y="322"/>
      <point x="304" y="322" type="curve" smooth="yes"/>
      <point x="406" y="322"/>
      <point x="491" y="268"/>
      <point x="491" y="168" type="curve" smooth="yes"/>
      <point x="491" y="68"/>
      <point x="412" y="0"/>
      <point x="269" y="0" type="curve" smooth="yes"/>
      <point x="134" y="0"/>
      <point x="33" y="83.6285"/>
    </contour>
  </outline>
</glyph>
<glyph name="si_MatraRr" format="1">
  <advance width="571"/>
  <unicode hex="0DF2"/>
  <outline>
    <contour>
      <point x="291.882" y="249" type="curve" smooth="yes"/>
      <point x="291.882" y="329"/>
      <point x="328.009" y="393"/>
      <point x="402" y="393" type="curve" smooth="yes"/>
      <point x="488.896" y="393"/>
      <point x="523" y="298"/>
      <point x="523" y="203" type="curve" smooth="yes"/>
      <point x="523" y="144"/>
      <point x="506" y="52.4365"/>
      <point x="506" y="23" type="curve" smooth="yes"/>
      <point x="506" y="15.667"/>
      <point x="506.333" y="9"/>
      <point x="507" y="3" type="curve"/>
      <point x="477" y="3" type="line"/>
      <point x="474.333" y="12.333"/>
      <point x="469.333" y="17"/>
      <point x="462" y="17" type="curve" smooth="yes"/>
      <point x="449.847" y="17"/>
      <point x="424" y="-1"/>
      <point x="390" y="-1" type="curve" smooth="yes"/>
      <point x="331" y="-1"/>
      <point x="292" y="49.2598"/>
      <point x="292" y="106" type="curve" smooth="yes"/>
      <point x="292" y="153.333"/>
      <point x="314" y="186.333"/>
      <point x="358" y="205" type="curve" smooth="yes"/>
      <point x="384" y="216.333"/>
      <point x="425" y="222"/>
      <point x="462" y="222" type="curve"/>
      <point x="462" y="312"/>
      <point x="435" y="358"/>
      <point x="392" y="358" type="curve" smooth="yes"/>
      <point x="340.285" y="358"/>
      <point x="316.953" y="308"/>
      <point x="316.953" y="246" type="curve" smooth="yes"/>
      <point x="316.953" y="244.333"/>
      <point x="316.964" y="243.666"/>
      <point x="317" y="242" type="curve"/>
      <point x="292" y="242" type="line"/>
      <point x="291.918" y="244.678"/>
      <point x="291.882" y="246.345"/>
    </contour>
    <contour>
      <point x="322" y="107" type="curve" smooth="yes"/>
      <point x="322" y="64.6504"/>
      <point x="350.819" y="28"/>
      <point x="392" y="28" type="curve" smooth="yes"/>
      <point x="418" y="28"/>
      <point x="445.26" y="43"/>
      <point x="455" y="43" type="curve" smooth="yes"/>
      <point x="458.333" y="43"/>
      <point x="461.333" y="42"/>
      <point x="464" y="40" type="curve"/>
      <point x="462" y="53.333"/>
      <point x="461" y="78.833"/>
      <point x="461" y="116.5" type="curve" smooth="yes"/>
      <point x="461" y="147.879"/>
      <point x="462.157" y="168"/>
      <point x="462.157" y="186" type="curve" smooth="yes"/>
      <point x="462.157" y="188.996"/>
      <point x="462.111" y="192.663"/>
      <point x="462" y="195" type="curve"/>
      <point x="447" y="195"/>
      <point x="411" y="194"/>
      <point x="382" y="185" type="curve" smooth="yes"/>
      <point x="346.315" y="173.926"/>
      <point x="322" y="150.545"/>
    </contour>
    <contour>
      <point x="32.8818" y="249" type="curve" smooth="yes"/>
      <point x="32.8818" y="329"/>
      <point x="69.0088" y="393"/>
      <point x="143" y="393" type="curve" smooth="yes"/>
      <point x="229.896" y="393"/>
      <point x="264" y="298"/>
      <point x="264" y="203" type="curve" smooth="yes"/>
      <point x="264" y="144"/>
      <point x="247" y="52.4365"/>
      <point x="247" y="23" type="curve" smooth="yes"/>
      <point x="247" y="15.667"/>
      <point x="247.333" y="9"/>
      <point x="248" y="3" type="curve"/>
      <point x="218" y="3" type="line"/>
      <point x="215.333" y="12.333"/>
      <point x="210.333" y="17"/>
      <point x="203" y="17" type="curve" smooth="yes"/>
      <point x="190.847" y="17"/>
      <point x="165" y="-1"/>
      <point x="131" y="-1" type="curve" smooth="yes"/>
      <point x="72" y="-1"/>
      <point x="33" y="49.2598"/>
      <point x="33" y="106" type="curve" smooth="yes"/>
      <point x="33" y="153.333"/>
      <point x="55" y="186.333"/>
      <point x="99" y="205" type="curve" smooth="yes"/>
      <point x="125" y="216.333"/>
      <point x="166" y="222"/>
      <point x="203" y="222" type="curve"/>
      <point x="203" y="312"/>
      <point x="176" y="358"/>
      <point x="133" y="358" type="curve" smooth="yes"/>
      <point x="81.2852" y="358"/>
      <point x="57.9531" y="308"/>
      <point x="57.9531" y="246" type="curve" smooth="yes"/>
      <point x="57.9531" y="244.333"/>
      <point x="57.9639" y="243.666"/>
      <point x="58" y="242" type="curve"/>
      <point x="33" y="242" type="line"/>
      <point x="32.918" y="244.678"/>
      <point x="32.8818" y="246.345"/>
    </contour>
    <contour>
      <point x="63" y="107" type="curve" smooth="yes"/>
      <point x="63" y="64.6504"/>
      <point x="91.8193" y="28"/>
      <point x="133" y="28" type="curve" smooth="yes"/>
      <point x="159" y="28"/>
      <point x="186.26" y="43"/>
      <point x="196" y="43" type="curve" smooth="yes"/>
      <point x="199.333" y="43"/>
      <point x="202.333" y="42"/>
      <point x="205" y="40" type="curve"/>
      <point x="203" y="53.333"/>
      <point x="202" y="78.833"/>
      <point x="202" y="116.5" type="curve" smooth="yes"/>
      <point x="202" y="147.879"/>
      <point x="203.157" y="168"/>
      <point x="203.157" y="186" type="curve" smooth="yes"/>
      <point x="203.157" y="188.996"/>
      <point x="203.111" y="192.663"/>
      <point x="203" y="195" type="curve"/>
      <point x="188" y="195"/>
      <point x="152" y="194"/>
      <point x="123" y="185" type="curve" smooth="yes"/>
      <point x="87.3154" y="173.926"/>
      <point x="63" y="150.545"/>
    </contour>
  </outline>
</glyph>
<glyph name="uni0DF3" format="1">
  <advance width="441"/>
  <unicode hex="0DF3"/>
  <outline>
    <contour>
      <point x="33" y="321" type="curve" smooth="yes"/>
      <point x="33" y="369.667"/>
      <point x="49" y="404"/>
      <point x="70" y="428" type="curve"/>
      <point x="105" y="428" type="line"/>
      <point x="83" y="410"/>
      <point x="62" y="374.667"/>
      <point x="62" y="322" type="curve" smooth="yes"/>
      <point x="62" y="276.29"/>
      <point x="88.3799" y="238"/>
      <point x="134" y="238" type="curve" smooth="yes"/>
      <point x="168" y="238"/>
      <point x="186" y="261.458"/>
      <point x="186" y="290" type="curve" smooth="yes"/>
      <point x="186" y="307.333"/>
      <point x="179.333" y="323"/>
      <point x="166" y="337" type="curve"/>
      <point x="165.434" y="342.207"/>
      <point x="165.139" y="344.207"/>
      <point x="165.139" y="349" type="curve" smooth="yes"/>
      <point x="165.139" y="398"/>
      <point x="193.308" y="432"/>
      <point x="259" y="432" type="curve" smooth="yes"/>
      <point x="362" y="432"/>
      <point x="393" y="315.587"/>
      <point x="393" y="220" type="curve" smooth="yes"/>
      <point x="393" y="101"/>
      <point x="350" y="-2"/>
      <point x="245" y="-2" type="curve" smooth="yes"/>
      <point x="171" y="-2"/>
      <point x="134" y="53.9698"/>
      <point x="134" y="120" type="curve" smooth="yes"/>
      <point x="134" y="132"/>
      <point x="135.333" y="144.333"/>
      <point x="138" y="157" type="curve"/>
      <point x="164" y="157" type="line"/>
      <point x="162" y="146.333"/>
      <point x="161" y="135.667"/>
      <point x="161" y="125" type="curve" smooth="yes"/>
      <point x="161" y="71.0176"/>
      <point x="188.383" y="26"/>
      <point x="241" y="26" type="curve" smooth="yes"/>
      <point x="300" y="26"/>
      <point x="323" y="100"/>
      <point x="323" y="238" type="curve" smooth="yes"/>
      <point x="323" y="350.018"/>
      <point x="296" y="407"/>
      <point x="248" y="407" type="curve" smooth="yes"/>
      <point x="214" y="407"/>
      <point x="192.862" y="389"/>
      <point x="192.862" y="350" type="curve" smooth="yes"/>
      <point x="192.862" y="347.719"/>
      <point x="192.864" y="345.385"/>
      <point x="193" y="343" type="curve"/>
      <point x="217" y="330.333"/>
      <point x="229" y="312"/>
      <point x="229" y="288" type="curve" smooth="yes"/>
      <point x="229" y="237.916"/>
      <point x="185.493" y="212"/>
      <point x="135" y="212" type="curve" smooth="yes"/>
      <point x="72" y="212"/>
      <point x="33" y="261.448"/>
    </contour>
  </outline>
</glyph>
<glyph name="uni0DF4" format="1">
  <advance width="1742"/>
  <unicode hex="0DF4"/>
  <outline>
    <contour>
      <point x="1296" y="46" type="curve"/>
      <point x="1322" y="136" type="line"/>
      <point x="1173" y="44" type="line"/>
      <point x="1203" y="180" type="line"/>
      <point x="1047" y="77" type="line"/>
      <point x="1065" y="243" type="line"/>
      <point x="907" y="94" type="line"/>
      <point x="893" y="270" type="line"/>
      <point x="758" y="122" type="line"/>
      <point x="728" y="267" type="line"/>
      <point x="596" y="118" type="line"/>
      <point x="568" y="229" type="line"/>
      <point x="455" y="80" type="line"/>
      <point x="425" y="166" type="line"/>
      <point x="363" y="56" type="line"/>
      <point x="349.667" y="78.667"/>
      <point x="337" y="90"/>
      <point x="325" y="90" type="curve" smooth="yes"/>
      <point x="260.597" y="90"/>
      <point x="212.746" y="-2"/>
      <point x="126" y="-2" type="curve" smooth="yes"/>
      <point x="85.9702" y="-2"/>
      <point x="51" y="24.3662"/>
      <point x="51" y="64.25" type="curve" smooth="yes"/>
      <point x="51" y="100.235"/>
      <point x="74.4688" y="120"/>
      <point x="102.25" y="120" type="curve" smooth="yes"/>
      <point x="130.451" y="120"/>
      <point x="149" y="97.1758"/>
      <point x="149" y="71.25" type="curve" smooth="yes"/>
      <point x="149" y="55.25"/>
      <point x="142.667" y="38"/>
      <point x="130" y="28" type="curve"/>
      <point x="133.304" y="23.5421"/>
      <point x="139.006" y="21.75"/>
      <point x="148" y="21.75" type="curve" smooth="yes"/>
      <point x="198.676" y="21.75"/>
      <point x="278.422" y="126"/>
      <point x="332" y="126" type="curve" smooth="yes"/>
      <point x="341.909" y="126"/>
      <point x="359.667" y="122.667"/>
      <point x="369" y="106" type="curve"/>
      <point x="447" y="244" type="line"/>
      <point x="481" y="146" type="line"/>
      <point x="606" y="313" type="line"/>
      <point x="636" y="192" type="line"/>
      <point x="772" y="349" type="line"/>
      <point x="802" y="200" type="line"/>
      <point x="949" y="368" type="line"/>
      <point x="963" y="178" type="line"/>
      <point x="1135" y="337" type="line"/>
      <point x="1111" y="148" type="line"/>
      <point x="1279" y="256" type="line"/>
      <point x="1245" y="114" type="line"/>
      <point x="1390" y="206" type="line"/>
      <point x="1360.25" y="118.25" type="line"/>
      <point x="1369.31" y="123.187"/>
      <point x="1379.84" y="126"/>
      <point x="1393.25" y="126" type="curve" smooth="yes"/>
      <point x="1446.83" y="126"/>
      <point x="1526.57" y="21.75"/>
      <point x="1577.25" y="21.75" type="curve" smooth="yes"/>
      <point x="1586.24" y="21.75"/>
      <point x="1591.95" y="23.542"/>
      <point x="1595.25" y="28" type="curve"/>
      <point x="1582.58" y="38"/>
      <point x="1576.25" y="55.25"/>
      <point x="1576.25" y="71.25" type="curve" smooth="yes"/>
      <point x="1576.25" y="97.1758"/>
      <point x="1594.8" y="120"/>
      <point x="1623" y="120" type="curve" smooth="yes"/>
      <point x="1650.78" y="120"/>
      <point x="1674.25" y="100.235"/>
      <point x="1674.25" y="64.25" type="curve" smooth="yes"/>
      <point x="1674.25" y="24.3662"/>
      <point x="1639.28" y="-2"/>
      <point x="1599.25" y="-2" type="curve" smooth="yes"/>
      <point x="1512.5" y="-2"/>
      <point x="1464.65" y="90"/>
      <point x="1400.25" y="90" type="curve" smooth="yes"/>
      <point x="1355.13" y="90"/>
      <point x="1309.99" y="59.5793"/>
    </contour>
  </outline>
</glyph>
<glyph name="afii61664" format="1">
  <advance width="0"/>
  <unicode hex="200C"/>
  <outline>
    <contour>
      <point x="-19.5" y="9.25" type="line"/>
      <point x="-19.5" y="760.75" type="line"/>
      <point x="19.5" y="760.75" type="line"/>
      <point x="19.5" y="9.25" type="line"/>
    </contour>
  </outline>
</glyph>
<glyph name="afii301" format="1">
  <advance width="0"/>
  <unicode hex="200D"/>
  <outline>
    <contour>
      <point x="26.7271" y="655.044" type="line"/>
      <point x="151.271" y="532" type="line"/>
      <point x="124.043" y="505.099" type="line"/>
      <point x="19.5" y="609.642" type="line"/>
      <point x="19.5" y="9.5" type="line"/>
      <point x="-19.5" y="9.5" type="line"/>
      <point x="-19.5" y="609.642" type="line"/>
      <point x="-124.043" y="505.099" type="line"/>
      <point x="-151.271" y="532" type="line"/>
      <point x="-26.7271" y="655.044" type="line"/>
      <point x="-151.227" y="776.544" type="line"/>
      <point x="-124.043" y="803.401" type="line"/>
      <point x="-0" y="679.358" type="line"/>
      <point x="124.043" y="803.401" type="line"/>
      <point x="151.227" y="776.544" type="line"/>
    </contour>
  </outline>
</glyph>
<glyph name="si_NdAa.halant" format="1">
  <advance width="657"/>
  <outline>
    <contour>
      <point x="318.25" y="-1" type="curve" smooth="yes"/>
      <point x="187.25" y="-1"/>
      <point x="115.25" y="69"/>
      <point x="115.25" y="169" type="curve" smooth="yes"/>
      <point x="115.25" y="274"/>
      <point x="188.25" y="317"/>
      <point x="307.25" y="317" type="curve" smooth="yes"/>
      <point x="427.25" y="317" type="line"/>
      <point x="417.526" y="363.186"/>
      <point x="388.25" y="396"/>
      <point x="344.25" y="396" type="curve" smooth="yes"/>
      <point x="325.25" y="396"/>
      <point x="309.299" y="383.911"/>
      <point x="300.75" y="366" type="curve" smooth="yes"/>
      <point x="290.25" y="344"/>
      <point x="274.052" y="336"/>
      <point x="259.25" y="336" type="curve" smooth="yes"/>
      <point x="234.25" y="336"/>
      <point x="221.25" y="351"/>
      <point x="221.25" y="372" type="curve" smooth="yes"/>
      <point x="221.25" y="408.283"/>
      <point x="261.25" y="433"/>
      <point x="316.25" y="433" type="curve" smooth="yes"/>
      <point x="401.989" y="433"/>
      <point x="445.154" y="389.003"/>
      <point x="463.25" y="294" type="curve"/>
      <point x="326.25" y="294" type="line" smooth="yes"/>
      <point x="238.25" y="294"/>
      <point x="192.25" y="257"/>
      <point x="192.25" y="173" type="curve" smooth="yes"/>
      <point x="192.25" y="89"/>
      <point x="257.172" y="26.001"/>
      <point x="342.25" y="26" type="curve" smooth="yes"/>
      <point x="392.217" y="26"/>
      <point x="433.75" y="46"/>
      <point x="473.75" y="92" type="curve"/>
      <point x="496.75" y="75" type="line"/>
      <point x="476.75" y="58.333"/>
      <point x="460.367" y="41.1865"/>
      <point x="445" y="32.75" type="curve"/>
      <point x="448.333" y="33.417"/>
      <point x="446.5" y="33.5"/>
      <point x="450.5" y="33.5" type="curve" smooth="yes"/>
      <point x="498.771" y="33.5"/>
      <point x="531.25" y="-17.8018"/>
      <point x="531.25" y="-87" type="curve" smooth="yes"/>
      <point x="531.25" y="-175"/>
      <point x="491.367" y="-212.5"/>
      <point x="432.25" y="-212.5" type="curve" smooth="yes"/>
      <point x="383.095" y="-212.5"/>
      <point x="366.75" y="-187.083"/>
      <point x="366.75" y="-166" type="curve"/>
      <point x="393.75" y="-166" type="line"/>
      <point x="393.773" y="-176.229"/>
      <point x="403.601" y="-186.75"/>
      <point x="422.5" y="-186.75" type="curve" smooth="yes"/>
      <point x="464.283" y="-186.75"/>
      <point x="474.75" y="-148.479"/>
      <point x="474.75" y="-87" type="curve" smooth="yes"/>
      <point x="474.75" y="-42.0967"/>
      <point x="460.369" y="0"/>
      <point x="429.25" y="0" type="curve" smooth="yes"/>
      <point x="400.12" y="0"/>
      <point x="388.568" y="-29.2295"/>
      <point x="388.5" y="-45" type="curve"/>
      <point x="361.5" y="-45" type="line"/>
      <point x="361.547" y="-29.335"/>
      <point x="370.555" y="-6.04102"/>
      <point x="383.25" y="4" type="curve"/>
      <point x="355.25" y="-0.666992"/>
      <point x="338.917" y="-1"/>
    </contour>
    <contour>
      <point x="503.5" y="-53" type="line"/>
      <point x="503.5" y="680" type="line"/>
      <point x="557.5" y="638"/>
      <point x="653.5" y="633"/>
      <point x="653.5" y="541" type="curve" smooth="yes"/>
      <point x="653.5" y="497"/>
      <point x="618.691" y="467"/>
      <point x="575.5" y="467" type="curve" smooth="yes"/>
      <point x="560.833" y="467"/>
      <point x="545.833" y="470.333"/>
      <point x="530.5" y="477" type="curve"/>
      <point x="530.5" y="-101" type="line"/>
    </contour>
    <contour>
      <point x="530.5" y="637" type="curve"/>
      <point x="530.5" y="502" type="line"/>
      <point x="539.167" y="497.333"/>
      <point x="550.167" y="495"/>
      <point x="563.5" y="495" type="curve" smooth="yes"/>
      <point x="601.5" y="495"/>
      <point x="616.5" y="520"/>
      <point x="616.5" y="544" type="curve" smooth="yes"/>
      <point x="616.5" y="586"/>
      <point x="577.5" y="606"/>
    </contour>
    <contour>
      <point x="354" y="429.5" type="curve"/>
      <point x="333" y="418.5"/>
      <point x="265.037" y="412.552"/>
      <point x="256" y="407.25" type="curve"/>
      <point x="171.788" y="407.25"/>
      <point x="56" y="372.053"/>
      <point x="56" y="218" type="curve" smooth="yes"/>
      <point x="56" y="133.941"/>
      <point x="86" y="72.8789"/>
      <point x="135" y="29.75" type="curve"/>
      <point x="135" y="0" type="line"/>
      <point x="68.5828" y="33.2086"/>
      <point x="27" y="120.07"/>
      <point x="27" y="221" type="curve" smooth="yes"/>
      <point x="27" y="337.213"/>
      <point x="97.5107" y="436.25"/>
      <point x="265.5" y="436.25" type="curve" smooth="yes"/>
      <point x="291.563" y="436.25"/>
      <point x="320.717" y="435.999"/>
    </contour>
  </outline>
</glyph>
<glyph name="NameMe.559" format="1">
  <advance width="839"/>
  <outline>
    <contour>
      <point x="629" y="-1" type="curve" smooth="yes"/>
      <point x="491.433" y="-1"/>
      <point x="420.75" y="69"/>
      <point x="420.75" y="169" type="curve" smooth="yes"/>
      <point x="420.75" y="274"/>
      <point x="493.75" y="317"/>
      <point x="612.75" y="317" type="curve" smooth="yes"/>
      <point x="732.75" y="317" type="line"/>
      <point x="723.026" y="363.186"/>
      <point x="693.75" y="396"/>
      <point x="649.75" y="396" type="curve" smooth="yes"/>
      <point x="630.75" y="396"/>
      <point x="614.799" y="383.911"/>
      <point x="606.25" y="366" type="curve" smooth="yes"/>
      <point x="595.75" y="344"/>
      <point x="579.552" y="336"/>
      <point x="564.75" y="336" type="curve" smooth="yes"/>
      <point x="539.75" y="336"/>
      <point x="526.75" y="351"/>
      <point x="526.75" y="372" type="curve" smooth="yes"/>
      <point x="526.75" y="408.283"/>
      <point x="566.75" y="433"/>
      <point x="621.75" y="433" type="curve" smooth="yes"/>
      <point x="707.489" y="433"/>
      <point x="750.654" y="389.003"/>
      <point x="768.75" y="294" type="curve"/>
      <point x="631.75" y="294" type="line" smooth="yes"/>
      <point x="543.75" y="294"/>
      <point x="497.75" y="257"/>
      <point x="497.75" y="173" type="curve" smooth="yes"/>
      <point x="497.75" y="89"/>
      <point x="564.349" y="26"/>
      <point x="649" y="26" type="curve" smooth="yes"/>
      <point x="699.453" y="26"/>
      <point x="733.75" y="46"/>
      <point x="773.75" y="92" type="curve"/>
      <point x="796.75" y="75" type="line"/>
      <point x="769.492" y="45.0156"/>
      <point x="759.75" y="6.1582"/>
      <point x="759.75" y="-59" type="curve" smooth="yes"/>
      <point x="759.75" y="-126.798"/>
      <point x="786.861" y="-204.25"/>
      <point x="821.75" y="-204.25" type="curve"/>
      <point x="821.75" y="-228.5" type="line"/>
      <point x="819.078" y="-229.383"/>
      <point x="814.697" y="-229.75"/>
      <point x="810.75" y="-229.75" type="curve" smooth="yes"/>
      <point x="754.401" y="-229.75"/>
      <point x="711.75" y="-177.438"/>
      <point x="711.75" y="-104" type="curve" smooth="yes"/>
      <point x="711.75" y="-49.1621"/>
      <point x="735.694" y="5.75586"/>
      <point x="745.75" y="31" type="curve"/>
      <point x="680.653" y="-8.52344"/>
      <point x="634.75" y="-51.416"/>
      <point x="634.75" y="-116" type="curve" smooth="yes"/>
      <point x="634.75" y="-175.112"/>
      <point x="669.503" y="-200.126"/>
      <point x="704.75" y="-206" type="curve"/>
      <point x="704.75" y="-228.25" type="line"/>
      <point x="700.958" y="-229.427"/>
      <point x="690.635" y="-230.25"/>
      <point x="685.75" y="-230.25" type="curve" smooth="yes"/>
      <point x="623.523" y="-230.25"/>
      <point x="575.75" y="-197.724"/>
      <point x="575.75" y="-132" type="curve" smooth="yes"/>
      <point x="575.75" y="-78.6523"/>
      <point x="614.708" y="-41.1084"/>
      <point x="661.75" y="1" type="curve"/>
      <point x="648.574" y="-0.908203"/>
      <point x="634.7" y="-1"/>
    </contour>
    <contour>
      <point x="674" y="426" type="curve"/>
      <point x="553" y="409.25" type="line"/>
      <point x="547.395" y="409.405"/>
      <point x="543.217" y="409.5"/>
      <point x="537.5" y="409.5" type="curve" smooth="yes"/>
      <point x="430.521" y="409.5"/>
      <point x="369.281" y="339.916"/>
      <point x="347" y="236" type="curve"/>
      <point x="355" y="240"/>
      <point x="363.333" y="241"/>
      <point x="370" y="241" type="curve" smooth="yes"/>
      <point x="418" y="241"/>
      <point x="452" y="202"/>
      <point x="452" y="136" type="curve" smooth="yes"/>
      <point x="452" y="56"/>
      <point x="395" y="-2"/>
      <point x="308" y="-2" type="curve" smooth="yes"/>
      <point x="197" y="-2"/>
      <point x="134" y="96"/>
      <point x="134" y="207" type="curve" smooth="yes"/>
      <point x="134" y="330"/>
      <point x="209" y="431.5"/>
      <point x="320" y="431.5" type="curve" smooth="yes"/>
      <point x="323.953" y="431.5"/>
      <point x="328.954" y="431.25"/>
      <point x="333" y="431" type="curve"/>
      <point x="333" y="408" type="line"/>
      <point x="329.645" y="408.284"/>
      <point x="325.311" y="408.45"/>
      <point x="322" y="408.45" type="curve" smooth="yes"/>
      <point x="236" y="408.45"/>
      <point x="169" y="332"/>
      <point x="169" y="230" type="curve" smooth="yes"/>
      <point x="169" y="147"/>
      <point x="217.31" y="71"/>
      <point x="306" y="71" type="curve" smooth="yes"/>
      <point x="365" y="71"/>
      <point x="418" y="98.6416"/>
      <point x="418" y="158" type="curve" smooth="yes"/>
      <point x="418" y="196"/>
      <point x="398.453" y="217"/>
      <point x="367" y="217" type="curve" smooth="yes"/>
      <point x="359.667" y="217"/>
      <point x="349" y="214"/>
      <point x="344" y="210" type="curve"/>
      <point x="343" y="204"/>
      <point x="342" y="195.333"/>
      <point x="342" y="192" type="curve"/>
      <point x="315" y="192" type="line"/>
      <point x="328.678" y="352.298"/>
      <point x="406.221" y="438"/>
      <point x="560" y="438" type="curve" smooth="yes"/>
      <point x="591" y="438"/>
      <point x="640.988" y="436.425"/>
    </contour>
    <contour>
      <point x="324" y="431.5" type="curve"/>
      <point x="320" y="431.5"/>
      <point x="231" y="406"/>
      <point x="231" y="406" type="curve"/>
      <point x="97" y="406"/>
      <point x="56" y="312.399"/>
      <point x="56" y="218" type="curve" smooth="yes"/>
      <point x="56" y="137.333"/>
      <point x="83" y="75.333"/>
      <point x="135" y="30" type="curve"/>
      <point x="135" y="0" type="line"/>
      <point x="68.5828" y="33.2086"/>
      <point x="27" y="120.07"/>
      <point x="27" y="221" type="curve" smooth="yes"/>
      <point x="27" y="352.7"/>
      <point x="99.7562" y="433"/>
      <point x="239" y="433" type="curve" smooth="yes"/>
      <point x="248" y="433"/>
      <point x="301" y="433"/>
    </contour>
  </outline>
</glyph>
<glyph name="si_NyAee" format="1">
  <advance width="1018"/>
  <outline>
    <contour>
      <point x="952" y="-59.5" type="curve"/>
      <point x="951.743" y="-59.8086"/>
      <point x="884" y="-60"/>
      <point x="884" y="-60" type="curve"/>
      <point x="884" y="-40" type="line"/>
      <point x="907.441" y="-25.7754"/>
      <point x="931.179" y="-9.8457"/>
      <point x="955.25" y="3.75" type="curve"/>
      <point x="953.147" y="3.75"/>
      <point x="886.25" y="3.75"/>
      <point x="886.25" y="3.75" type="curve"/>
      <point x="866.908" y="-12.3477"/>
      <point x="817" y="-51.416"/>
      <point x="817" y="-116" type="curve" smooth="yes"/>
      <point x="817" y="-175.112"/>
      <point x="851.753" y="-200.126"/>
      <point x="887" y="-206" type="curve"/>
      <point x="887" y="-228.25" type="line"/>
      <point x="883.208" y="-229.427"/>
      <point x="872.885" y="-230.25"/>
      <point x="868" y="-230.25" type="curve" smooth="yes"/>
      <point x="805.773" y="-230.25"/>
      <point x="758" y="-197.724"/>
      <point x="758" y="-132" type="curve" smooth="yes"/>
      <point x="758" y="-78.6523"/>
      <point x="796.958" y="-41.1084"/>
      <point x="844" y="1" type="curve"/>
      <point x="830.824" y="-0.908203"/>
      <point x="816.95" y="-1"/>
      <point x="811.25" y="-1" type="curve" smooth="yes"/>
      <point x="673.683" y="-1"/>
      <point x="603" y="69"/>
      <point x="603" y="169" type="curve" smooth="yes"/>
      <point x="603" y="274"/>
      <point x="676" y="317"/>
      <point x="795" y="317" type="curve" smooth="yes"/>
      <point x="915" y="317" type="line"/>
      <point x="905.276" y="363.186"/>
      <point x="853.5" y="396"/>
      <point x="809.5" y="396" type="curve" smooth="yes"/>
      <point x="790.5" y="396"/>
      <point x="774.549" y="383.911"/>
      <point x="766" y="366" type="curve" smooth="yes"/>
      <point x="755.5" y="344"/>
      <point x="739.302" y="336"/>
      <point x="724.5" y="336" type="curve" smooth="yes"/>
      <point x="699.5" y="336"/>
      <point x="686.5" y="351"/>
      <point x="686.5" y="372" type="curve" smooth="yes"/>
      <point x="686.5" y="408.283"/>
      <point x="726.5" y="433"/>
      <point x="781.5" y="433" type="curve" smooth="yes"/>
      <point x="867.239" y="433"/>
      <point x="932.904" y="389.003"/>
      <point x="951" y="294" type="curve"/>
      <point x="814" y="294" type="line" smooth="yes"/>
      <point x="726" y="294"/>
      <point x="680" y="257"/>
      <point x="680" y="173" type="curve" smooth="yes"/>
      <point x="680" y="89"/>
      <point x="746.599" y="26"/>
      <point x="831.25" y="26" type="curve" smooth="yes"/>
      <point x="881.703" y="26"/>
      <point x="916" y="46"/>
      <point x="956" y="92" type="curve"/>
      <point x="975" y="76" type="line"/>
      <point x="974.73" y="68.5654"/>
      <point x="925.5" y="28"/>
      <point x="925.5" y="28" type="curve"/>
      <point x="998" y="28" type="line"/>
      <point x="998" y="4.75" type="line"/>
      <point x="934.25" y="-36" type="line"/>
      <point x="996" y="-36" type="line"/>
      <point x="996" y="-58" type="line"/>
      <point x="974.127" y="-65.6641"/>
      <point x="950" y="-92.0703"/>
      <point x="950" y="-136" type="curve" smooth="yes"/>
      <point x="950" y="-176.404"/>
      <point x="969.111" y="-204.25"/>
      <point x="1004" y="-204.25" type="curve"/>
      <point x="1004" y="-228.5" type="line"/>
      <point x="1001.33" y="-229.383"/>
      <point x="996.947" y="-229.75"/>
      <point x="993" y="-229.75" type="curve" smooth="yes"/>
      <point x="936.651" y="-229.75"/>
      <point x="895.25" y="-187.072"/>
      <point x="895.25" y="-142" type="curve" smooth="yes"/>
      <point x="895.25" y="-102.948"/>
      <point x="921.094" y="-73.2598"/>
    </contour>
    <contour>
      <point x="307" y="273" type="curve"/>
      <point x="289.667" y="258.333"/>
      <point x="270" y="234.667"/>
      <point x="254" y="212" type="curve" smooth="yes"/>
      <point x="225.333" y="171.333"/>
      <point x="205.667" y="131.667"/>
      <point x="195" y="95" type="curve"/>
      <point x="201" y="98.333"/>
      <point x="207.333" y="100"/>
      <point x="214" y="100" type="curve" smooth="yes"/>
      <point x="243" y="100"/>
      <point x="267" y="71"/>
      <point x="324" y="71" type="curve" smooth="yes"/>
      <point x="375.183" y="71"/>
      <point x="406" y="101.864"/>
      <point x="406" y="162" type="curve" smooth="yes"/>
      <point x="406" y="164.209"/>
      <point x="406.041" y="161.305"/>
      <point x="406" y="163" type="curve"/>
      <point x="432" y="163" type="line"/>
      <point x="431.964" y="161.664"/>
      <point x="432" y="163.33"/>
      <point x="432" y="162" type="curve" smooth="yes"/>
      <point x="432" y="96.9268"/>
      <point x="459" y="71"/>
      <point x="517" y="71" type="curve" smooth="yes"/>
      <point x="579.089" y="71"/>
      <point x="599" y="123"/>
      <point x="599" y="159" type="curve" smooth="yes"/>
      <point x="599" y="242"/>
      <point x="525.879" y="291"/>
      <point x="423" y="291" type="curve" smooth="yes"/>
      <point x="366.333" y="291"/>
      <point x="328" y="282"/>
    </contour>
    <contour>
      <point x="344" y="308" type="curve"/>
      <point x="368" y="314"/>
      <point x="399.667" y="316"/>
      <point x="427" y="316" type="curve" smooth="yes"/>
      <point x="547" y="316"/>
      <point x="640" y="251"/>
      <point x="640" y="126" type="curve" smooth="yes"/>
      <point x="640" y="67.8477"/>
      <point x="607" y="-1"/>
      <point x="522" y="-1" type="curve" smooth="yes"/>
      <point x="476" y="-1"/>
      <point x="442.333" y="20.333"/>
      <point x="421" y="63" type="curve"/>
      <point x="403.667" y="21.667"/>
      <point x="371.021" y="-1"/>
      <point x="329" y="-1" type="curve" smooth="yes"/>
      <point x="242" y="-1"/>
      <point x="245" y="73"/>
      <point x="212" y="73" type="curve" smooth="yes"/>
      <point x="189.675" y="73"/>
      <point x="175" y="51"/>
      <point x="172" y="11" type="curve"/>
      <point x="146" y="22" type="line"/>
      <point x="153.696" y="91.2695"/>
      <point x="199.452" y="184.165"/>
      <point x="234" y="232" type="curve" smooth="yes"/>
      <point x="260" y="268"/>
      <point x="275" y="282"/>
      <point x="293" y="301" type="curve"/>
      <point x="305" y="314"/>
      <point x="318" y="330"/>
      <point x="318" y="352" type="curve" smooth="yes"/>
      <point x="318" y="374"/>
      <point x="308.408" y="392"/>
      <point x="283" y="392" type="curve" smooth="yes"/>
      <point x="269" y="392"/>
      <point x="247.479" y="384.287"/>
      <point x="241" y="363" type="curve" smooth="yes"/>
      <point x="234" y="340"/>
      <point x="237.653" y="340.109"/>
      <point x="231" y="323" type="curve" smooth="yes"/>
      <point x="224" y="305"/>
      <point x="209" y="297"/>
      <point x="194" y="297" type="curve" smooth="yes"/>
      <point x="160" y="297"/>
      <point x="154" y="328"/>
      <point x="154" y="340" type="curve" smooth="yes"/>
      <point x="154" y="394.099"/>
      <point x="204.363" y="433"/>
      <point x="261" y="433" type="curve" smooth="yes"/>
      <point x="310.712" y="433"/>
      <point x="345.079" y="402"/>
      <point x="345.079" y="356" type="curve" smooth="yes"/>
      <point x="345.079" y="351.468"/>
      <point x="344.724" y="345.795"/>
      <point x="344" y="341" type="curve"/>
      <point x="372.357" y="362.046"/>
      <point x="409.339" y="388.188"/>
      <point x="480" y="412" type="curve" smooth="yes"/>
      <point x="550.91" y="435.896"/>
      <point x="608.2" y="442"/>
      <point x="689.25" y="442" type="curve" smooth="yes"/>
      <point x="715.792" y="442"/>
      <point x="783.74" y="439.389"/>
      <point x="827.5" y="427.25" type="curve"/>
      <point x="725.25" y="413.5" type="line"/>
      <point x="714.28" y="414.815"/>
      <point x="693.462" y="415"/>
      <point x="683.25" y="415" type="curve" smooth="yes"/>
      <point x="633.816" y="415"/>
      <point x="596.183" y="410.734"/>
      <point x="564" y="405" type="curve" smooth="yes"/>
      <point x="480.979" y="390.21"/>
      <point x="419.011" y="364.724"/>
    </contour>
    <contour>
      <point x="293" y="428.25" type="curve"/>
      <point x="272" y="417.25"/>
      <point x="194" y="406.5"/>
      <point x="177" y="400.5" type="curve"/>
      <point x="102" y="382.5"/>
      <point x="56" y="319.268"/>
      <point x="56" y="218" type="curve" smooth="yes"/>
      <point x="56" y="137.333"/>
      <point x="83" y="75.333"/>
      <point x="135" y="30" type="curve"/>
      <point x="135" y="0" type="line"/>
      <point x="68.5828" y="33.2086"/>
      <point x="27" y="120.07"/>
      <point x="27" y="221" type="curve" smooth="yes"/>
      <point x="27" y="352.7"/>
      <point x="99.7559" y="434.25"/>
      <point x="239" y="434.25" type="curve" smooth="yes"/>
      <point x="248" y="434.25"/>
      <point x="271" y="434.25"/>
    </contour>
  </outline>
</glyph>
<glyph name="si_BRI" format="1">
  <advance width="619"/>
  <outline>
    <contour>
      <point x="66.75" y="562" type="curve" smooth="yes"/>
      <point x="66.75" y="652"/>
      <point x="197.75" y="670"/>
      <point x="297.75" y="670" type="curve" smooth="yes"/>
      <point x="433.75" y="670"/>
      <point x="543.75" y="639"/>
      <point x="543.75" y="554" type="curve" smooth="yes"/>
      <point x="543.75" y="502"/>
      <point x="489.75" y="480"/>
      <point x="455.75" y="474" type="curve"/>
      <point x="405.75" y="490" type="line"/>
      <point x="441.75" y="491"/>
      <point x="496.75" y="506"/>
      <point x="496.75" y="544" type="curve" smooth="yes"/>
      <point x="496.75" y="600.273"/>
      <point x="405.75" y="611"/>
      <point x="297.75" y="611" type="curve" smooth="yes"/>
      <point x="222.094" y="611"/>
      <point x="108.75" y="605.886"/>
      <point x="108.75" y="554" type="curve" smooth="yes"/>
      <point x="108.75" y="508"/>
      <point x="173.75" y="508"/>
      <point x="275.75" y="504" type="curve" smooth="yes"/>
      <point x="340.619" y="501.456"/>
      <point x="434.75" y="499"/>
      <point x="489.75" y="459" type="curve" smooth="yes"/>
      <point x="538.896" y="423.257"/>
      <point x="574.75" y="356"/>
      <point x="574.75" y="274" type="curve"/>
      <point x="535.75" y="297" type="line"/>
      <point x="535.75" y="338.152"/>
      <point x="524.563" y="383.562"/>
      <point x="496.75" y="414" type="curve" smooth="yes"/>
      <point x="443.75" y="472"/>
      <point x="377.769" y="472.325"/>
      <point x="276.75" y="478" type="curve" smooth="yes"/>
      <point x="187.75" y="483"/>
      <point x="66.75" y="476"/>
    </contour>
    <contour>
      <point x="101.49" y="76" type="curve" smooth="yes"/>
      <point x="101.49" y="49.54"/>
      <point x="123.54" y="27.4902"/>
      <point x="150" y="27.4902" type="curve" smooth="yes"/>
      <point x="176.46" y="27.4902"/>
      <point x="198.51" y="49.54"/>
      <point x="198.51" y="76" type="curve" smooth="yes"/>
      <point x="198.51" y="102.46"/>
      <point x="176.46" y="124.51"/>
      <point x="150" y="124.51" type="curve" smooth="yes"/>
      <point x="123.54" y="124.51"/>
      <point x="101.49" y="102.46"/>
    </contour>
    <contour>
      <point x="33" y="187" type="curve" smooth="yes"/>
      <point x="33" y="313.688"/>
      <point x="120.107" y="396"/>
      <point x="247" y="396" type="curve" smooth="yes"/>
      <point x="338.787" y="396"/>
      <point x="423" y="344.764"/>
      <point x="423" y="257" type="curve" smooth="yes"/>
      <point x="423" y="126"/>
      <point x="304" y="167"/>
      <point x="304" y="101" type="curve" smooth="yes"/>
      <point x="304" y="76.3333"/>
      <point x="319.667" y="64"/>
      <point x="351" y="64" type="curve" smooth="yes"/>
      <point x="461.835" y="64"/>
      <point x="535.75" y="189.949"/>
      <point x="535.75" y="301" type="curve"/>
      <point x="553.945" y="292.76"/>
      <point x="559.767" y="282.412"/>
      <point x="574.75" y="278" type="curve"/>
      <point x="574.75" y="140.209"/>
      <point x="518.06" y="-2"/>
      <point x="381" y="-2" type="curve" smooth="yes"/>
      <point x="321.202" y="-2"/>
      <point x="273" y="34.5566"/>
      <point x="273" y="94" type="curve" smooth="yes"/>
      <point x="273" y="186"/>
      <point x="388" y="156"/>
      <point x="388" y="237" type="curve" smooth="yes"/>
      <point x="388" y="296"/>
      <point x="308.91" y="320"/>
      <point x="237" y="320" type="curve" smooth="yes"/>
      <point x="146" y="320"/>
      <point x="64" y="267"/>
      <point x="64" y="162" type="curve" smooth="yes"/>
      <point x="64" y="136"/>
      <point x="69" y="106"/>
      <point x="77" y="91" type="curve"/>
      <point x="81" y="126"/>
      <point x="109.438" y="153"/>
      <point x="150" y="153" type="curve" smooth="yes"/>
      <point x="193" y="153"/>
      <point x="229" y="119"/>
      <point x="229" y="77" type="curve" smooth="yes"/>
      <point x="229" y="29"/>
      <point x="190" y="-1"/>
      <point x="150" y="-1" type="curve" smooth="yes"/>
      <point x="68" y="-1"/>
      <point x="33" y="91.123"/>
    </contour>
    <contour>
      <point x="58.1396" y="-44" type="curve"/>
      <point x="86.8301" y="-44" type="line"/>
      <point x="121.103" y="-119.333"/>
      <point x="185.857" y="-157"/>
      <point x="288.03" y="-157" type="curve" smooth="yes"/>
      <point x="426.74" y="-157"/>
      <point x="537.95" y="-87.1421"/>
      <point x="537.95" y="50" type="curve" smooth="yes"/>
      <point x="537.95" y="71"/>
      <point x="533.1" y="93"/>
      <point x="526.31" y="102" type="curve"/>
      <point x="542.17" y="133" type="line"/>
      <point x="559.63" y="106.333"/>
      <point x="568.36" y="74.667"/>
      <point x="568.36" y="38" type="curve" smooth="yes"/>
      <point x="568.36" y="-123.729"/>
      <point x="443.23" y="-219"/>
      <point x="303.55" y="-219" type="curve" smooth="yes"/>
      <point x="174.54" y="-219"/>
      <point x="94.3525" y="-153.333"/>
    </contour>
  </outline>
</glyph>
<glyph name="si_BU" format="1">
  <advance width="619"/>
  <outline>
    <contour>
      <point x="49.25" y="-142.5" type="curve" smooth="yes"/>
      <point x="49.25" y="-90.4912"/>
      <point x="95.543" y="-50.5"/>
      <point x="150.75" y="-50.5" type="curve" smooth="yes"/>
      <point x="192.656" y="-50.5"/>
      <point x="230" y="-74.1416"/>
      <point x="244.75" y="-110" type="curve"/>
      <point x="214.75" y="-121.5" type="line"/>
      <point x="207.732" y="-101.896"/>
      <point x="183.75" y="-80"/>
      <point x="150.75" y="-80" type="curve" smooth="yes"/>
      <point x="114.046" y="-80"/>
      <point x="82.75" y="-106.714"/>
      <point x="82.75" y="-142.5" type="curve" smooth="yes"/>
      <point x="82.75" y="-171.663"/>
      <point x="106.134" y="-199"/>
      <point x="171.75" y="-199" type="curve" smooth="yes"/>
      <point x="532.5" y="-199" type="line"/>
      <point x="532.5" y="128" type="line"/>
      <point x="565.5" y="219" type="line"/>
      <point x="565.5" y="-235" type="line"/>
      <point x="154.75" y="-235" type="line" smooth="yes"/>
      <point x="85.5898" y="-235"/>
      <point x="49.25" y="-186.092"/>
    </contour>
    <contour>
      <point x="101.49" y="76" type="curve" smooth="yes"/>
      <point x="101.49" y="49.54"/>
      <point x="123.54" y="27.4902"/>
      <point x="150" y="27.4902" type="curve" smooth="yes"/>
      <point x="176.46" y="27.4902"/>
      <point x="198.51" y="49.54"/>
      <point x="198.51" y="76" type="curve" smooth="yes"/>
      <point x="198.51" y="102.46"/>
      <point x="176.46" y="124.51"/>
      <point x="150" y="124.51" type="curve" smooth="yes"/>
      <point x="123.54" y="124.51"/>
      <point x="101.49" y="102.46"/>
    </contour>
    <contour>
      <point x="33" y="187" type="curve" smooth="yes"/>
      <point x="33" y="313.688"/>
      <point x="120.107" y="396"/>
      <point x="247" y="396" type="curve" smooth="yes"/>
      <point x="338.787" y="396"/>
      <point x="423" y="344.764"/>
      <point x="423" y="257" type="curve" smooth="yes"/>
      <point x="423" y="126"/>
      <point x="304" y="167"/>
      <point x="304" y="101" type="curve" smooth="yes"/>
      <point x="304" y="76.3333"/>
      <point x="319.667" y="64"/>
      <point x="351" y="64" type="curve" smooth="yes"/>
      <point x="461.835" y="64"/>
      <point x="530" y="202"/>
      <point x="530" y="313" type="curve" smooth="yes"/>
      <point x="530" y="458"/>
      <point x="442" y="561"/>
      <point x="292" y="561" type="curve" smooth="yes"/>
      <point x="198" y="561"/>
      <point x="132.667" y="530"/>
      <point x="94" y="470" type="curve"/>
      <point x="64" y="470" type="line"/>
      <point x="98.6667" y="542"/>
      <point x="178.571" y="585"/>
      <point x="292" y="585" type="curve" smooth="yes"/>
      <point x="470" y="585"/>
      <point x="575" y="465.143"/>
      <point x="575" y="284" type="curve" smooth="yes"/>
      <point x="575" y="141.31"/>
      <point x="518.06" y="-2"/>
      <point x="381" y="-2" type="curve" smooth="yes"/>
      <point x="321.202" y="-2"/>
      <point x="273" y="34.5566"/>
      <point x="273" y="94" type="curve" smooth="yes"/>
      <point x="273" y="186"/>
      <point x="388" y="156"/>
      <point x="388" y="237" type="curve" smooth="yes"/>
      <point x="388" y="296"/>
      <point x="308.91" y="320"/>
      <point x="237" y="320" type="curve" smooth="yes"/>
      <point x="146" y="320"/>
      <point x="64" y="267"/>
      <point x="64" y="162" type="curve" smooth="yes"/>
      <point x="64" y="136"/>
      <point x="69" y="106"/>
      <point x="77" y="91" type="curve"/>
      <point x="81" y="126"/>
      <point x="109.438" y="153"/>
      <point x="150" y="153" type="curve" smooth="yes"/>
      <point x="193" y="153"/>
      <point x="229" y="119"/>
      <point x="229" y="77" type="curve" smooth="yes"/>
      <point x="229" y="29"/>
      <point x="190" y="-1"/>
      <point x="150" y="-1" type="curve" smooth="yes"/>
      <point x="68" y="-1"/>
      <point x="33" y="91.123"/>
    </contour>
  </outline>
</glyph>
<glyph name="si_BUu" format="1">
  <advance width="619"/>
  <outline>
    <contour>
      <point x="49.25" y="-138" type="curve" smooth="yes"/>
      <point x="49.25" y="-80"/>
      <point x="98.25" y="-40"/>
      <point x="151.25" y="-40" type="curve" smooth="yes"/>
      <point x="193.25" y="-40"/>
      <point x="225.583" y="-55"/>
      <point x="248.25" y="-91" type="curve"/>
      <point x="218.25" y="-102" type="line"/>
      <point x="206.25" y="-83"/>
      <point x="185.25" y="-68"/>
      <point x="156.25" y="-68" type="curve" smooth="yes"/>
      <point x="117.25" y="-68"/>
      <point x="85.25" y="-92"/>
      <point x="85.25" y="-129" type="curve" smooth="yes"/>
      <point x="85.25" y="-166.366"/>
      <point x="116.25" y="-191"/>
      <point x="159.25" y="-191" type="curve" smooth="yes"/>
      <point x="243.25" y="-191"/>
      <point x="318.25" y="-117"/>
      <point x="413.25" y="-117" type="curve" smooth="yes"/>
      <point x="456.25" y="-117"/>
      <point x="505.25" y="-136"/>
      <point x="532.25" y="-168" type="curve"/>
      <point x="532.25" y="152" type="line"/>
      <point x="565.25" y="212" type="line"/>
      <point x="565.25" y="-231" type="line"/>
      <point x="542.25" y="-231" type="line"/>
      <point x="527.25" y="-195"/>
      <point x="484.25" y="-144"/>
      <point x="416.25" y="-144" type="curve" smooth="yes"/>
      <point x="325.25" y="-144"/>
      <point x="258.25" y="-237"/>
      <point x="160.25" y="-237" type="curve" smooth="yes"/>
      <point x="105.25" y="-237"/>
      <point x="49.25" y="-206"/>
    </contour>
    <contour>
      <point x="101.49" y="76" type="curve" smooth="yes"/>
      <point x="101.49" y="49.54"/>
      <point x="123.54" y="27.4902"/>
      <point x="150" y="27.4902" type="curve" smooth="yes"/>
      <point x="176.46" y="27.4902"/>
      <point x="198.51" y="49.54"/>
      <point x="198.51" y="76" type="curve" smooth="yes"/>
      <point x="198.51" y="102.46"/>
      <point x="176.46" y="124.51"/>
      <point x="150" y="124.51" type="curve" smooth="yes"/>
      <point x="123.54" y="124.51"/>
      <point x="101.49" y="102.46"/>
    </contour>
    <contour>
      <point x="33" y="187" type="curve" smooth="yes"/>
      <point x="33" y="313.688"/>
      <point x="120.107" y="396"/>
      <point x="247" y="396" type="curve" smooth="yes"/>
      <point x="338.787" y="396"/>
      <point x="423" y="344.764"/>
      <point x="423" y="257" type="curve" smooth="yes"/>
      <point x="423" y="126"/>
      <point x="304" y="167"/>
      <point x="304" y="101" type="curve" smooth="yes"/>
      <point x="304" y="76.3333"/>
      <point x="319.667" y="64"/>
      <point x="351" y="64" type="curve" smooth="yes"/>
      <point x="461.835" y="64"/>
      <point x="530" y="202"/>
      <point x="530" y="313" type="curve" smooth="yes"/>
      <point x="530" y="458"/>
      <point x="442" y="561"/>
      <point x="292" y="561" type="curve" smooth="yes"/>
      <point x="198" y="561"/>
      <point x="132.667" y="530"/>
      <point x="94" y="470" type="curve"/>
      <point x="64" y="470" type="line"/>
      <point x="98.6667" y="542"/>
      <point x="178.571" y="585"/>
      <point x="292" y="585" type="curve" smooth="yes"/>
      <point x="470" y="585"/>
      <point x="575" y="465.143"/>
      <point x="575" y="284" type="curve" smooth="yes"/>
      <point x="575" y="141.31"/>
      <point x="518.06" y="-2"/>
      <point x="381" y="-2" type="curve" smooth="yes"/>
      <point x="321.202" y="-2"/>
      <point x="273" y="34.5566"/>
      <point x="273" y="94" type="curve" smooth="yes"/>
      <point x="273" y="186"/>
      <point x="388" y="156"/>
      <point x="388" y="237" type="curve" smooth="yes"/>
      <point x="388" y="296"/>
      <point x="308.91" y="320"/>
      <point x="237" y="320" type="curve" smooth="yes"/>
      <point x="146" y="320"/>
      <point x="64" y="267"/>
      <point x="64" y="162" type="curve" smooth="yes"/>
      <point x="64" y="136"/>
      <point x="69" y="106"/>
      <point x="77" y="91" type="curve"/>
      <point x="81" y="126"/>
      <point x="109.438" y="153"/>
      <point x="150" y="153" type="curve" smooth="yes"/>
      <point x="193" y="153"/>
      <point x="229" y="119"/>
      <point x="229" y="77" type="curve" smooth="yes"/>
      <point x="229" y="29"/>
      <point x="190" y="-1"/>
      <point x="150" y="-1" type="curve" smooth="yes"/>
      <point x="68" y="-1"/>
      <point x="33" y="91.123"/>
    </contour>
  </outline>
</glyph>
<glyph name="si_BhRIi" format="1">
  <advance width="670"/>
  <outline>
    <contour>
      <point x="417.801" y="520" type="curve" smooth="yes"/>
      <point x="417.801" y="554.943"/>
      <point x="449.179" y="583.468"/>
      <point x="488.4" y="583.468" type="curve" smooth="yes"/>
      <point x="527.622" y="583.468"/>
      <point x="559" y="554.943"/>
      <point x="559" y="520" type="curve" smooth="yes"/>
      <point x="559" y="485.057"/>
      <point x="527.622" y="456.532"/>
      <point x="488.4" y="456.532" type="curve" smooth="yes"/>
      <point x="449.179" y="456.532"/>
      <point x="417.801" y="485.057"/>
    </contour>
    <contour>
      <point x="178.4" y="537" type="curve" smooth="yes"/>
      <point x="178.4" y="462"/>
      <point x="265.4" y="410.833"/>
      <point x="425.4" y="407.5" type="curve"/>
      <point x="441.4" y="431.5" type="line"/>
      <point x="440.406" y="431.494"/>
      <point x="440.406" y="431.492"/>
      <point x="439.4" y="431.492" type="curve" smooth="yes"/>
      <point x="353.4" y="431.5"/>
      <point x="219.4" y="455.697"/>
      <point x="219.4" y="516" type="curve" smooth="yes"/>
      <point x="219.4" y="568"/>
      <point x="297.928" y="598"/>
      <point x="379.4" y="598" type="curve" smooth="yes"/>
      <point x="403.04" y="598"/>
      <point x="417.4" y="597"/>
      <point x="439.4" y="593.824" type="curve"/>
      <point x="423.4" y="591"/>
      <point x="389.4" y="564.604"/>
      <point x="389.4" y="519" type="curve" smooth="yes"/>
      <point x="389.4" y="464"/>
      <point x="442.4" y="431"/>
      <point x="486.4" y="431" type="curve" smooth="yes"/>
      <point x="529.4" y="431"/>
      <point x="587.4" y="456"/>
      <point x="587.4" y="525" type="curve" smooth="yes"/>
      <point x="587.4" y="618"/>
      <point x="484.745" y="667"/>
      <point x="379.4" y="667" type="curve" smooth="yes"/>
      <point x="277.385" y="667"/>
      <point x="178.4" y="628"/>
    </contour>
    <contour>
      <point x="6" y="271" type="curve"/>
      <point x="6" y="303" type="line"/>
      <point x="212" y="303" type="line"/>
      <point x="171" y="278" type="line"/>
      <point x="140" y="278" type="line" smooth="yes"/>
      <point x="69" y="277"/>
      <point x="22" y="273.667"/>
    </contour>
    <contour>
      <point x="48.9551" y="155.113" type="curve" smooth="yes"/>
      <point x="48.9551" y="253"/>
      <point x="148" y="303.353"/>
      <point x="218" y="303.353" type="curve" smooth="yes"/>
      <point x="221.958" y="303.353"/>
      <point x="217.959" y="303.224"/>
      <point x="222" y="303" type="curve"/>
      <point x="222" y="345.316"/>
      <point x="198" y="383.056"/>
      <point x="160.457" y="383.056" type="curve" smooth="yes"/>
      <point x="139.505" y="383.056"/>
      <point x="127.798" y="370.856"/>
      <point x="122" y="355.692" type="curve" smooth="yes"/>
      <point x="116" y="340"/>
      <point x="102.673" y="327.24"/>
      <point x="81.8027" y="327.24" type="curve" smooth="yes"/>
      <point x="62" y="327.24"/>
      <point x="49.0234" y="341"/>
      <point x="49.0234" y="364" type="curve" smooth="yes"/>
      <point x="49.0234" y="394.208"/>
      <point x="77.7021" y="432.033"/>
      <point x="134.455" y="432.033" type="curve" smooth="yes"/>
      <point x="213.35" y="432.033"/>
      <point x="253.805" y="360.444"/>
      <point x="255" y="278" type="curve"/>
      <point x="243" y="280"/>
      <point x="233" y="280.021"/>
      <point x="229" y="280.021" type="curve" smooth="yes"/>
      <point x="163" y="280.021"/>
      <point x="85.75" y="245.325"/>
      <point x="85.75" y="175.359" type="curve" smooth="yes"/>
      <point x="85.75" y="105.729"/>
      <point x="149.657" y="72"/>
      <point x="224" y="72" type="curve" smooth="yes"/>
      <point x="290.437" y="72"/>
      <point x="346.111" y="100.488"/>
      <point x="346.111" y="164.323" type="curve" smooth="yes"/>
      <point x="346.111" y="194.87"/>
      <point x="331" y="212.412"/>
      <point x="311" y="212.412" type="curve" smooth="yes"/>
      <point x="297.518" y="212.412"/>
      <point x="283.754" y="203.011"/>
      <point x="277" y="182" type="curve"/>
      <point x="255" y="192" type="line"/>
      <point x="264" y="317"/>
      <point x="345.087" y="432.01"/>
      <point x="446.302" y="432.01" type="curve" smooth="yes"/>
      <point x="558.174" y="432.01"/>
      <point x="621.019" y="328.65"/>
      <point x="621.019" y="210.962" type="curve" smooth="yes"/>
      <point x="621.019" y="92.0049"/>
      <point x="532" y="-1.30371"/>
      <point x="409" y="-1.30371" type="curve" smooth="yes"/>
      <point x="395.686" y="-1.30371"/>
      <point x="381.993" y="-0.266602"/>
      <point x="368" y="2" type="curve"/>
      <point x="368" y="29" type="line"/>
      <point x="380.328" y="27.0869"/>
      <point x="392.354" y="26.2051"/>
      <point x="404" y="26.2051" type="curve" smooth="yes"/>
      <point x="503" y="26.2051"/>
      <point x="573.147" y="93.4062"/>
      <point x="573.147" y="192.821" type="curve" smooth="yes"/>
      <point x="573.147" y="288.169"/>
      <point x="520.794" y="362"/>
      <point x="430" y="362" type="curve" smooth="yes"/>
      <point x="356.667" y="362"/>
      <point x="309" y="317.667"/>
      <point x="287" y="229" type="curve"/>
      <point x="296.835" y="234.532"/>
      <point x="306.634" y="237.17"/>
      <point x="316" y="237.17" type="curve" smooth="yes"/>
      <point x="354" y="237.17"/>
      <point x="382.163" y="199.14"/>
      <point x="382.163" y="145.35" type="curve" smooth="yes"/>
      <point x="382.163" y="52.9932"/>
      <point x="311.501" y="-0.762695"/>
      <point x="217.033" y="-0.762695" type="curve" smooth="yes"/>
      <point x="119.482" y="-0.762695"/>
      <point x="48.9551" y="61.0615"/>
    </contour>
    <contour>
      <point x="75.75" y="-44" type="curve"/>
      <point x="102.75" y="-44" type="line"/>
      <point x="138.083" y="-119.333"/>
      <point x="207.417" y="-157"/>
      <point x="312.75" y="-157" type="curve" smooth="yes"/>
      <point x="455.75" y="-157"/>
      <point x="573.75" y="-90"/>
      <point x="573.75" y="50" type="curve" smooth="yes"/>
      <point x="573.75" y="71"/>
      <point x="568.75" y="93"/>
      <point x="561.75" y="102" type="curve"/>
      <point x="574.75" y="133" type="line"/>
      <point x="592.75" y="106.333"/>
      <point x="601.75" y="74.667"/>
      <point x="601.75" y="38" type="curve" smooth="yes"/>
      <point x="601.75" y="-123.729"/>
      <point x="472.75" y="-219"/>
      <point x="328.75" y="-219" type="curve" smooth="yes"/>
      <point x="195.75" y="-219"/>
      <point x="113.083" y="-153.333"/>
    </contour>
  </outline>
</glyph>
<glyph name="si_Bha.reph" format="1">
  <advance width="670"/>
  <outline>
    <contour>
      <point x="296.086" y="511" type="curve" smooth="yes"/>
      <point x="296.086" y="490.446"/>
      <point x="314.684" y="473.807"/>
      <point x="337" y="473.807" type="curve" smooth="yes"/>
      <point x="359.316" y="473.807"/>
      <point x="377.914" y="490.446"/>
      <point x="377.914" y="511" type="curve" smooth="yes"/>
      <point x="377.914" y="531.554"/>
      <point x="359.316" y="548.193"/>
      <point x="337" y="548.193" type="curve" smooth="yes"/>
      <point x="314.684" y="548.193"/>
      <point x="296.086" y="531.554"/>
    </contour>
    <contour>
      <point x="194" y="530" type="curve" smooth="yes"/>
      <point x="194" y="594"/>
      <point x="252.12" y="631"/>
      <point x="334" y="631" type="curve" smooth="yes"/>
      <point x="411" y="631"/>
      <point x="475" y="588"/>
      <point x="475" y="517" type="curve" smooth="yes"/>
      <point x="475" y="493"/>
      <point x="466.667" y="471.333"/>
      <point x="450" y="452" type="curve"/>
      <point x="416.25" y="452" type="line"/>
      <point x="429.42" y="464.387"/>
      <point x="444.75" y="488.734"/>
      <point x="444.75" y="516" type="curve" smooth="yes"/>
      <point x="444.75" y="573.241"/>
      <point x="394" y="603.75"/>
      <point x="333" y="603.75" type="curve" smooth="yes"/>
      <point x="280.222" y="603.75"/>
      <point x="225.25" y="582.556"/>
      <point x="225.25" y="530" type="curve" smooth="yes"/>
      <point x="225.25" y="490.925"/>
      <point x="266.304" y="472.216"/>
      <point x="289.5" y="470.25" type="curve"/>
      <point x="281.5" y="476.25"/>
      <point x="269" y="491"/>
      <point x="269" y="512" type="curve" smooth="yes"/>
      <point x="269" y="547"/>
      <point x="300.354" y="572"/>
      <point x="336" y="572" type="curve" smooth="yes"/>
      <point x="377" y="572"/>
      <point x="405" y="545"/>
      <point x="405" y="510" type="curve" smooth="yes"/>
      <point x="405" y="471"/>
      <point x="370" y="445"/>
      <point x="312" y="445" type="curve" smooth="yes"/>
      <point x="253" y="445"/>
      <point x="194" y="474"/>
    </contour>
    <contour>
      <point x="6" y="271" type="curve"/>
      <point x="6" y="303" type="line"/>
      <point x="212" y="303" type="line"/>
      <point x="171" y="278" type="line"/>
      <point x="140" y="278" type="line" smooth="yes"/>
      <point x="69" y="277"/>
      <point x="22" y="273.667"/>
    </contour>
    <contour>
      <point x="48.9551" y="155.113" type="curve" smooth="yes"/>
      <point x="48.9551" y="253"/>
      <point x="148" y="303.353"/>
      <point x="218" y="303.353" type="curve" smooth="yes"/>
      <point x="221.958" y="303.353"/>
      <point x="217.959" y="303.224"/>
      <point x="222" y="303" type="curve"/>
      <point x="222" y="345.316"/>
      <point x="198" y="383.056"/>
      <point x="160.457" y="383.056" type="curve" smooth="yes"/>
      <point x="139.505" y="383.056"/>
      <point x="127.798" y="370.856"/>
      <point x="122" y="355.692" type="curve" smooth="yes"/>
      <point x="116" y="340"/>
      <point x="102.673" y="327.24"/>
      <point x="81.8027" y="327.24" type="curve" smooth="yes"/>
      <point x="62" y="327.24"/>
      <point x="49.0234" y="341"/>
      <point x="49.0234" y="364" type="curve" smooth="yes"/>
      <point x="49.0234" y="394.208"/>
      <point x="77.7021" y="432.033"/>
      <point x="134.455" y="432.033" type="curve" smooth="yes"/>
      <point x="213.35" y="432.033"/>
      <point x="253.805" y="360.444"/>
      <point x="255" y="278" type="curve"/>
      <point x="243" y="280"/>
      <point x="233" y="280.021"/>
      <point x="229" y="280.021" type="curve" smooth="yes"/>
      <point x="163" y="280.021"/>
      <point x="85.75" y="245.325"/>
      <point x="85.75" y="175.359" type="curve" smooth="yes"/>
      <point x="85.75" y="105.729"/>
      <point x="149.657" y="72"/>
      <point x="224" y="72" type="curve" smooth="yes"/>
      <point x="290.437" y="72"/>
      <point x="346.111" y="100.488"/>
      <point x="346.111" y="164.323" type="curve" smooth="yes"/>
      <point x="346.111" y="194.87"/>
      <point x="331" y="212.412"/>
      <point x="311" y="212.412" type="curve" smooth="yes"/>
      <point x="297.518" y="212.412"/>
      <point x="283.754" y="203.011"/>
      <point x="277" y="182" type="curve"/>
      <point x="255" y="192" type="line"/>
      <point x="264" y="317"/>
      <point x="345.087" y="432.01"/>
      <point x="446.302" y="432.01" type="curve" smooth="yes"/>
      <point x="558.174" y="432.01"/>
      <point x="621.019" y="328.65"/>
      <point x="621.019" y="210.962" type="curve" smooth="yes"/>
      <point x="621.019" y="92.0049"/>
      <point x="532" y="-1.30371"/>
      <point x="409" y="-1.30371" type="curve" smooth="yes"/>
      <point x="395.686" y="-1.30371"/>
      <point x="381.993" y="-0.266602"/>
      <point x="368" y="2" type="curve"/>
      <point x="368" y="29" type="line"/>
      <point x="380.328" y="27.0869"/>
      <point x="392.354" y="26.2051"/>
      <point x="404" y="26.2051" type="curve" smooth="yes"/>
      <point x="503" y="26.2051"/>
      <point x="573.147" y="93.4062"/>
      <point x="573.147" y="192.821" type="curve" smooth="yes"/>
      <point x="573.147" y="288.169"/>
      <point x="520.794" y="362"/>
      <point x="430" y="362" type="curve" smooth="yes"/>
      <point x="356.667" y="362"/>
      <point x="309" y="317.667"/>
      <point x="287" y="229" type="curve"/>
      <point x="296.835" y="234.532"/>
      <point x="306.634" y="237.17"/>
      <point x="316" y="237.17" type="curve" smooth="yes"/>
      <point x="354" y="237.17"/>
      <point x="382.163" y="199.14"/>
      <point x="382.163" y="145.35" type="curve" smooth="yes"/>
      <point x="382.163" y="52.9932"/>
      <point x="311.501" y="-0.762695"/>
      <point x="217.033" y="-0.762695" type="curve" smooth="yes"/>
      <point x="119.482" y="-0.762695"/>
      <point x="48.9551" y="61.0615"/>
    </contour>
  </outline>
</glyph>
<glyph name="si_C.halant" format="1">
  <advance width="621"/>
  <outline>
    <contour>
      <point x="139" y="543" type="curve" smooth="yes"/>
      <point x="139" y="567"/>
      <point x="212" y="590"/>
      <point x="284" y="590" type="curve" smooth="yes"/>
      <point x="400" y="590"/>
      <point x="494" y="537"/>
      <point x="527" y="422" type="curve"/>
      <point x="479" y="485"/>
      <point x="387" y="519"/>
      <point x="279" y="519" type="curve" smooth="yes"/>
      <point x="232.675" y="519"/>
      <point x="193" y="514"/>
      <point x="160" y="508" type="curve"/>
      <point x="162" y="510"/>
      <point x="163" y="513"/>
      <point x="163" y="515" type="curve" smooth="yes"/>
      <point x="163" y="526"/>
      <point x="139" y="531"/>
    </contour>
    <contour>
      <point x="42" y="442" type="line"/>
      <point x="123" y="480"/>
      <point x="195" y="493.75"/>
      <point x="271" y="493.75" type="curve" smooth="yes"/>
      <point x="446" y="493.75"/>
      <point x="538.826" y="413"/>
      <point x="538.826" y="298" type="curve" smooth="yes"/>
      <point x="538.826" y="294"/>
      <point x="539" y="287"/>
      <point x="539" y="279" type="curve"/>
      <point x="577" y="267" type="line"/>
      <point x="577" y="301"/>
      <point x="572" y="343"/>
      <point x="569" y="356" type="curve"/>
      <point x="557" y="490"/>
      <point x="486" y="629"/>
      <point x="278" y="629" type="curve" smooth="yes"/>
      <point x="163" y="629"/>
      <point x="98" y="583"/>
      <point x="98" y="546" type="curve" smooth="yes"/>
      <point x="98" y="524"/>
      <point x="126" y="520"/>
      <point x="126" y="508" type="curve" smooth="yes"/>
      <point x="126" y="499"/>
      <point x="74" y="485"/>
      <point x="42" y="473" type="curve"/>
    </contour>
    <contour>
      <point x="64" y="165" type="curve" smooth="yes"/>
      <point x="64" y="195.721"/>
      <point x="73.7754" y="227.831"/>
      <point x="97" y="248" type="curve" smooth="yes"/>
      <point x="113.127" y="262.005"/>
      <point x="132" y="273"/>
      <point x="158" y="278" type="curve"/>
      <point x="191.761" y="290.199"/>
      <point x="232.875" y="302"/>
      <point x="270" y="302" type="curve" smooth="yes"/>
      <point x="287" y="302" type="line"/>
      <point x="287.082" y="304.041"/>
      <point x="287.086" y="306.041"/>
      <point x="287.086" y="308" type="curve" smooth="yes"/>
      <point x="287.086" y="362"/>
      <point x="254.125" y="395"/>
      <point x="215" y="395" type="curve" smooth="yes"/>
      <point x="168.945" y="395"/>
      <point x="162.453" y="371"/>
      <point x="157.5" y="355" type="curve" smooth="yes"/>
      <point x="151.542" y="335.755"/>
      <point x="141.371" y="323"/>
      <point x="119.5" y="323" type="curve" smooth="yes"/>
      <point x="103.5" y="323"/>
      <point x="83" y="333.868"/>
      <point x="83" y="359.5" type="curve" smooth="yes"/>
      <point x="83" y="404.312"/>
      <point x="133" y="431.5"/>
      <point x="188" y="431.5" type="curve" smooth="yes"/>
      <point x="276" y="431.5"/>
      <point x="319.146" y="376"/>
      <point x="319.146" y="290" type="curve" smooth="yes"/>
      <point x="319.146" y="286.722"/>
      <point x="319.101" y="280.388"/>
      <point x="319" y="277" type="curve"/>
      <point x="250" y="277" type="line" smooth="yes"/>
      <point x="205.56" y="277"/>
      <point x="166.117" y="264.814"/>
      <point x="141" y="249" type="curve" smooth="yes"/>
      <point x="114" y="232"/>
      <point x="101" y="206.051"/>
      <point x="101" y="180" type="curve" smooth="yes"/>
      <point x="101" y="94"/>
      <point x="208" y="71"/>
      <point x="298" y="71" type="curve" smooth="yes"/>
      <point x="451" y="71"/>
      <point x="539" y="156"/>
      <point x="539" y="304" type="curve"/>
      <point x="577" y="274" type="line"/>
      <point x="577" y="114"/>
      <point x="478" y="0"/>
      <point x="295" y="0" type="curve" smooth="yes"/>
      <point x="174" y="0"/>
      <point x="64" y="46"/>
    </contour>
    <contour>
      <point x="14" y="270" type="curve"/>
      <point x="14" y="302" type="line"/>
      <point x="285" y="302" type="line"/>
      <point x="315" y="277" type="line"/>
      <point x="148" y="277" type="line" smooth="yes"/>
      <point x="77" y="276"/>
      <point x="30" y="272.667"/>
    </contour>
  </outline>
</glyph>
<glyph name="si_CRIi" format="1">
  <advance width="621"/>
  <outline>
    <contour>
      <point x="393.697" y="555" type="curve" smooth="yes"/>
      <point x="393.697" y="585.182"/>
      <point x="420.867" y="609.457"/>
      <point x="454" y="609.457" type="curve" smooth="yes"/>
      <point x="487.133" y="609.457"/>
      <point x="514.303" y="585.182"/>
      <point x="514.303" y="555" type="curve" smooth="yes"/>
      <point x="514.303" y="524.818"/>
      <point x="487.133" y="500.543"/>
      <point x="454" y="500.543" type="curve" smooth="yes"/>
      <point x="420.867" y="500.543"/>
      <point x="393.697" y="524.818"/>
    </contour>
    <contour>
      <point x="69" y="562" type="curve" smooth="yes"/>
      <point x="69" y="476"/>
      <point x="190" y="483"/>
      <point x="279" y="478" type="curve" smooth="yes"/>
      <point x="380.019" y="472.325"/>
      <point x="446" y="472"/>
      <point x="499" y="414" type="curve" smooth="yes"/>
      <point x="526.813" y="383.562"/>
      <point x="538" y="332.617"/>
      <point x="538" y="286" type="curve"/>
      <point x="577" y="274" type="line"/>
      <point x="577" y="358.552"/>
      <point x="541.146" y="423.257"/>
      <point x="492" y="459" type="curve" smooth="yes"/>
      <point x="437" y="499"/>
      <point x="342.869" y="501.456"/>
      <point x="278" y="504" type="curve" smooth="yes"/>
      <point x="176" y="508"/>
      <point x="111" y="508"/>
      <point x="111" y="554" type="curve" smooth="yes"/>
      <point x="111" y="605.886"/>
      <point x="224.344" y="611"/>
      <point x="300" y="611" type="curve" smooth="yes"/>
      <point x="342.212" y="611"/>
      <point x="374" y="609"/>
      <point x="381" y="608" type="curve"/>
      <point x="375" y="600"/>
      <point x="362" y="583"/>
      <point x="362" y="558" type="curve" smooth="yes"/>
      <point x="362" y="505"/>
      <point x="410" y="474"/>
      <point x="454" y="474" type="curve" smooth="yes"/>
      <point x="498" y="474"/>
      <point x="546" y="505"/>
      <point x="546" y="558" type="curve" smooth="yes"/>
      <point x="546" y="639"/>
      <point x="436" y="670"/>
      <point x="300" y="670" type="curve" smooth="yes"/>
      <point x="200" y="670"/>
      <point x="69" y="652"/>
    </contour>
    <contour>
      <point x="64" y="165" type="curve" smooth="yes"/>
      <point x="64" y="195.721"/>
      <point x="73.7754" y="227.831"/>
      <point x="97" y="248" type="curve" smooth="yes"/>
      <point x="113.127" y="262.005"/>
      <point x="132" y="273"/>
      <point x="158" y="278" type="curve"/>
      <point x="191.761" y="290.199"/>
      <point x="232.875" y="302"/>
      <point x="270" y="302" type="curve" smooth="yes"/>
      <point x="287" y="302" type="line"/>
      <point x="287.082" y="304.041"/>
      <point x="287.086" y="306.041"/>
      <point x="287.086" y="308" type="curve" smooth="yes"/>
      <point x="287.086" y="362"/>
      <point x="254.125" y="395"/>
      <point x="215" y="395" type="curve" smooth="yes"/>
      <point x="168.945" y="395"/>
      <point x="162.453" y="371"/>
      <point x="157.5" y="355" type="curve" smooth="yes"/>
      <point x="151.542" y="335.755"/>
      <point x="141.371" y="323"/>
      <point x="119.5" y="323" type="curve" smooth="yes"/>
      <point x="103.5" y="323"/>
      <point x="83" y="333.868"/>
      <point x="83" y="359.5" type="curve" smooth="yes"/>
      <point x="83" y="404.312"/>
      <point x="133" y="431.5"/>
      <point x="188" y="431.5" type="curve" smooth="yes"/>
      <point x="276" y="431.5"/>
      <point x="319.146" y="376"/>
      <point x="319.146" y="290" type="curve" smooth="yes"/>
      <point x="319.146" y="286.722"/>
      <point x="319.101" y="280.388"/>
      <point x="319" y="277" type="curve"/>
      <point x="250" y="277" type="line" smooth="yes"/>
      <point x="205.56" y="277"/>
      <point x="166.117" y="264.814"/>
      <point x="141" y="249" type="curve" smooth="yes"/>
      <point x="114" y="232"/>
      <point x="101" y="206.051"/>
      <point x="101" y="180" type="curve" smooth="yes"/>
      <point x="101" y="94"/>
      <point x="208" y="71"/>
      <point x="298" y="71" type="curve" smooth="yes"/>
      <point x="451" y="71"/>
      <point x="538" y="156"/>
      <point x="538" y="304" type="curve"/>
      <point x="577" y="274" type="line"/>
      <point x="577" y="114"/>
      <point x="478" y="0"/>
      <point x="295" y="0" type="curve" smooth="yes"/>
      <point x="174" y="0"/>
      <point x="64" y="46"/>
    </contour>
    <contour>
      <point x="14" y="270" type="curve"/>
      <point x="14" y="302" type="line"/>
      <point x="285" y="302" type="line"/>
      <point x="315" y="277" type="line"/>
      <point x="148" y="277" type="line" smooth="yes"/>
      <point x="77" y="276"/>
      <point x="30" y="272.667"/>
    </contour>
    <contour>
      <point x="56.5" y="-44" type="curve"/>
      <point x="83.5" y="-44" type="line"/>
      <point x="118.833" y="-119.333"/>
      <point x="186.167" y="-157"/>
      <point x="291.5" y="-157" type="curve" smooth="yes"/>
      <point x="434.5" y="-157"/>
      <point x="548.5" y="-90"/>
      <point x="548.5" y="50" type="curve" smooth="yes"/>
      <point x="548.5" y="71"/>
      <point x="542.309" y="98.9001"/>
      <point x="529" y="112" type="curve"/>
      <point x="545" y="140" type="line"/>
      <point x="567.976" y="107.27"/>
      <point x="576.5" y="74.667"/>
      <point x="576.5" y="38" type="curve" smooth="yes"/>
      <point x="576.5" y="-123.729"/>
      <point x="451.5" y="-219"/>
      <point x="307.5" y="-219" type="curve" smooth="yes"/>
      <point x="174.5" y="-219"/>
      <point x="93.833" y="-153.333"/>
    </contour>
  </outline>
</glyph>
<glyph name="si_CRa" format="1">
  <advance width="597"/>
  <outline>
    <contour>
      <point x="56.5" y="-44" type="curve"/>
      <point x="83.5" y="-44" type="line"/>
      <point x="118.833" y="-119.333"/>
      <point x="186.167" y="-157"/>
      <point x="291.5" y="-157" type="curve" smooth="yes"/>
      <point x="434.5" y="-157"/>
      <point x="548.5" y="-90"/>
      <point x="548.5" y="50" type="curve" smooth="yes"/>
      <point x="548.5" y="71"/>
      <point x="542.309" y="98.9001"/>
      <point x="529" y="112" type="curve"/>
      <point x="545" y="140" type="line"/>
      <point x="567.976" y="107.27"/>
      <point x="576.5" y="74.667"/>
      <point x="576.5" y="38" type="curve" smooth="yes"/>
      <point x="576.5" y="-123.729"/>
      <point x="451.5" y="-219"/>
      <point x="307.5" y="-219" type="curve" smooth="yes"/>
      <point x="174.5" y="-219"/>
      <point x="93.833" y="-153.333"/>
    </contour>
    <component base="uni0DA0"/>
  </outline>
</glyph>
<glyph name="si_CU" format="1">
  <advance width="597"/>
  <outline>
    <contour>
      <point x="70.5" y="-142.5" type="curve" smooth="yes"/>
      <point x="70.5" y="-90.4912"/>
      <point x="116.793" y="-50.5"/>
      <point x="172" y="-50.5" type="curve" smooth="yes"/>
      <point x="213.906" y="-50.5"/>
      <point x="251.25" y="-74.1416"/>
      <point x="266" y="-110" type="curve"/>
      <point x="236" y="-121.5" type="line"/>
      <point x="228.982" y="-101.896"/>
      <point x="205" y="-80"/>
      <point x="172" y="-80" type="curve" smooth="yes"/>
      <point x="135.296" y="-80"/>
      <point x="104" y="-106.714"/>
      <point x="104" y="-142.5" type="curve" smooth="yes"/>
      <point x="104" y="-171.663"/>
      <point x="127.384" y="-199"/>
      <point x="193" y="-199" type="curve" smooth="yes"/>
      <point x="533" y="-199" type="line"/>
      <point x="533" y="128" type="line"/>
      <point x="566" y="219" type="line"/>
      <point x="566" y="-235" type="line"/>
      <point x="176" y="-235" type="line" smooth="yes"/>
      <point x="106.84" y="-235"/>
      <point x="70.5" y="-186.092"/>
    </contour>
    <contour>
      <point x="64" y="165" type="curve" smooth="yes"/>
      <point x="64" y="195.721"/>
      <point x="73.7754" y="227.831"/>
      <point x="97" y="248" type="curve" smooth="yes"/>
      <point x="113.127" y="262.005"/>
      <point x="132" y="273"/>
      <point x="158" y="278" type="curve"/>
      <point x="191.761" y="290.199"/>
      <point x="232.875" y="302"/>
      <point x="270" y="302" type="curve" smooth="yes"/>
      <point x="287" y="302" type="line"/>
      <point x="287.082" y="304.041"/>
      <point x="287.086" y="306.041"/>
      <point x="287.086" y="308" type="curve" smooth="yes"/>
      <point x="287.086" y="362"/>
      <point x="253" y="395"/>
      <point x="216" y="395" type="curve" smooth="yes"/>
      <point x="171" y="395"/>
      <point x="163" y="371"/>
      <point x="157.5" y="355" type="curve" smooth="yes"/>
      <point x="150.951" y="335.948"/>
      <point x="140.871" y="323"/>
      <point x="119" y="323" type="curve" smooth="yes"/>
      <point x="103" y="323"/>
      <point x="83" y="333.368"/>
      <point x="83" y="359" type="curve" smooth="yes"/>
      <point x="83" y="406"/>
      <point x="133" y="431.5"/>
      <point x="188" y="431.5" type="curve" smooth="yes"/>
      <point x="276" y="431.5"/>
      <point x="319.146" y="376"/>
      <point x="319.146" y="290" type="curve" smooth="yes"/>
      <point x="319.146" y="286.722"/>
      <point x="319.101" y="280.388"/>
      <point x="319" y="277" type="curve"/>
      <point x="250" y="277" type="line" smooth="yes"/>
      <point x="205.56" y="277"/>
      <point x="166.117" y="264.814"/>
      <point x="141" y="249" type="curve" smooth="yes"/>
      <point x="114" y="232"/>
      <point x="101" y="206.051"/>
      <point x="101" y="180" type="curve" smooth="yes"/>
      <point x="101" y="94"/>
      <point x="208" y="71"/>
      <point x="298" y="71" type="curve" smooth="yes"/>
      <point x="451" y="71"/>
      <point x="541" y="158"/>
      <point x="541" y="300" type="curve" smooth="yes"/>
      <point x="541" y="442"/>
      <point x="437.498" y="553"/>
      <point x="303" y="553" type="curve" smooth="yes"/>
      <point x="223.667" y="553"/>
      <point x="160.667" y="524.667"/>
      <point x="116" y="470" type="curve"/>
      <point x="84" y="470" type="line"/>
      <point x="132.667" y="540"/>
      <point x="205" y="577"/>
      <point x="303" y="577" type="curve" smooth="yes"/>
      <point x="463.151" y="577"/>
      <point x="575" y="443"/>
      <point x="575" y="274" type="curve" smooth="yes"/>
      <point x="575" y="114"/>
      <point x="478" y="0"/>
      <point x="295" y="0" type="curve" smooth="yes"/>
      <point x="174" y="0"/>
      <point x="64" y="46"/>
    </contour>
    <contour>
      <point x="14" y="270" type="curve"/>
      <point x="14" y="302" type="line"/>
      <point x="285" y="302" type="line"/>
      <point x="315" y="277" type="line"/>
      <point x="148" y="277" type="line" smooth="yes"/>
      <point x="77" y="276"/>
      <point x="30" y="272.667"/>
    </contour>
  </outline>
</glyph>
<glyph name="si_CUu" format="1">
  <advance width="597"/>
  <outline>
    <contour>
      <point x="70.5" y="-138" type="curve" smooth="yes"/>
      <point x="70.5" y="-80"/>
      <point x="119.5" y="-40"/>
      <point x="172.5" y="-40" type="curve" smooth="yes"/>
      <point x="214.5" y="-40"/>
      <point x="246.833" y="-55"/>
      <point x="269.5" y="-91" type="curve"/>
      <point x="239.5" y="-102" type="line"/>
      <point x="227.5" y="-83"/>
      <point x="206.5" y="-68"/>
      <point x="177.5" y="-68" type="curve" smooth="yes"/>
      <point x="138.5" y="-68"/>
      <point x="106.5" y="-92"/>
      <point x="106.5" y="-129" type="curve" smooth="yes"/>
      <point x="106.5" y="-166.366"/>
      <point x="137.5" y="-191"/>
      <point x="180.5" y="-191" type="curve" smooth="yes"/>
      <point x="264.5" y="-191"/>
      <point x="328" y="-117"/>
      <point x="423" y="-117" type="curve" smooth="yes"/>
      <point x="470.594" y="-117"/>
      <point x="506" y="-136"/>
      <point x="533" y="-168" type="curve"/>
      <point x="533" y="152" type="line"/>
      <point x="566" y="212" type="line"/>
      <point x="566" y="-231" type="line"/>
      <point x="543" y="-231" type="line"/>
      <point x="528" y="-195"/>
      <point x="490.875" y="-144"/>
      <point x="426" y="-144" type="curve" smooth="yes"/>
      <point x="335" y="-144"/>
      <point x="279.5" y="-237"/>
      <point x="181.5" y="-237" type="curve" smooth="yes"/>
      <point x="126.5" y="-237"/>
      <point x="70.5" y="-206"/>
    </contour>
    <contour>
      <point x="64" y="165" type="curve" smooth="yes"/>
      <point x="64" y="195.721"/>
      <point x="73.7754" y="227.831"/>
      <point x="97" y="248" type="curve" smooth="yes"/>
      <point x="113.127" y="262.005"/>
      <point x="132" y="273"/>
      <point x="158" y="278" type="curve"/>
      <point x="191.761" y="290.199"/>
      <point x="232.875" y="302"/>
      <point x="270" y="302" type="curve" smooth="yes"/>
      <point x="287" y="302" type="line"/>
      <point x="287.082" y="304.041"/>
      <point x="287.086" y="306.041"/>
      <point x="287.086" y="308" type="curve" smooth="yes"/>
      <point x="287.086" y="362"/>
      <point x="253" y="395"/>
      <point x="216" y="395" type="curve" smooth="yes"/>
      <point x="171" y="395"/>
      <point x="163" y="371"/>
      <point x="157.5" y="355" type="curve" smooth="yes"/>
      <point x="150.951" y="335.948"/>
      <point x="140.871" y="323"/>
      <point x="119" y="323" type="curve" smooth="yes"/>
      <point x="103" y="323"/>
      <point x="83" y="333.368"/>
      <point x="83" y="359" type="curve" smooth="yes"/>
      <point x="83" y="406"/>
      <point x="133" y="431.5"/>
      <point x="188" y="431.5" type="curve" smooth="yes"/>
      <point x="276" y="431.5"/>
      <point x="319.146" y="376"/>
      <point x="319.146" y="290" type="curve" smooth="yes"/>
      <point x="319.146" y="286.722"/>
      <point x="319.101" y="280.388"/>
      <point x="319" y="277" type="curve"/>
      <point x="250" y="277" type="line" smooth="yes"/>
      <point x="205.56" y="277"/>
      <point x="166.117" y="264.814"/>
      <point x="141" y="249" type="curve" smooth="yes"/>
      <point x="114" y="232"/>
      <point x="101" y="206.051"/>
      <point x="101" y="180" type="curve" smooth="yes"/>
      <point x="101" y="94"/>
      <point x="208" y="71"/>
      <point x="298" y="71" type="curve" smooth="yes"/>
      <point x="451" y="71"/>
      <point x="541" y="158"/>
      <point x="541" y="300" type="curve" smooth="yes"/>
      <point x="541" y="442"/>
      <point x="437.498" y="553"/>
      <point x="303" y="553" type="curve" smooth="yes"/>
      <point x="223.667" y="553"/>
      <point x="160.667" y="524.667"/>
      <point x="116" y="470" type="curve"/>
      <point x="84" y="470" type="line"/>
      <point x="132.667" y="540"/>
      <point x="205" y="577"/>
      <point x="303" y="577" type="curve" smooth="yes"/>
      <point x="463.151" y="577"/>
      <point x="575" y="443"/>
      <point x="575" y="274" type="curve" smooth="yes"/>
      <point x="575" y="114"/>
      <point x="478" y="0"/>
      <point x="295" y="0" type="curve" smooth="yes"/>
      <point x="174" y="0"/>
      <point x="64" y="46"/>
    </contour>
    <contour>
      <point x="14" y="270" type="curve"/>
      <point x="14" y="302" type="line"/>
      <point x="285" y="302" type="line"/>
      <point x="315" y="277" type="line"/>
      <point x="148" y="277" type="line" smooth="yes"/>
      <point x="77" y="276"/>
      <point x="30" y="272.667"/>
    </contour>
  </outline>
</glyph>
<glyph name="si_Ca.reph" format="1">
  <advance width="597"/>
  <outline>
    <contour>
      <point x="273.586" y="627.5" type="curve" smooth="yes"/>
      <point x="273.586" y="606.946"/>
      <point x="292.184" y="590.307"/>
      <point x="314.5" y="590.307" type="curve" smooth="yes"/>
      <point x="336.816" y="590.307"/>
      <point x="355.414" y="606.946"/>
      <point x="355.414" y="627.5" type="curve" smooth="yes"/>
      <point x="355.414" y="648.054"/>
      <point x="336.816" y="664.693"/>
      <point x="314.5" y="664.693" type="curve" smooth="yes"/>
      <point x="292.184" y="664.693"/>
      <point x="273.586" y="648.054"/>
    </contour>
    <contour>
      <point x="171.5" y="646.5" type="curve" smooth="yes"/>
      <point x="171.5" y="710.5"/>
      <point x="229.62" y="747.5"/>
      <point x="311.5" y="747.5" type="curve" smooth="yes"/>
      <point x="388.5" y="747.5"/>
      <point x="452.5" y="704.5"/>
      <point x="452.5" y="633.5" type="curve" smooth="yes"/>
      <point x="452.5" y="609.5"/>
      <point x="444.167" y="587.833"/>
      <point x="427.5" y="568.5" type="curve"/>
      <point x="393.75" y="568.5" type="line"/>
      <point x="406.92" y="580.887"/>
      <point x="422.25" y="605.234"/>
      <point x="422.25" y="632.5" type="curve" smooth="yes"/>
      <point x="422.25" y="689.741"/>
      <point x="371.5" y="720.25"/>
      <point x="310.5" y="720.25" type="curve" smooth="yes"/>
      <point x="257.722" y="720.25"/>
      <point x="202.75" y="699.056"/>
      <point x="202.75" y="646.5" type="curve" smooth="yes"/>
      <point x="202.75" y="607.425"/>
      <point x="243.804" y="588.716"/>
      <point x="267" y="586.75" type="curve"/>
      <point x="259" y="592.75"/>
      <point x="246.5" y="607.5"/>
      <point x="246.5" y="628.5" type="curve" smooth="yes"/>
      <point x="246.5" y="663.5"/>
      <point x="277.854" y="688.5"/>
      <point x="313.5" y="688.5" type="curve" smooth="yes"/>
      <point x="354.5" y="688.5"/>
      <point x="382.5" y="661.5"/>
      <point x="382.5" y="626.5" type="curve" smooth="yes"/>
      <point x="382.5" y="587.5"/>
      <point x="347.5" y="561.5"/>
      <point x="289.5" y="561.5" type="curve" smooth="yes"/>
      <point x="230.5" y="561.5"/>
      <point x="171.5" y="590.5"/>
    </contour>
    <component base="uni0DA0"/>
  </outline>
</glyph>
<glyph name="si_D.halant" format="1">
  <advance width="456"/>
  <outline>
    <contour>
      <point x="264.5" y="412.75" type="line"/>
      <point x="291.5" y="395.75" type="line"/>
      <point x="291.5" y="477" type="line"/>
      <point x="306.833" y="470.333"/>
      <point x="321.833" y="467"/>
      <point x="336.5" y="467" type="curve" smooth="yes"/>
      <point x="379.691" y="467"/>
      <point x="414.5" y="497"/>
      <point x="414.5" y="541" type="curve" smooth="yes"/>
      <point x="414.5" y="633"/>
      <point x="318.5" y="638"/>
      <point x="264.5" y="680" type="curve"/>
    </contour>
    <contour>
      <point x="291.5" y="502" type="curve"/>
      <point x="291.5" y="637" type="line"/>
      <point x="338.5" y="606"/>
      <point x="377.5" y="586"/>
      <point x="377.5" y="544" type="curve" smooth="yes"/>
      <point x="377.5" y="520"/>
      <point x="362.5" y="495"/>
      <point x="324.5" y="495" type="curve" smooth="yes"/>
      <point x="311.167" y="495"/>
      <point x="300.167" y="497.333"/>
    </contour>
    <component base="uni0DAF"/>
  </outline>
</glyph>
<glyph name="si_DAa" format="1">
  <advance width="719"/>
  <outline>
    <contour>
      <point x="424.25" y="110.1" type="curve" smooth="yes"/>
      <point x="424.25" y="117.507"/>
      <point x="424.583" y="124.914"/>
      <point x="425.25" y="132.32" type="curve"/>
      <point x="452.25" y="132.32" type="line"/>
      <point x="451.583" y="127.606"/>
      <point x="451.25" y="122.557"/>
      <point x="451.25" y="117.17" type="curve" smooth="yes"/>
      <point x="451.25" y="68.6904"/>
      <point x="475.25" y="36"/>
      <point x="520.25" y="36.4004" type="curve" smooth="yes"/>
      <point x="579.248" y="36.9258"/>
      <point x="606.25" y="90.54"/>
      <point x="606.25" y="201" type="curve" smooth="yes"/>
      <point x="606.25" y="311.46"/>
      <point x="579.25" y="365.6"/>
      <point x="520.25" y="365.6" type="curve" smooth="yes"/>
      <point x="482.25" y="365.6"/>
      <point x="451.25" y="333.31"/>
      <point x="451.25" y="284.83" type="curve" smooth="yes"/>
      <point x="451.25" y="279.443"/>
      <point x="451.583" y="274.394"/>
      <point x="452.25" y="269.68" type="curve"/>
      <point x="425.25" y="269.68" type="line"/>
      <point x="424.583" y="277.086"/>
      <point x="424.25" y="284.494"/>
      <point x="424.25" y="291.9" type="curve" smooth="yes"/>
      <point x="424.25" y="360.729"/>
      <point x="476.25" y="403"/>
      <point x="535.25" y="403" type="curve" smooth="yes"/>
      <point x="626.25" y="403"/>
      <point x="672.25" y="329.27"/>
      <point x="672.25" y="201" type="curve" smooth="yes"/>
      <point x="672.25" y="72.7305"/>
      <point x="626.25" y="-1"/>
      <point x="535.25" y="-1" type="curve" smooth="yes"/>
      <point x="467.838" y="-1"/>
      <point x="424.25" y="41.2715"/>
    </contour>
    <contour>
      <point x="31" y="169" type="curve" smooth="yes"/>
      <point x="31" y="274"/>
      <point x="104" y="317"/>
      <point x="223" y="317" type="curve" smooth="yes"/>
      <point x="343" y="317" type="line"/>
      <point x="333.277" y="363.186"/>
      <point x="304" y="396"/>
      <point x="260" y="396" type="curve" smooth="yes"/>
      <point x="241" y="396"/>
      <point x="225.048" y="383.911"/>
      <point x="216.5" y="366" type="curve" smooth="yes"/>
      <point x="206" y="344"/>
      <point x="189.802" y="336"/>
      <point x="175" y="336" type="curve" smooth="yes"/>
      <point x="150" y="336"/>
      <point x="137" y="351"/>
      <point x="137" y="372" type="curve" smooth="yes"/>
      <point x="137" y="408.283"/>
      <point x="177" y="433"/>
      <point x="232" y="433" type="curve" smooth="yes"/>
      <point x="317.739" y="433"/>
      <point x="360.904" y="389.003"/>
      <point x="379" y="294" type="curve"/>
      <point x="242" y="294" type="line" smooth="yes"/>
      <point x="154" y="294"/>
      <point x="108" y="257"/>
      <point x="108" y="173" type="curve" smooth="yes"/>
      <point x="108" y="89"/>
      <point x="178" y="27"/>
      <point x="261" y="27" type="curve" smooth="yes"/>
      <point x="307.077" y="27"/>
      <point x="344" y="46"/>
      <point x="384" y="92" type="curve"/>
      <point x="407" y="75" type="line"/>
      <point x="376.46" y="39.3701"/>
      <point x="306" y="-28"/>
      <point x="306" y="-104" type="curve" smooth="yes"/>
      <point x="306" y="-170.098"/>
      <point x="345.218" y="-195.118"/>
      <point x="409" y="-210" type="curve"/>
      <point x="409" y="-238" type="line"/>
      <point x="395" y="-240.667"/>
      <point x="377" y="-242"/>
      <point x="355" y="-242" type="curve" smooth="yes"/>
      <point x="284.434" y="-240.04"/>
      <point x="249" y="-199.019"/>
      <point x="249" y="-142" type="curve" smooth="yes"/>
      <point x="249" y="-103.333"/>
      <point x="272.333" y="-52.6667"/>
      <point x="319" y="10" type="curve"/>
      <point x="284" y="0"/>
      <point x="261.333" y="-1"/>
      <point x="234" y="-1" type="curve" smooth="yes"/>
      <point x="103" y="-1"/>
      <point x="31" y="69"/>
    </contour>
  </outline>
</glyph>
<glyph name="si_DAae" format="1">
  <advance width="738"/>
  <outline>
    <contour>
      <point x="408" y="315" type="line"/>
      <point x="408" y="339" type="line"/>
      <point x="653" y="339" type="line"/>
      <point x="653" y="317" type="line"/>
      <point x="526" y="223" type="line"/>
      <point x="676" y="223" type="line"/>
      <point x="676" y="201" type="line"/>
      <point x="630" y="168"/>
      <point x="563" y="96"/>
      <point x="563" y="13" type="curve" smooth="yes"/>
      <point x="563" y="-74"/>
      <point x="621.188" y="-106"/>
      <point x="710" y="-106" type="curve"/>
      <point x="710" y="-131" type="line"/>
      <point x="684.667" y="-142.333"/>
      <point x="658.333" y="-148"/>
      <point x="633" y="-148" type="curve" smooth="yes"/>
      <point x="542.408" y="-148"/>
      <point x="494" y="-91.2393"/>
      <point x="494" y="-12" type="curve" smooth="yes"/>
      <point x="494" y="78"/>
      <point x="573.631" y="155.42"/>
      <point x="639" y="199" type="curve"/>
      <point x="476" y="199" type="line"/>
      <point x="476" y="218" type="line"/>
      <point x="609" y="315" type="line"/>
    </contour>
    <contour>
      <point x="31" y="169" type="curve" smooth="yes"/>
      <point x="31" y="274"/>
      <point x="104" y="317"/>
      <point x="223" y="317" type="curve" smooth="yes"/>
      <point x="343" y="317" type="line"/>
      <point x="333.277" y="363.186"/>
      <point x="304" y="396"/>
      <point x="260" y="396" type="curve" smooth="yes"/>
      <point x="241" y="396"/>
      <point x="225.048" y="383.911"/>
      <point x="216.5" y="366" type="curve" smooth="yes"/>
      <point x="206" y="344"/>
      <point x="189.802" y="336"/>
      <point x="175" y="336" type="curve" smooth="yes"/>
      <point x="150" y="336"/>
      <point x="137" y="351"/>
      <point x="137" y="372" type="curve" smooth="yes"/>
      <point x="137" y="408.283"/>
      <point x="177" y="433"/>
      <point x="232" y="433" type="curve" smooth="yes"/>
      <point x="317.739" y="433"/>
      <point x="360.904" y="389.003"/>
      <point x="379" y="294" type="curve"/>
      <point x="242" y="294" type="line" smooth="yes"/>
      <point x="154" y="294"/>
      <point x="108" y="257"/>
      <point x="108" y="173" type="curve" smooth="yes"/>
      <point x="108" y="89"/>
      <point x="178" y="27"/>
      <point x="261" y="27" type="curve" smooth="yes"/>
      <point x="307.077" y="27"/>
      <point x="344" y="46"/>
      <point x="384" y="92" type="curve"/>
      <point x="407" y="75" type="line"/>
      <point x="376.46" y="39.3701"/>
      <point x="306" y="-28"/>
      <point x="306" y="-104" type="curve" smooth="yes"/>
      <point x="306" y="-170.098"/>
      <point x="345.218" y="-195.118"/>
      <point x="409" y="-210" type="curve"/>
      <point x="409" y="-238" type="line"/>
      <point x="395" y="-240.667"/>
      <point x="377" y="-242"/>
      <point x="355" y="-242" type="curve" smooth="yes"/>
      <point x="284.434" y="-240.04"/>
      <point x="249" y="-199.019"/>
      <point x="249" y="-142" type="curve" smooth="yes"/>
      <point x="249" y="-103.333"/>
      <point x="272.333" y="-52.6667"/>
      <point x="319" y="10" type="curve"/>
      <point x="284" y="0"/>
      <point x="261.333" y="-1"/>
      <point x="234" y="-1" type="curve" smooth="yes"/>
      <point x="103" y="-1"/>
      <point x="31" y="69"/>
    </contour>
  </outline>
</glyph>
<glyph name="si_DAe" format="1">
  <advance width="456"/>
  <outline>
    <contour>
      <point x="239.25" y="-1" type="curve" smooth="yes"/>
      <point x="101.683" y="-1"/>
      <point x="31" y="69"/>
      <point x="31" y="169" type="curve" smooth="yes"/>
      <point x="31" y="274"/>
      <point x="104" y="317"/>
      <point x="223" y="317" type="curve" smooth="yes"/>
      <point x="343" y="317" type="line"/>
      <point x="333.277" y="363.186"/>
      <point x="304" y="396"/>
      <point x="260" y="396" type="curve" smooth="yes"/>
      <point x="241" y="396"/>
      <point x="225.048" y="383.911"/>
      <point x="216.5" y="366" type="curve" smooth="yes"/>
      <point x="206" y="344"/>
      <point x="189.802" y="336"/>
      <point x="175" y="336" type="curve" smooth="yes"/>
      <point x="150" y="336"/>
      <point x="137" y="351"/>
      <point x="137" y="372" type="curve" smooth="yes"/>
      <point x="137" y="408.283"/>
      <point x="177" y="433"/>
      <point x="232" y="433" type="curve" smooth="yes"/>
      <point x="317.739" y="433"/>
      <point x="360.904" y="389.003"/>
      <point x="379" y="294" type="curve"/>
      <point x="242" y="294" type="line" smooth="yes"/>
      <point x="154" y="294"/>
      <point x="108" y="257"/>
      <point x="108" y="173" type="curve" smooth="yes"/>
      <point x="108" y="89"/>
      <point x="174.598" y="26"/>
      <point x="259.25" y="26" type="curve" smooth="yes"/>
      <point x="309.703" y="26"/>
      <point x="344" y="46"/>
      <point x="384" y="92" type="curve"/>
      <point x="407" y="75" type="line"/>
      <point x="379.742" y="45.016"/>
      <point x="370" y="6.1579"/>
      <point x="370" y="-59" type="curve" smooth="yes"/>
      <point x="370" y="-126.798"/>
      <point x="397.111" y="-204.25"/>
      <point x="432" y="-204.25" type="curve"/>
      <point x="432" y="-228.5" type="line"/>
      <point x="429.328" y="-229.383"/>
      <point x="424.947" y="-229.75"/>
      <point x="421" y="-229.75" type="curve" smooth="yes"/>
      <point x="364.651" y="-229.75"/>
      <point x="322" y="-177.437"/>
      <point x="322" y="-104" type="curve" smooth="yes"/>
      <point x="322" y="-49.1621"/>
      <point x="345.945" y="5.75547"/>
      <point x="356" y="31" type="curve"/>
      <point x="290.903" y="-8.52324"/>
      <point x="245" y="-51.416"/>
      <point x="245" y="-116" type="curve" smooth="yes"/>
      <point x="245" y="-175.113"/>
      <point x="279.753" y="-200.126"/>
      <point x="315" y="-206" type="curve"/>
      <point x="315" y="-228.25" type="line"/>
      <point x="311.208" y="-229.427"/>
      <point x="300.885" y="-230.25"/>
      <point x="296" y="-230.25" type="curve" smooth="yes"/>
      <point x="233.773" y="-230.25"/>
      <point x="186" y="-197.723"/>
      <point x="186" y="-132" type="curve" smooth="yes"/>
      <point x="186" y="-78.6526"/>
      <point x="224.958" y="-41.1085"/>
      <point x="272" y="1" type="curve"/>
      <point x="258.825" y="-0.908017"/>
      <point x="244.95" y="-1"/>
    </contour>
  </outline>
</glyph>
<glyph name="si_DDdh.halant" format="1">
  <advance width="729"/>
  <outline>
    <contour>
      <point x="231.25" y="543" type="curve" smooth="yes"/>
      <point x="231.25" y="531"/>
      <point x="255.25" y="526"/>
      <point x="255.25" y="515" type="curve" smooth="yes"/>
      <point x="255.25" y="513"/>
      <point x="254.25" y="510"/>
      <point x="252.25" y="508" type="curve"/>
      <point x="285.25" y="514"/>
      <point x="324.925" y="519"/>
      <point x="371.25" y="519" type="curve" smooth="yes"/>
      <point x="479.25" y="519"/>
      <point x="564.25" y="490"/>
      <point x="622.25" y="422" type="curve"/>
      <point x="589.25" y="537"/>
      <point x="492.25" y="590"/>
      <point x="376.25" y="590" type="curve" smooth="yes"/>
      <point x="304.25" y="590"/>
      <point x="231.25" y="567"/>
    </contour>
    <contour>
      <point x="125.25" y="195" type="curve" smooth="yes"/>
      <point x="125.25" y="288"/>
      <point x="178.498" y="363.669"/>
      <point x="244.25" y="387" type="curve" smooth="yes"/>
      <point x="264.917" y="394.333"/>
      <point x="287.917" y="398"/>
      <point x="313.25" y="398" type="curve"/>
      <point x="313.25" y="373" type="line" smooth="yes"/>
      <point x="309.901" y="373.289"/>
      <point x="306.566" y="373.437"/>
      <point x="303.25" y="373.437" type="curve" smooth="yes"/>
      <point x="224.25" y="373.437"/>
      <point x="159.25" y="301"/>
      <point x="159.25" y="212" type="curve" smooth="yes"/>
      <point x="159.25" y="135.558"/>
      <point x="206.817" y="71"/>
      <point x="280.25" y="71" type="curve" smooth="yes"/>
      <point x="331.161" y="71"/>
      <point x="382.25" y="92"/>
      <point x="382.25" y="156" type="curve" smooth="yes"/>
      <point x="382.25" y="196" type="line"/>
      <point x="410.25" y="196" type="line"/>
      <point x="410.25" y="156" type="line" smooth="yes"/>
      <point x="410.25" y="92"/>
      <point x="460.08" y="71"/>
      <point x="509.25" y="71" type="curve" smooth="yes"/>
      <point x="609.456" y="71"/>
      <point x="645.826" y="187.905"/>
      <point x="645.826" y="265.5" type="curve" smooth="yes"/>
      <point x="645.826" y="412.094"/>
      <point x="535.25" y="493.75"/>
      <point x="374.25" y="493.75" type="curve" smooth="yes"/>
      <point x="298.25" y="493.75"/>
      <point x="212.122" y="476.381"/>
      <point x="134.25" y="453.75" type="curve"/>
      <point x="134.25" y="484.75" type="line"/>
      <point x="163.124" y="490.996"/>
      <point x="218.25" y="499"/>
      <point x="218.25" y="508" type="curve" smooth="yes"/>
      <point x="218.25" y="520"/>
      <point x="190.25" y="524"/>
      <point x="190.25" y="546" type="curve" smooth="yes"/>
      <point x="190.25" y="583"/>
      <point x="255.25" y="629"/>
      <point x="370.25" y="629" type="curve" smooth="yes"/>
      <point x="578.25" y="629"/>
      <point x="652.25" y="490"/>
      <point x="664.25" y="356" type="curve"/>
      <point x="673.416" y="331.008"/>
      <point x="681.75" y="287.347"/>
      <point x="681.75" y="245" type="curve" smooth="yes"/>
      <point x="681.75" y="134.355"/>
      <point x="639.783" y="0"/>
      <point x="514.25" y="0" type="curve" smooth="yes"/>
      <point x="464.917" y="0"/>
      <point x="425.25" y="19.667"/>
      <point x="395.25" y="59" type="curve"/>
      <point x="364.583" y="20.333"/>
      <point x="326.922" y="0"/>
      <point x="282.25" y="0" type="curve" smooth="yes"/>
      <point x="180.25" y="0"/>
      <point x="125.25" y="96"/>
    </contour>
    <contour>
      <point x="27" y="211.5" type="curve" smooth="yes"/>
      <point x="27" y="343.2"/>
      <point x="101.731" y="433"/>
      <point x="220.25" y="433" type="curve" smooth="yes"/>
      <point x="246.319" y="433"/>
      <point x="288.876" y="427.134"/>
      <point x="313.25" y="398" type="curve"/>
      <point x="300.255" y="396.265"/>
      <point x="278.707" y="394.113"/>
      <point x="274.75" y="394" type="curve"/>
      <point x="267.182" y="402.054"/>
      <point x="243.838" y="406.75"/>
      <point x="225.5" y="406.75" type="curve" smooth="yes"/>
      <point x="91.6787" y="406.75"/>
      <point x="56" y="295.411"/>
      <point x="56" y="208.5" type="curve" smooth="yes"/>
      <point x="56" y="131.217"/>
      <point x="83" y="75.333"/>
      <point x="135" y="30" type="curve"/>
      <point x="135" y="0" type="line"/>
      <point x="68.5828" y="33.2086"/>
      <point x="27" y="110.57"/>
    </contour>
  </outline>
</glyph>
<glyph name="si_DDhI" format="1">
  <advance width="729"/>
  <outline>
    <contour>
      <point x="125.25" y="195" type="curve" smooth="yes"/>
      <point x="125.25" y="288"/>
      <point x="178.498" y="363.669"/>
      <point x="244.25" y="387" type="curve" smooth="yes"/>
      <point x="264.917" y="394.333"/>
      <point x="287.917" y="398"/>
      <point x="313.25" y="398" type="curve"/>
      <point x="313.25" y="373" type="line" smooth="yes"/>
      <point x="309.901" y="373.289"/>
      <point x="306.566" y="373.437"/>
      <point x="303.25" y="373.437" type="curve" smooth="yes"/>
      <point x="224.25" y="373.437"/>
      <point x="159.25" y="300.392"/>
      <point x="159.25" y="208.25" type="curve" smooth="yes"/>
      <point x="159.25" y="131.808"/>
      <point x="206.817" y="71"/>
      <point x="280.25" y="71" type="curve" smooth="yes"/>
      <point x="331.161" y="71"/>
      <point x="382.25" y="92"/>
      <point x="382.25" y="156" type="curve" smooth="yes"/>
      <point x="382.25" y="196" type="line"/>
      <point x="410.25" y="196" type="line"/>
      <point x="410.25" y="156" type="line" smooth="yes"/>
      <point x="410.25" y="92"/>
      <point x="460.08" y="71"/>
      <point x="509.25" y="71" type="curve" smooth="yes"/>
      <point x="591.439" y="71"/>
      <point x="645.216" y="158.811"/>
      <point x="645.216" y="262.977" type="curve" smooth="yes"/>
      <point x="645.216" y="302.289"/>
      <point x="636.218" y="371.494"/>
      <point x="597.25" y="414" type="curve" smooth="yes"/>
      <point x="544.156" y="471.914"/>
      <point x="478.269" y="472.325"/>
      <point x="377.25" y="478" type="curve" smooth="yes"/>
      <point x="288.25" y="483"/>
      <point x="167.25" y="476"/>
      <point x="167.25" y="562" type="curve" smooth="yes"/>
      <point x="167.25" y="652"/>
      <point x="298.25" y="670"/>
      <point x="398.25" y="670" type="curve" smooth="yes"/>
      <point x="534.25" y="670"/>
      <point x="644.25" y="639"/>
      <point x="644.25" y="554" type="curve" smooth="yes"/>
      <point x="644.25" y="504.811"/>
      <point x="595.93" y="482.466"/>
      <point x="561.927" y="475.115" type="curve"/>
      <point x="572.146" y="470.562"/>
      <point x="581.674" y="465.237"/>
      <point x="590.25" y="459" type="curve" smooth="yes"/>
      <point x="638.475" y="423.928"/>
      <point x="680.158" y="352.624"/>
      <point x="681.75" y="248" type="curve" smooth="yes"/>
      <point x="681.75" y="135.788"/>
      <point x="639.455" y="0"/>
      <point x="514.25" y="0" type="curve" smooth="yes"/>
      <point x="464.917" y="0"/>
      <point x="425.25" y="19.667"/>
      <point x="395.25" y="59" type="curve"/>
      <point x="364.583" y="20.333"/>
      <point x="326.922" y="0"/>
      <point x="282.25" y="0" type="curve" smooth="yes"/>
      <point x="180.25" y="0"/>
      <point x="125.25" y="96"/>
    </contour>
    <contour>
      <point x="209.25" y="554" type="curve" smooth="yes"/>
      <point x="209.25" y="508"/>
      <point x="274.25" y="508"/>
      <point x="376.25" y="504" type="curve" smooth="yes"/>
      <point x="416.431" y="502.424"/>
      <point x="467.837" y="500.882"/>
      <point x="514.218" y="490.431" type="curve"/>
      <point x="549.817" y="493.257"/>
      <point x="597.25" y="508.711"/>
      <point x="597.25" y="544" type="curve" smooth="yes"/>
      <point x="597.25" y="600.273"/>
      <point x="506.25" y="611"/>
      <point x="398.25" y="611" type="curve" smooth="yes"/>
      <point x="322.594" y="611"/>
      <point x="209.25" y="605.886"/>
    </contour>
    <contour>
      <point x="27" y="211.5" type="curve" smooth="yes"/>
      <point x="27" y="343.2"/>
      <point x="101.731" y="433"/>
      <point x="220.25" y="433" type="curve" smooth="yes"/>
      <point x="246.319" y="433"/>
      <point x="288.876" y="427.134"/>
      <point x="313.25" y="398" type="curve"/>
      <point x="300.255" y="396.265"/>
      <point x="278.707" y="394.113"/>
      <point x="274.75" y="394" type="curve"/>
      <point x="267.182" y="402.054"/>
      <point x="243.838" y="406.75"/>
      <point x="225.5" y="406.75" type="curve" smooth="yes"/>
      <point x="91.6787" y="406.75"/>
      <point x="56" y="295.411"/>
      <point x="56" y="208.5" type="curve" smooth="yes"/>
      <point x="56" y="131.217"/>
      <point x="83" y="75.333"/>
      <point x="135" y="30" type="curve"/>
      <point x="135" y="0" type="line"/>
      <point x="68.5828" y="33.2086"/>
      <point x="27" y="110.57"/>
    </contour>
  </outline>
</glyph>
<glyph name="si_DDha" format="1">
  <advance width="729"/>
  <outline>
    <contour>
      <point x="125.25" y="195" type="curve" smooth="yes"/>
      <point x="125.25" y="288"/>
      <point x="178.498" y="363.669"/>
      <point x="244.25" y="387" type="curve" smooth="yes"/>
      <point x="264.917" y="394.333"/>
      <point x="287.917" y="398"/>
      <point x="313.25" y="398" type="curve"/>
      <point x="313.25" y="373" type="line"/>
      <point x="309.901" y="373.289"/>
      <point x="306.566" y="373.437"/>
      <point x="303.25" y="373.437" type="curve" smooth="yes"/>
      <point x="224.25" y="373.437"/>
      <point x="159.25" y="301"/>
      <point x="159.25" y="212" type="curve" smooth="yes"/>
      <point x="159.25" y="135.558"/>
      <point x="206.817" y="71"/>
      <point x="280.25" y="71" type="curve" smooth="yes"/>
      <point x="331.161" y="71"/>
      <point x="382.25" y="92"/>
      <point x="382.25" y="156" type="curve" smooth="yes"/>
      <point x="382.25" y="196" type="line"/>
      <point x="410.25" y="196" type="line"/>
      <point x="410.25" y="156" type="line" smooth="yes"/>
      <point x="410.25" y="92"/>
      <point x="460.08" y="71"/>
      <point x="509.25" y="71" type="curve" smooth="yes"/>
      <point x="604.96" y="71"/>
      <point x="647.25" y="181"/>
      <point x="647.25" y="284" type="curve" smooth="yes"/>
      <point x="647.25" y="442"/>
      <point x="533.158" y="556"/>
      <point x="386.25" y="556" type="curve" smooth="yes"/>
      <point x="305.583" y="556"/>
      <point x="241.917" y="527.333"/>
      <point x="189.25" y="468" type="curve"/>
      <point x="157.25" y="468" type="line"/>
      <point x="213.917" y="542.667"/>
      <point x="291.917" y="580"/>
      <point x="391.25" y="580" type="curve" smooth="yes"/>
      <point x="554.25" y="580"/>
      <point x="681.25" y="446"/>
      <point x="681.25" y="261" type="curve" smooth="yes"/>
      <point x="681.25" y="139"/>
      <point x="640.126" y="0"/>
      <point x="514.25" y="0" type="curve" smooth="yes"/>
      <point x="464.917" y="0"/>
      <point x="425.25" y="19.667"/>
      <point x="395.25" y="59" type="curve"/>
      <point x="364.583" y="20.333"/>
      <point x="326.922" y="0"/>
      <point x="282.25" y="0" type="curve" smooth="yes"/>
      <point x="180.25" y="0"/>
      <point x="125.25" y="96"/>
    </contour>
    <contour>
      <point x="27" y="211.5" type="curve" smooth="yes"/>
      <point x="27" y="343.2"/>
      <point x="101.731" y="433"/>
      <point x="220.25" y="433" type="curve" smooth="yes"/>
      <point x="246.319" y="433"/>
      <point x="288.876" y="427.134"/>
      <point x="313.25" y="398" type="curve"/>
      <point x="300.255" y="396.265"/>
      <point x="278.707" y="394.113"/>
      <point x="274.75" y="394" type="curve"/>
      <point x="267.182" y="402.054"/>
      <point x="243.838" y="406.75"/>
      <point x="225.5" y="406.75" type="curve" smooth="yes"/>
      <point x="91.6787" y="406.75"/>
      <point x="56" y="295.411"/>
      <point x="56" y="208.5" type="curve" smooth="yes"/>
      <point x="56" y="131.217"/>
      <point x="83" y="75.333"/>
      <point x="135" y="30" type="curve"/>
      <point x="135" y="0" type="line"/>
      <point x="68.5828" y="33.2086"/>
      <point x="27" y="110.57"/>
    </contour>
  </outline>
</glyph>
<glyph name="si_DI" format="1">
  <advance width="456"/>
  <outline>
    <contour>
      <point x="35.0801" y="518" type="curve" smooth="yes"/>
      <point x="35.0801" y="618.565"/>
      <point x="126.303" y="671"/>
      <point x="223" y="671" type="curve" smooth="yes"/>
      <point x="319.697" y="671"/>
      <point x="410.92" y="617.064"/>
      <point x="410.92" y="518" type="curve" smooth="yes"/>
      <point x="410.92" y="443.457"/>
      <point x="347.584" y="406.19"/>
      <point x="295.09" y="405" type="curve"/>
      <point x="283.09" y="426" type="line"/>
      <point x="337.176" y="426.005"/>
      <point x="380.63" y="461.523"/>
      <point x="380.63" y="509" type="curve" smooth="yes"/>
      <point x="380.63" y="570.685"/>
      <point x="295.016" y="598"/>
      <point x="223" y="598" type="curve" smooth="yes"/>
      <point x="150.984" y="598"/>
      <point x="66.1201" y="573.424"/>
      <point x="66.1201" y="509" type="curve" smooth="yes"/>
      <point x="66.1201" y="460.729"/>
      <point x="108.769" y="425"/>
      <point x="194" y="425" type="curve"/>
      <point x="150.91" y="405" type="line"/>
      <point x="84.9511" y="414.727"/>
      <point x="35.0801" y="450.955"/>
    </contour>
    <contour>
      <point x="31" y="169" type="curve" smooth="yes"/>
      <point x="31" y="274"/>
      <point x="104" y="317"/>
      <point x="223" y="317" type="curve" smooth="yes"/>
      <point x="343" y="317" type="line"/>
      <point x="333.277" y="363.186"/>
      <point x="304" y="396"/>
      <point x="260" y="396" type="curve" smooth="yes"/>
      <point x="241" y="396"/>
      <point x="225.048" y="383.911"/>
      <point x="216.5" y="366" type="curve" smooth="yes"/>
      <point x="206" y="344"/>
      <point x="189.802" y="336"/>
      <point x="175" y="336" type="curve" smooth="yes"/>
      <point x="150" y="336"/>
      <point x="137" y="351"/>
      <point x="137" y="372" type="curve" smooth="yes"/>
      <point x="137" y="408.283"/>
      <point x="177" y="433"/>
      <point x="232" y="433" type="curve" smooth="yes"/>
      <point x="317.739" y="433"/>
      <point x="360.904" y="389.003"/>
      <point x="379" y="294" type="curve"/>
      <point x="242" y="294" type="line" smooth="yes"/>
      <point x="154" y="294"/>
      <point x="108" y="257"/>
      <point x="108" y="173" type="curve" smooth="yes"/>
      <point x="108" y="89"/>
      <point x="178" y="27"/>
      <point x="261" y="27" type="curve" smooth="yes"/>
      <point x="307.077" y="27"/>
      <point x="344" y="46"/>
      <point x="384" y="92" type="curve"/>
      <point x="407" y="75" type="line"/>
      <point x="376.46" y="39.3701"/>
      <point x="306" y="-28"/>
      <point x="306" y="-104" type="curve" smooth="yes"/>
      <point x="306" y="-170.098"/>
      <point x="345.218" y="-195.118"/>
      <point x="409" y="-210" type="curve"/>
      <point x="409" y="-238" type="line"/>
      <point x="395" y="-240.667"/>
      <point x="377" y="-242"/>
      <point x="355" y="-242" type="curve" smooth="yes"/>
      <point x="284.434" y="-240.04"/>
      <point x="249" y="-199.019"/>
      <point x="249" y="-142" type="curve" smooth="yes"/>
      <point x="249" y="-103.333"/>
      <point x="272.333" y="-52.6667"/>
      <point x="319" y="10" type="curve"/>
      <point x="284" y="0"/>
      <point x="261.333" y="-1"/>
      <point x="234" y="-1" type="curve" smooth="yes"/>
      <point x="103" y="-1"/>
      <point x="31" y="69"/>
    </contour>
  </outline>
</glyph>
<glyph name="si_DIi" format="1">
  <advance width="456"/>
  <outline>
    <contour>
      <point x="246.75" y="514" type="curve" smooth="yes"/>
      <point x="246.75" y="483"/>
      <point x="276.75" y="458"/>
      <point x="312.75" y="458" type="curve" smooth="yes"/>
      <point x="348.75" y="458"/>
      <point x="378.75" y="483"/>
      <point x="378.75" y="514" type="curve" smooth="yes"/>
      <point x="378.75" y="545"/>
      <point x="348.75" y="570"/>
      <point x="312.75" y="570" type="curve" smooth="yes"/>
      <point x="276.75" y="570"/>
      <point x="246.75" y="545"/>
    </contour>
    <contour>
      <point x="35.0801" y="518" type="curve" smooth="yes"/>
      <point x="35.0801" y="618.565"/>
      <point x="126.303" y="671"/>
      <point x="223" y="671" type="curve" smooth="yes"/>
      <point x="319.697" y="671"/>
      <point x="410.92" y="614.322"/>
      <point x="410.92" y="522.75" type="curve" smooth="yes"/>
      <point x="410.92" y="463.267"/>
      <point x="363.464" y="429"/>
      <point x="312.25" y="429" type="curve" smooth="yes"/>
      <point x="252.575" y="429"/>
      <point x="214.75" y="470"/>
      <point x="214.75" y="515" type="curve" smooth="yes"/>
      <point x="214.75" y="560"/>
      <point x="251.217" y="587.258"/>
      <point x="278" y="592" type="curve"/>
      <point x="267" y="595"/>
      <point x="236.609" y="598"/>
      <point x="223" y="598" type="curve" smooth="yes"/>
      <point x="150.984" y="598"/>
      <point x="66.1201" y="573.424"/>
      <point x="66.1201" y="509" type="curve" smooth="yes"/>
      <point x="66.1201" y="460.729"/>
      <point x="108.769" y="425"/>
      <point x="194" y="425" type="curve"/>
      <point x="150.91" y="405" type="line"/>
      <point x="84.9511" y="414.727"/>
      <point x="35.0801" y="450.955"/>
    </contour>
    <component base="uni0DAF"/>
  </outline>
</glyph>
<glyph name="si_DRAa" format="1">
  <advance width="716"/>
  <outline>
    <contour>
      <point x="33.6611" y="-43" type="curve"/>
      <point x="58.5938" y="-43" type="line"/>
      <point x="80.334" y="-111.712"/>
      <point x="126.548" y="-142.25"/>
      <point x="203.336" y="-142.25" type="curve" smooth="yes"/>
      <point x="307.583" y="-142.25"/>
      <point x="382.154" y="-72.0848"/>
      <point x="382.154" y="51" type="curve" smooth="yes"/>
      <point x="382.154" y="72"/>
      <point x="381.689" y="66.0068"/>
      <point x="380.75" y="74" type="curve"/>
      <point x="407" y="78.75" type="line"/>
      <point x="407.004" y="58.4798"/>
      <point x="407.25" y="75.667"/>
      <point x="407.25" y="39" type="curve" smooth="yes"/>
      <point x="407.25" y="-108.6"/>
      <point x="319.976" y="-204.25"/>
      <point x="215" y="-204.25" type="curve" smooth="yes"/>
      <point x="109.809" y="-204.25"/>
      <point x="53.2828" y="-144.604"/>
    </contour>
    <contour>
      <point x="31" y="169" type="curve" smooth="yes"/>
      <point x="31" y="274"/>
      <point x="104" y="317"/>
      <point x="223" y="317" type="curve" smooth="yes"/>
      <point x="343" y="317" type="line"/>
      <point x="333.277" y="363.186"/>
      <point x="304" y="396"/>
      <point x="260" y="396" type="curve" smooth="yes"/>
      <point x="241" y="396"/>
      <point x="225.048" y="383.911"/>
      <point x="216.5" y="366" type="curve" smooth="yes"/>
      <point x="206" y="344"/>
      <point x="189.802" y="336"/>
      <point x="175" y="336" type="curve" smooth="yes"/>
      <point x="150" y="336"/>
      <point x="137" y="351"/>
      <point x="137" y="372" type="curve" smooth="yes"/>
      <point x="137" y="408.283"/>
      <point x="177" y="433"/>
      <point x="232" y="433" type="curve" smooth="yes"/>
      <point x="317.739" y="433"/>
      <point x="360.904" y="389.003"/>
      <point x="379" y="294" type="curve"/>
      <point x="242" y="294" type="line" smooth="yes"/>
      <point x="154" y="294"/>
      <point x="108" y="257"/>
      <point x="108" y="173" type="curve" smooth="yes"/>
      <point x="108" y="89"/>
      <point x="178" y="27"/>
      <point x="261" y="27" type="curve" smooth="yes"/>
      <point x="307.077" y="27"/>
      <point x="351.052" y="50.0427"/>
      <point x="384" y="92" type="curve"/>
      <point x="407" y="78.75" type="line"/>
      <point x="367.4" y="33.3636"/>
      <point x="328.458" y="-1"/>
      <point x="234" y="-1" type="curve" smooth="yes"/>
      <point x="103" y="-1"/>
      <point x="31" y="69"/>
    </contour>
    <contour>
      <point x="424.25" y="110.1" type="curve" smooth="yes"/>
      <point x="424.25" y="117.507"/>
      <point x="424.583" y="124.914"/>
      <point x="425.25" y="132.32" type="curve"/>
      <point x="452.25" y="132.32" type="line"/>
      <point x="451.583" y="127.606"/>
      <point x="451.25" y="122.557"/>
      <point x="451.25" y="117.17" type="curve" smooth="yes"/>
      <point x="451.25" y="68.6904"/>
      <point x="475.25" y="36"/>
      <point x="520.25" y="36.4004" type="curve" smooth="yes"/>
      <point x="579.248" y="36.9258"/>
      <point x="606.25" y="90.54"/>
      <point x="606.25" y="201" type="curve" smooth="yes"/>
      <point x="606.25" y="311.46"/>
      <point x="579.25" y="365.6"/>
      <point x="520.25" y="365.6" type="curve" smooth="yes"/>
      <point x="482.25" y="365.6"/>
      <point x="451.25" y="333.31"/>
      <point x="451.25" y="284.83" type="curve" smooth="yes"/>
      <point x="451.25" y="279.443"/>
      <point x="451.583" y="274.394"/>
      <point x="452.25" y="269.68" type="curve"/>
      <point x="425.25" y="269.68" type="line"/>
      <point x="424.583" y="277.086"/>
      <point x="424.25" y="284.494"/>
      <point x="424.25" y="291.9" type="curve" smooth="yes"/>
      <point x="424.25" y="360.729"/>
      <point x="476.25" y="403"/>
      <point x="535.25" y="403" type="curve" smooth="yes"/>
      <point x="626.25" y="403"/>
      <point x="672.25" y="329.27"/>
      <point x="672.25" y="201" type="curve" smooth="yes"/>
      <point x="672.25" y="72.7305"/>
      <point x="626.25" y="-1"/>
      <point x="535.25" y="-1" type="curve" smooth="yes"/>
      <point x="467.838" y="-1"/>
      <point x="424.25" y="41.2715"/>
    </contour>
  </outline>
</glyph>
<glyph name="si_DVIi" format="1">
  <advance width="688"/>
  <outline>
    <contour>
      <point x="456.697" y="555" type="curve" smooth="yes"/>
      <point x="456.697" y="585.182"/>
      <point x="483.867" y="609.457"/>
      <point x="517" y="609.457" type="curve" smooth="yes"/>
      <point x="550.133" y="609.457"/>
      <point x="577.303" y="585.182"/>
      <point x="577.303" y="555" type="curve" smooth="yes"/>
      <point x="577.303" y="524.818"/>
      <point x="550.133" y="500.543"/>
      <point x="517" y="500.543" type="curve" smooth="yes"/>
      <point x="483.867" y="500.543"/>
      <point x="456.697" y="524.818"/>
    </contour>
    <contour>
      <point x="139" y="562" type="curve" smooth="yes"/>
      <point x="139" y="476"/>
      <point x="256" y="483"/>
      <point x="345" y="478" type="curve" smooth="yes"/>
      <point x="446.019" y="472.325"/>
      <point x="509" y="472"/>
      <point x="562" y="414" type="curve" smooth="yes"/>
      <point x="589.813" y="383.562"/>
      <point x="606" y="336.985"/>
      <point x="606" y="285.75" type="curve"/>
      <point x="640" y="274" type="line"/>
      <point x="640" y="358.553"/>
      <point x="604.146" y="423.257"/>
      <point x="555" y="459" type="curve" smooth="yes"/>
      <point x="500" y="499"/>
      <point x="408.869" y="501.456"/>
      <point x="344" y="504" type="curve" smooth="yes"/>
      <point x="242" y="508"/>
      <point x="181" y="508"/>
      <point x="181" y="554" type="curve" smooth="yes"/>
      <point x="181" y="605.886"/>
      <point x="290.344" y="611"/>
      <point x="366" y="611" type="curve" smooth="yes"/>
      <point x="408.212" y="611"/>
      <point x="437" y="609"/>
      <point x="444" y="608" type="curve"/>
      <point x="438" y="600"/>
      <point x="425" y="583"/>
      <point x="425" y="558" type="curve" smooth="yes"/>
      <point x="425" y="505"/>
      <point x="473" y="474"/>
      <point x="517" y="474" type="curve" smooth="yes"/>
      <point x="561" y="474"/>
      <point x="609" y="505"/>
      <point x="609" y="558" type="curve" smooth="yes"/>
      <point x="609" y="639"/>
      <point x="502" y="670"/>
      <point x="366" y="670" type="curve" smooth="yes"/>
      <point x="266" y="670"/>
      <point x="139" y="652"/>
    </contour>
    <contour>
      <point x="125" y="165" type="curve" smooth="yes"/>
      <point x="125" y="250"/>
      <point x="190" y="304"/>
      <point x="291" y="304" type="curve" smooth="yes"/>
      <point x="352" y="304" type="line"/>
      <point x="352.082" y="306.041"/>
      <point x="352.086" y="306.041"/>
      <point x="352.086" y="308" type="curve" smooth="yes"/>
      <point x="352.086" y="362"/>
      <point x="318" y="395"/>
      <point x="281" y="395" type="curve" smooth="yes"/>
      <point x="236" y="395"/>
      <point x="228" y="371"/>
      <point x="222.5" y="355" type="curve" smooth="yes"/>
      <point x="215.951" y="335.948"/>
      <point x="206.371" y="323"/>
      <point x="184.5" y="323" type="curve" smooth="yes"/>
      <point x="168.5" y="323"/>
      <point x="147.75" y="333.618"/>
      <point x="147.75" y="359.25" type="curve" smooth="yes"/>
      <point x="147.75" y="404.581"/>
      <point x="198" y="431.5"/>
      <point x="253" y="431.5" type="curve" smooth="yes"/>
      <point x="341" y="431.5"/>
      <point x="384.146" y="376"/>
      <point x="384.146" y="290" type="curve" smooth="yes"/>
      <point x="384.146" y="286.722"/>
      <point x="384.101" y="283.388"/>
      <point x="384" y="280" type="curve"/>
      <point x="294" y="280" type="line" smooth="yes"/>
      <point x="220" y="280"/>
      <point x="160" y="245.216"/>
      <point x="160" y="180" type="curve" smooth="yes"/>
      <point x="160" y="94"/>
      <point x="272" y="71"/>
      <point x="362" y="71" type="curve" smooth="yes"/>
      <point x="515" y="71"/>
      <point x="606" y="158"/>
      <point x="606" y="300" type="curve"/>
      <point x="617.942" y="288.697"/>
      <point x="624.757" y="282.252"/>
      <point x="640" y="274" type="curve"/>
      <point x="640" y="114"/>
      <point x="542" y="0"/>
      <point x="359" y="0" type="curve" smooth="yes"/>
      <point x="238" y="0"/>
      <point x="125" y="46"/>
    </contour>
    <contour>
      <point x="27" y="221" type="curve" smooth="yes"/>
      <point x="27" y="352.7"/>
      <point x="99.7562" y="433"/>
      <point x="239" y="433" type="curve" smooth="yes"/>
      <point x="248" y="433"/>
      <point x="271" y="433"/>
      <point x="293" y="427" type="curve"/>
      <point x="272" y="416"/>
      <point x="194" y="406"/>
      <point x="177" y="400" type="curve"/>
      <point x="102" y="382"/>
      <point x="56" y="319.268"/>
      <point x="56" y="218" type="curve" smooth="yes"/>
      <point x="56" y="137.333"/>
      <point x="83" y="75.333"/>
      <point x="135" y="30" type="curve"/>
      <point x="135" y="0" type="line"/>
      <point x="68.5828" y="33.2086"/>
      <point x="27" y="120.07"/>
    </contour>
  </outline>
</glyph>
<glyph name="si_DVa" format="1">
  <advance width="688"/>
  <outline>
    <contour>
      <point x="125" y="165" type="curve" smooth="yes"/>
      <point x="125" y="250"/>
      <point x="190" y="304"/>
      <point x="291" y="304" type="curve" smooth="yes"/>
      <point x="352" y="304" type="line"/>
      <point x="352.082" y="306.041"/>
      <point x="352.086" y="306.041"/>
      <point x="352.086" y="308" type="curve" smooth="yes"/>
      <point x="352.086" y="362"/>
      <point x="318" y="395"/>
      <point x="281" y="395" type="curve" smooth="yes"/>
      <point x="236" y="395"/>
      <point x="228" y="371"/>
      <point x="222.5" y="355" type="curve" smooth="yes"/>
      <point x="215.951" y="335.948"/>
      <point x="206.621" y="323"/>
      <point x="184.75" y="323" type="curve" smooth="yes"/>
      <point x="168.75" y="323"/>
      <point x="147.75" y="333.034"/>
      <point x="147.75" y="359.75" type="curve" smooth="yes"/>
      <point x="147.75" y="403.174"/>
      <point x="198" y="431.5"/>
      <point x="253" y="431.5" type="curve" smooth="yes"/>
      <point x="341" y="431.5"/>
      <point x="384.146" y="376"/>
      <point x="384.146" y="290" type="curve" smooth="yes"/>
      <point x="384.146" y="286.722"/>
      <point x="384.101" y="283.388"/>
      <point x="384" y="280" type="curve"/>
      <point x="294" y="280" type="line" smooth="yes"/>
      <point x="220" y="280"/>
      <point x="160" y="245.216"/>
      <point x="160" y="180" type="curve" smooth="yes"/>
      <point x="160" y="94"/>
      <point x="272" y="71"/>
      <point x="362" y="71" type="curve" smooth="yes"/>
      <point x="515" y="71"/>
      <point x="606" y="158"/>
      <point x="606" y="300" type="curve" smooth="yes"/>
      <point x="606" y="442"/>
      <point x="502.498" y="553"/>
      <point x="368" y="553" type="curve" smooth="yes"/>
      <point x="288.667" y="553"/>
      <point x="225.667" y="524.667"/>
      <point x="181" y="470" type="curve"/>
      <point x="149" y="470" type="line"/>
      <point x="197.667" y="540"/>
      <point x="270" y="577"/>
      <point x="368" y="577" type="curve" smooth="yes"/>
      <point x="528.151" y="577"/>
      <point x="640" y="443"/>
      <point x="640" y="274" type="curve" smooth="yes"/>
      <point x="640" y="114"/>
      <point x="542" y="0"/>
      <point x="359" y="0" type="curve" smooth="yes"/>
      <point x="238" y="0"/>
      <point x="125" y="46"/>
    </contour>
    <contour>
      <point x="27" y="221" type="curve" smooth="yes"/>
      <point x="27" y="352.7"/>
      <point x="99.7559" y="433"/>
      <point x="239" y="433" type="curve" smooth="yes"/>
      <point x="248" y="433"/>
      <point x="271" y="433"/>
      <point x="293" y="427" type="curve"/>
      <point x="272" y="416"/>
      <point x="194" y="406"/>
      <point x="177" y="400" type="curve"/>
      <point x="102" y="382"/>
      <point x="56" y="319.268"/>
      <point x="56" y="218" type="curve" smooth="yes"/>
      <point x="56" y="137.333"/>
      <point x="83" y="75.333"/>
      <point x="135" y="30" type="curve"/>
      <point x="135" y="0" type="line"/>
      <point x="68.583" y="33.209"/>
      <point x="27" y="120.07"/>
    </contour>
  </outline>
</glyph>
<glyph name="si_DYUu.post" format="1">
  <advance width="950"/>
  <outline>
    <contour>
      <point x="423" y="-142.5" type="curve" smooth="yes"/>
      <point x="423" y="-90.4912"/>
      <point x="469.293" y="-50.5"/>
      <point x="524.5" y="-50.5" type="curve" smooth="yes"/>
      <point x="566.406" y="-50.5"/>
      <point x="603.75" y="-74.1416"/>
      <point x="618.5" y="-110" type="curve"/>
      <point x="588.5" y="-121.5" type="line"/>
      <point x="581.482" y="-101.896"/>
      <point x="557.5" y="-80"/>
      <point x="524.5" y="-80" type="curve" smooth="yes"/>
      <point x="487.796" y="-80"/>
      <point x="456.5" y="-106.714"/>
      <point x="456.5" y="-142.5" type="curve" smooth="yes"/>
      <point x="456.5" y="-171.663"/>
      <point x="479.884" y="-199"/>
      <point x="545.5" y="-199" type="curve" smooth="yes"/>
      <point x="857" y="-199" type="line"/>
      <point x="857" y="128" type="line"/>
      <point x="890" y="198" type="line"/>
      <point x="890" y="-235" type="line"/>
      <point x="528.5" y="-235" type="line" smooth="yes"/>
      <point x="459.34" y="-235"/>
      <point x="423" y="-186.092"/>
    </contour>
    <contour>
      <point x="416.75" y="21" type="line"/>
      <point x="508.75" y="60"/>
      <point x="591.75" y="141"/>
      <point x="591.75" y="268" type="curve" smooth="yes"/>
      <point x="591.75" y="338.166"/>
      <point x="553.792" y="406"/>
      <point x="488.75" y="406" type="curve" smooth="yes"/>
      <point x="473.417" y="406"/>
      <point x="454.75" y="402"/>
      <point x="439.75" y="395" type="curve"/>
      <point x="439.75" y="422" type="line"/>
      <point x="452.75" y="429"/>
      <point x="474.083" y="432"/>
      <point x="490.75" y="432" type="curve" smooth="yes"/>
      <point x="567.015" y="432"/>
      <point x="620.75" y="360"/>
      <point x="620.75" y="273" type="curve" smooth="yes"/>
      <point x="620.75" y="214"/>
      <point x="609.083" y="163.333"/>
      <point x="571.75" y="108" type="curve"/>
      <point x="611.083" y="83.333"/>
      <point x="656.417" y="71"/>
      <point x="707.75" y="71" type="curve" smooth="yes"/>
      <point x="786.894" y="71"/>
      <point x="860.75" y="114"/>
      <point x="860.75" y="193" type="curve" smooth="yes"/>
      <point x="860.75" y="254.063"/>
      <point x="809.75" y="280"/>
      <point x="748.75" y="280" type="curve" smooth="yes"/>
      <point x="716.75" y="280"/>
      <point x="653.75" y="286.868"/>
      <point x="653.75" y="352" type="curve" smooth="yes"/>
      <point x="653.75" y="402"/>
      <point x="699.927" y="432"/>
      <point x="760.75" y="432" type="curve" smooth="yes"/>
      <point x="819.75" y="432"/>
      <point x="865.75" y="400"/>
      <point x="865.75" y="341" type="curve" smooth="yes"/>
      <point x="865.75" y="334.333"/>
      <point x="865.083" y="327.667"/>
      <point x="863.75" y="321" type="curve"/>
      <point x="832.75" y="321" type="line"/>
      <point x="834.083" y="327"/>
      <point x="834.75" y="333"/>
      <point x="834.75" y="339" type="curve" smooth="yes"/>
      <point x="834.75" y="382"/>
      <point x="802.75" y="406"/>
      <point x="759.75" y="406" type="curve" smooth="yes"/>
      <point x="723.389" y="406"/>
      <point x="683.75" y="390"/>
      <point x="683.75" y="353" type="curve" smooth="yes"/>
      <point x="683.75" y="315.963"/>
      <point x="712.75" y="306"/>
      <point x="751.75" y="306" type="curve" smooth="yes"/>
      <point x="828.75" y="306"/>
      <point x="901.75" y="265.808"/>
      <point x="901.75" y="164" type="curve" smooth="yes"/>
      <point x="901.75" y="66"/>
      <point x="813.75" y="0"/>
      <point x="726.75" y="0" type="curve" smooth="yes"/>
      <point x="649.13" y="0"/>
      <point x="599.75" y="21"/>
      <point x="551.75" y="83" type="curve"/>
      <point x="520.735" y="47.9404"/>
      <point x="476.68" y="14.8887"/>
      <point x="433.75" y="1" type="curve"/>
    </contour>
    <contour>
      <point x="31" y="169" type="curve" smooth="yes"/>
      <point x="31" y="274"/>
      <point x="104" y="317"/>
      <point x="223" y="317" type="curve" smooth="yes"/>
      <point x="343" y="317" type="line"/>
      <point x="333.277" y="363.186"/>
      <point x="304" y="396"/>
      <point x="260" y="396" type="curve" smooth="yes"/>
      <point x="241" y="396"/>
      <point x="225.048" y="383.911"/>
      <point x="216.5" y="366" type="curve" smooth="yes"/>
      <point x="206" y="344"/>
      <point x="189.802" y="336"/>
      <point x="175" y="336" type="curve" smooth="yes"/>
      <point x="150" y="336"/>
      <point x="137" y="351"/>
      <point x="137" y="372" type="curve" smooth="yes"/>
      <point x="137" y="408.283"/>
      <point x="177" y="433"/>
      <point x="232" y="433" type="curve" smooth="yes"/>
      <point x="317.739" y="433"/>
      <point x="360.904" y="389.003"/>
      <point x="379" y="294" type="curve"/>
      <point x="242" y="294" type="line" smooth="yes"/>
      <point x="154" y="294"/>
      <point x="108" y="257"/>
      <point x="108" y="173" type="curve" smooth="yes"/>
      <point x="108" y="89"/>
      <point x="178" y="27"/>
      <point x="261" y="27" type="curve" smooth="yes"/>
      <point x="307.077" y="27"/>
      <point x="344" y="46"/>
      <point x="384" y="92" type="curve"/>
      <point x="407" y="75" type="line"/>
      <point x="376.46" y="39.3701"/>
      <point x="306" y="-28"/>
      <point x="306" y="-104" type="curve" smooth="yes"/>
      <point x="306" y="-170.098"/>
      <point x="345.218" y="-195.118"/>
      <point x="409" y="-210" type="curve"/>
      <point x="409" y="-238" type="line"/>
      <point x="395" y="-240.667"/>
      <point x="377" y="-242"/>
      <point x="355" y="-242" type="curve" smooth="yes"/>
      <point x="284.434" y="-240.04"/>
      <point x="249" y="-199.019"/>
      <point x="249" y="-142" type="curve" smooth="yes"/>
      <point x="249" y="-103.333"/>
      <point x="272.333" y="-52.6667"/>
      <point x="319" y="10" type="curve"/>
      <point x="284" y="0"/>
      <point x="261.333" y="-1"/>
      <point x="234" y="-1" type="curve" smooth="yes"/>
      <point x="103" y="-1"/>
      <point x="31" y="69"/>
    </contour>
  </outline>
</glyph>
<glyph name="si_Da.reph" format="1">
  <advance width="456"/>
  <outline>
    <contour>
      <point x="198.586" y="511" type="curve" smooth="yes"/>
      <point x="198.586" y="490.446"/>
      <point x="217.184" y="473.807"/>
      <point x="239.5" y="473.807" type="curve" smooth="yes"/>
      <point x="261.816" y="473.807"/>
      <point x="280.414" y="490.446"/>
      <point x="280.414" y="511" type="curve" smooth="yes"/>
      <point x="280.414" y="531.554"/>
      <point x="261.816" y="548.193"/>
      <point x="239.5" y="548.193" type="curve" smooth="yes"/>
      <point x="217.184" y="548.193"/>
      <point x="198.586" y="531.554"/>
    </contour>
    <contour>
      <point x="96.5" y="530" type="curve" smooth="yes"/>
      <point x="96.5" y="594"/>
      <point x="154.62" y="631"/>
      <point x="236.5" y="631" type="curve" smooth="yes"/>
      <point x="313.5" y="631"/>
      <point x="377.5" y="588"/>
      <point x="377.5" y="517" type="curve" smooth="yes"/>
      <point x="377.5" y="493"/>
      <point x="369.167" y="471.333"/>
      <point x="352.5" y="452" type="curve"/>
      <point x="318.75" y="452" type="line"/>
      <point x="331.92" y="464.387"/>
      <point x="347.25" y="488.734"/>
      <point x="347.25" y="516" type="curve" smooth="yes"/>
      <point x="347.25" y="573.241"/>
      <point x="296.5" y="603.75"/>
      <point x="235.5" y="603.75" type="curve" smooth="yes"/>
      <point x="182.722" y="603.75"/>
      <point x="127.75" y="582.556"/>
      <point x="127.75" y="530" type="curve" smooth="yes"/>
      <point x="127.75" y="490.925"/>
      <point x="168.804" y="472.216"/>
      <point x="192" y="470.25" type="curve"/>
      <point x="184" y="476.25"/>
      <point x="171.5" y="491"/>
      <point x="171.5" y="512" type="curve" smooth="yes"/>
      <point x="171.5" y="547"/>
      <point x="202.854" y="572"/>
      <point x="238.5" y="572" type="curve" smooth="yes"/>
      <point x="279.5" y="572"/>
      <point x="307.5" y="545"/>
      <point x="307.5" y="510" type="curve" smooth="yes"/>
      <point x="307.5" y="471"/>
      <point x="272.5" y="445"/>
      <point x="214.5" y="445" type="curve" smooth="yes"/>
      <point x="155.5" y="445"/>
      <point x="96.5" y="474"/>
    </contour>
    <contour>
      <point x="31" y="169" type="curve" smooth="yes"/>
      <point x="31" y="274"/>
      <point x="104" y="317"/>
      <point x="223" y="317" type="curve" smooth="yes"/>
      <point x="343" y="317" type="line"/>
      <point x="333.277" y="363.186"/>
      <point x="304" y="396"/>
      <point x="260" y="396" type="curve" smooth="yes"/>
      <point x="241" y="396"/>
      <point x="225.048" y="383.911"/>
      <point x="216.5" y="366" type="curve" smooth="yes"/>
      <point x="206" y="344"/>
      <point x="189.802" y="336"/>
      <point x="175" y="336" type="curve" smooth="yes"/>
      <point x="150" y="336"/>
      <point x="137" y="351"/>
      <point x="137" y="372" type="curve" smooth="yes"/>
      <point x="137" y="408.283"/>
      <point x="177" y="433"/>
      <point x="232" y="433" type="curve" smooth="yes"/>
      <point x="317.739" y="433"/>
      <point x="360.904" y="389.003"/>
      <point x="379" y="294" type="curve"/>
      <point x="242" y="294" type="line" smooth="yes"/>
      <point x="154" y="294"/>
      <point x="108" y="257"/>
      <point x="108" y="173" type="curve" smooth="yes"/>
      <point x="108" y="89"/>
      <point x="178" y="27"/>
      <point x="261" y="27" type="curve" smooth="yes"/>
      <point x="307.077" y="27"/>
      <point x="344" y="46"/>
      <point x="384" y="92" type="curve"/>
      <point x="407" y="75" type="line"/>
      <point x="376.46" y="39.3701"/>
      <point x="306" y="-28"/>
      <point x="306" y="-104" type="curve" smooth="yes"/>
      <point x="306" y="-170.098"/>
      <point x="345.218" y="-195.118"/>
      <point x="409" y="-210" type="curve"/>
      <point x="409" y="-238" type="line"/>
      <point x="395" y="-240.667"/>
      <point x="377" y="-242"/>
      <point x="355" y="-242" type="curve" smooth="yes"/>
      <point x="284.434" y="-240.04"/>
      <point x="249" y="-199.019"/>
      <point x="249" y="-142" type="curve" smooth="yes"/>
      <point x="249" y="-103.333"/>
      <point x="272.333" y="-52.6667"/>
      <point x="319" y="10" type="curve"/>
      <point x="284" y="0"/>
      <point x="261.333" y="-1"/>
      <point x="234" y="-1" type="curve" smooth="yes"/>
      <point x="103" y="-1"/>
      <point x="31" y="69"/>
    </contour>
  </outline>
</glyph>
<glyph name="si_DdRI" format="1">
  <advance width="647"/>
  <outline>
    <contour>
      <point x="79.25" y="562" type="curve" smooth="yes"/>
      <point x="79.25" y="476"/>
      <point x="205.25" y="483"/>
      <point x="294.25" y="478" type="curve" smooth="yes"/>
      <point x="395.269" y="472.325"/>
      <point x="466" y="472"/>
      <point x="519" y="414" type="curve" smooth="yes"/>
      <point x="546.814" y="383.563"/>
      <point x="562" y="326.618"/>
      <point x="562" y="268" type="curve"/>
      <point x="598" y="255" type="line"/>
      <point x="598" y="343.803"/>
      <point x="561.146" y="423.257"/>
      <point x="512" y="459" type="curve" smooth="yes"/>
      <point x="457" y="499"/>
      <point x="358.119" y="501.456"/>
      <point x="293.25" y="504" type="curve" smooth="yes"/>
      <point x="191.25" y="508"/>
      <point x="121.25" y="508"/>
      <point x="121.25" y="554" type="curve" smooth="yes"/>
      <point x="121.25" y="605.886"/>
      <point x="239.594" y="611"/>
      <point x="315.25" y="611" type="curve" smooth="yes"/>
      <point x="423.25" y="611"/>
      <point x="519" y="600.273"/>
      <point x="519" y="544" type="curve" smooth="yes"/>
      <point x="519" y="506"/>
      <point x="464" y="491"/>
      <point x="428" y="490" type="curve"/>
      <point x="478" y="474" type="line"/>
      <point x="512" y="480"/>
      <point x="566" y="502"/>
      <point x="566" y="554" type="curve" smooth="yes"/>
      <point x="566" y="639"/>
      <point x="451.25" y="670"/>
      <point x="315.25" y="670" type="curve" smooth="yes"/>
      <point x="215.25" y="670"/>
      <point x="79.25" y="652"/>
    </contour>
    <contour>
      <point x="15" y="288" type="line"/>
      <point x="15" y="315" type="line"/>
      <point x="261" y="315" type="line"/>
      <point x="258.164" y="357.533"/>
      <point x="228" y="391.268"/>
      <point x="198" y="391.268" type="curve" smooth="yes"/>
      <point x="180.364" y="391.268"/>
      <point x="165.118" y="387.386"/>
      <point x="151" y="363" type="curve" smooth="yes"/>
      <point x="140" y="344"/>
      <point x="126.646" y="339.264"/>
      <point x="113" y="339.264" type="curve" smooth="yes"/>
      <point x="93" y="339.264"/>
      <point x="76.2109" y="353"/>
      <point x="76.2109" y="374.122" type="curve" smooth="yes"/>
      <point x="76.2109" y="414"/>
      <point x="123.101" y="432.167"/>
      <point x="165.279" y="432.167" type="curve" smooth="yes"/>
      <point x="249.407" y="432.167"/>
      <point x="293.627" y="373.979"/>
      <point x="295" y="288" type="curve"/>
      <point x="220" y="288" type="line" smooth="yes"/>
      <point x="126.957" y="288"/>
      <point x="83.3915" y="230"/>
      <point x="83.3915" y="174" type="curve" smooth="yes"/>
      <point x="83.3915" y="121.642"/>
      <point x="123.262" y="71"/>
      <point x="198" y="71" type="curve" smooth="yes"/>
      <point x="247.046" y="71"/>
      <point x="299" y="95.1648"/>
      <point x="299" y="143" type="curve" smooth="yes"/>
      <point x="299" y="178" type="line"/>
      <point x="326" y="178" type="line"/>
      <point x="326" y="143" type="line" smooth="yes"/>
      <point x="326" y="97.0863"/>
      <point x="373.775" y="71"/>
      <point x="424" y="71" type="curve" smooth="yes"/>
      <point x="520.489" y="71"/>
      <point x="561.894" y="167.485"/>
      <point x="561.894" y="273.218" type="curve"/>
      <point x="577.316" y="269.889"/>
      <point x="591.314" y="262.436"/>
      <point x="597.987" y="258.222" type="curve"/>
      <point x="597.987" y="126.286"/>
      <point x="547.007" y="-0.0251312"/>
      <point x="427.656" y="-0.0251312" type="curve" smooth="yes"/>
      <point x="363.028" y="-0.0251312"/>
      <point x="334.63" y="28.5207"/>
      <point x="313" y="59" type="curve"/>
      <point x="283.406" y="21.6861"/>
      <point x="250" y="0"/>
      <point x="199" y="0" type="curve" smooth="yes"/>
      <point x="97.9838" y="0"/>
      <point x="45.8805" y="81.1903"/>
      <point x="45.8805" y="162" type="curve" smooth="yes"/>
      <point x="45.8805" y="212"/>
      <point x="71.0487" y="264.198"/>
      <point x="125" y="288" type="curve"/>
    </contour>
    <contour>
      <point x="56" y="-44" type="curve"/>
      <point x="83" y="-44" type="line"/>
      <point x="118.333" y="-119.333"/>
      <point x="187.667" y="-157"/>
      <point x="293" y="-157" type="curve" smooth="yes"/>
      <point x="436" y="-157"/>
      <point x="554" y="-90"/>
      <point x="554" y="50" type="curve" smooth="yes"/>
      <point x="554" y="71"/>
      <point x="549" y="93"/>
      <point x="542" y="102" type="curve"/>
      <point x="555" y="133" type="line"/>
      <point x="573" y="106.333"/>
      <point x="582" y="74.667"/>
      <point x="582" y="38" type="curve" smooth="yes"/>
      <point x="582" y="-123.729"/>
      <point x="453" y="-219"/>
      <point x="309" y="-219" type="curve" smooth="yes"/>
      <point x="176" y="-219"/>
      <point x="93.333" y="-153.333"/>
    </contour>
  </outline>
</glyph>
